{"glyphs":{"0":{"ha":694,"x_min":85,"x_max":610,"o":"m 347 -11 q 274 -3 310 -11 q 206 23 238 4 q 149 70 174 42 q 110 133 125 99 q 90 203 96 167 q 85 278 85 240 l 85 743 q 90 817 85 781 q 110 888 96 854 q 149 951 125 922 q 206 998 174 979 q 274 1024 238 1017 q 347 1032 310 1032 q 421 1024 385 1032 q 489 998 457 1017 q 545 951 521 979 q 584 888 569 922 q 604 817 599 854 q 610 743 610 781 l 610 278 q 604 203 610 240 q 584 133 599 167 q 545 70 569 99 q 489 23 521 42 q 421 -3 457 4 q 347 -11 385 -11 m 140 378 l 554 707 l 554 743 q 550 803 554 774 q 535 860 546 832 q 505 912 524 888 q 461 952 486 936 q 407 974 436 968 q 347 981 378 981 q 288 974 317 981 q 233 952 258 968 q 190 912 208 936 q 160 860 171 888 q 144 803 149 832 q 140 743 140 774 l 140 378 m 347 40 q 407 47 378 40 q 461 69 436 53 q 505 109 486 85 q 535 161 524 133 q 550 218 546 189 q 554 278 554 247 l 554 643 l 140 314 l 140 278 q 144 218 140 247 q 160 161 149 189 q 190 109 171 133 q 233 69 208 85 q 288 47 258 53 q 347 40 317 40 z "},"1":{"ha":694,"x_min":88,"x_max":417,"o":"m 361 0 l 361 960 l 117 796 l 88 838 l 361 1021 l 417 1021 l 417 0 l 361 0 z "},"2":{"ha":694,"x_min":93,"x_max":604,"o":"m 96 0 l 96 1 q 97 80 96 40 q 107 158 99 119 q 129 233 115 196 q 165 303 143 269 q 213 365 186 336 q 269 419 239 393 q 332 466 300 444 q 396 510 364 488 q 457 560 428 533 q 507 621 486 588 q 538 692 528 654 q 549 769 549 731 q 538 852 549 811 q 499 924 526 893 q 431 967 471 954 q 349 981 390 981 q 272 969 310 981 q 205 932 233 958 q 163 868 176 906 q 149 792 149 831 l 149 785 l 93 785 l 93 793 q 101 859 93 826 q 125 920 108 892 q 166 971 142 949 q 220 1007 190 993 q 283 1026 250 1021 q 349 1032 315 1032 q 418 1026 383 1032 q 483 1003 453 1019 q 538 962 514 988 q 578 905 563 936 q 599 839 593 874 q 604 769 604 804 q 592 681 604 725 q 558 600 581 638 q 502 532 535 563 q 433 475 469 501 q 361 422 397 449 q 292 366 325 396 q 231 301 258 336 q 187 224 204 265 q 161 140 169 183 q 151 51 153 96 l 599 51 l 599 0 l 96 0 z "},"3":{"ha":694,"x_min":82,"x_max":621,"o":"m 351 -11 q 283 -6 317 -11 q 217 13 249 0 q 160 49 186 26 q 117 101 135 72 q 90 164 99 131 q 82 232 82 197 l 82 236 l 138 236 l 138 232 q 153 153 138 192 q 200 88 169 114 q 271 51 231 61 q 351 40 311 40 q 409 46 381 40 q 463 65 438 51 q 509 101 489 79 q 542 149 529 122 q 560 203 554 175 q 565 261 565 232 q 558 330 565 296 q 533 394 550 364 q 490 448 515 424 q 433 485 464 472 q 367 502 401 499 q 297 506 332 506 l 297 557 q 360 560 329 557 q 421 575 392 563 q 474 609 450 588 q 513 658 497 631 q 536 717 529 686 q 543 781 543 749 q 531 858 543 819 q 493 925 519 896 q 428 967 467 954 q 351 981 390 981 q 276 969 314 981 q 212 931 239 957 q 172 867 185 904 q 160 792 160 829 l 160 785 l 104 785 l 104 793 q 112 858 104 826 q 135 917 119 889 q 174 969 150 946 q 226 1006 197 992 q 287 1026 254 1021 q 351 1032 319 1032 q 417 1026 385 1032 q 480 1004 450 1019 q 533 965 510 989 q 570 910 556 940 q 592 847 585 881 q 599 782 599 814 q 589 703 599 742 q 558 631 579 664 q 507 572 538 597 q 439 532 476 546 q 516 492 481 519 q 575 427 551 464 q 610 347 599 390 q 621 260 621 304 q 613 188 621 224 q 590 120 606 153 q 548 62 574 88 q 490 19 522 36 q 423 -5 458 1 q 351 -11 388 -11 z "},"4":{"ha":694,"x_min":85,"x_max":599,"o":"m 439 0 l 439 288 l 85 288 l 85 338 l 435 1021 l 496 1021 l 144 338 l 439 338 l 439 639 l 493 639 l 493 338 l 599 338 l 599 288 l 493 288 l 493 0 l 439 0 z "},"5":{"ha":694,"x_min":93,"x_max":610,"o":"m 350 -11 q 283 -6 317 -11 q 220 15 250 0 q 166 54 190 31 q 126 108 142 78 q 101 170 110 138 q 93 236 93 203 l 149 236 q 163 159 149 197 q 205 92 176 121 q 272 52 233 64 q 350 40 310 40 q 415 51 383 40 q 472 83 447 61 q 513 134 496 104 q 538 196 529 164 q 551 260 547 228 q 554 326 554 293 q 551 392 554 360 q 539 457 547 425 q 515 518 531 489 q 474 569 499 547 q 418 603 450 592 q 354 614 386 614 q 286 606 319 614 q 225 579 253 599 q 180 529 197 560 q 161 465 163 499 l 106 465 l 106 1021 l 574 1021 l 574 969 l 161 969 l 161 596 q 202 628 179 615 q 250 650 225 642 q 301 661 275 658 q 354 664 328 664 q 432 653 393 664 q 502 617 471 642 q 555 557 533 592 q 589 485 576 522 q 606 407 601 447 q 610 326 610 367 q 605 246 610 286 q 588 167 600 206 q 553 95 575 129 q 500 36 532 61 q 429 0 468 11 q 350 -11 390 -11 z "},"6":{"ha":694,"x_min":85,"x_max":610,"o":"m 347 -11 q 272 -3 310 -11 q 201 26 233 6 q 146 78 169 47 q 108 144 122 108 q 90 217 94 179 q 85 293 85 256 q 100 429 85 363 q 140 560 115 496 q 197 685 165 624 q 258 807 228 746 l 369 1021 l 431 1021 l 308 783 l 306 779 q 240 650 272 715 q 183 517 207 585 q 219 553 199 538 q 264 580 240 569 q 313 594 288 590 q 364 599 339 599 q 438 589 401 599 q 503 558 474 579 q 555 505 533 536 q 589 439 576 474 q 606 367 601 404 q 610 293 610 331 q 605 217 610 256 q 586 144 600 179 q 549 78 572 108 q 493 26 525 47 q 423 -3 461 6 q 347 -11 385 -11 m 347 40 q 408 48 378 40 q 465 73 439 56 q 508 117 490 90 q 536 172 525 143 q 551 231 547 200 q 554 293 554 263 q 551 356 554 325 q 536 415 547 386 q 508 470 525 444 q 465 514 490 496 q 408 540 439 532 q 347 547 378 547 q 268 533 307 547 q 201 488 229 518 q 160 420 174 458 q 143 342 146 382 l 142 338 l 140 319 l 140 293 q 144 232 140 263 q 158 172 147 201 q 187 117 169 143 q 230 73 204 90 q 286 48 256 56 q 347 40 317 40 z "},"7":{"ha":694,"x_min":96,"x_max":599,"o":"m 221 0 l 540 969 l 96 969 l 96 1021 l 599 1021 l 599 969 l 278 0 l 221 0 z "},"8":{"ha":694,"x_min":85,"x_max":610,"o":"m 347 -11 q 281 -6 314 -11 q 218 12 249 -1 q 162 47 188 25 q 119 96 136 68 q 93 156 101 124 q 85 222 85 189 q 103 315 85 269 q 151 399 121 361 q 220 466 182 436 q 299 522 258 496 q 226 576 261 547 q 165 642 192 606 q 122 721 138 678 q 106 808 106 764 q 113 869 106 839 q 136 927 121 900 q 175 975 151 954 q 226 1009 199 996 q 285 1027 254 1022 q 347 1032 317 1032 q 409 1027 378 1032 q 468 1009 440 1022 q 519 975 496 996 q 558 927 543 954 q 581 869 574 900 q 589 808 589 839 q 573 721 589 764 q 530 642 557 678 q 468 576 503 606 q 396 522 433 547 q 474 466 436 496 q 543 399 513 436 q 592 315 574 361 q 610 222 610 269 q 601 156 610 189 q 576 96 593 124 q 533 47 558 68 q 476 12 507 25 q 413 -6 446 -1 q 347 -11 381 -11 m 347 553 q 415 600 382 575 q 475 657 449 625 q 517 728 501 689 q 533 807 533 767 q 520 878 533 843 q 481 937 507 913 q 419 971 454 961 q 347 981 383 981 q 276 971 311 981 q 214 937 240 961 q 174 878 188 913 q 161 807 161 843 q 177 728 161 767 q 219 657 193 689 q 279 600 246 625 q 347 553 313 575 m 347 40 q 425 50 386 40 q 494 85 464 60 q 539 147 524 110 q 554 222 554 183 q 535 308 554 267 q 488 383 517 350 q 422 441 458 415 q 347 490 385 467 q 273 441 310 467 q 207 383 236 415 q 159 308 178 350 q 140 222 140 267 q 156 147 140 183 q 201 85 171 110 q 269 50 231 60 q 347 40 308 40 z "},"9":{"ha":694,"x_min":85,"x_max":610,"o":"m 325 0 l 264 0 l 386 238 l 389 242 q 455 371 422 306 q 511 504 488 436 q 475 467 496 483 q 431 441 454 451 q 381 426 407 431 q 331 422 356 422 q 257 432 293 422 q 191 463 221 442 q 140 516 161 485 q 106 582 118 547 q 89 653 93 617 q 85 728 85 690 q 90 803 85 765 q 108 877 94 842 q 146 943 122 913 q 201 994 169 974 q 272 1024 233 1015 q 347 1032 310 1032 q 423 1024 385 1032 q 493 994 461 1015 q 549 943 525 974 q 586 877 572 913 q 605 803 600 842 q 610 728 610 765 q 594 592 610 658 q 554 461 579 525 q 498 336 529 397 q 436 214 467 275 l 325 0 m 347 474 q 426 488 388 474 q 493 533 465 503 q 535 601 521 563 q 551 679 549 639 l 553 683 l 554 701 l 554 728 q 551 789 554 758 q 536 849 547 819 q 508 904 525 878 q 465 948 490 931 q 408 973 439 965 q 347 981 378 981 q 286 973 317 981 q 230 948 256 965 q 187 904 204 931 q 158 849 169 878 q 144 790 147 821 q 140 728 140 758 q 144 665 140 696 q 158 606 147 635 q 187 551 169 576 q 230 507 204 525 q 286 481 256 489 q 347 474 317 474 z "},"\r":{"ha":0,"x_min":0,"x_max":0,"o":""}," ":{"ha":694,"x_min":0,"x_max":0,"o":""},"!":{"ha":694,"x_min":282,"x_max":413,"o":"m 375 361 l 319 361 l 319 1021 l 375 1021 l 375 361 m 347 -11 q 321 -7 333 -11 q 299 6 308 -3 q 285 28 289 15 q 282 54 282 42 q 285 81 282 68 q 299 103 289 94 q 321 117 308 113 q 347 121 333 121 q 374 117 361 121 q 396 103 386 113 q 409 81 406 94 q 413 54 413 68 q 409 28 413 42 q 396 6 406 15 q 374 -7 386 -3 q 347 -11 361 -11 z "},"\"":{"ha":694,"x_min":178,"x_max":517,"o":"m 182 614 q 179 842 181 728 q 178 1072 178 957 l 239 1072 q 238 842 239 957 q 235 614 236 728 l 182 614 m 460 614 q 457 842 458 728 q 456 1072 456 957 l 517 1072 q 515 842 517 957 q 513 614 514 728 l 460 614 z "},"#":{"ha":694,"x_min":71,"x_max":624,"o":"m 204 25 l 204 292 l 71 292 l 71 342 l 204 342 l 204 679 l 71 679 l 71 729 l 204 729 l 204 996 l 258 996 l 258 729 l 436 729 l 436 996 l 490 996 l 490 729 l 624 729 l 624 679 l 490 679 l 490 342 l 624 342 l 624 292 l 490 292 l 490 25 l 436 25 l 436 292 l 258 292 l 258 25 l 204 25 m 436 342 l 436 679 l 258 679 l 258 342 l 436 342 z "},"$":{"ha":694,"x_min":82,"x_max":610,"o":"m 319 -149 l 319 40 q 228 58 274 43 q 149 106 183 74 q 99 184 115 139 q 82 275 82 229 l 82 288 l 138 288 l 138 278 q 150 206 138 242 q 188 145 163 171 q 249 107 214 119 q 321 92 285 94 l 321 493 q 238 533 278 511 q 166 588 199 556 q 115 663 133 621 q 96 751 96 706 q 112 839 96 796 q 159 914 128 882 q 233 962 190 946 q 319 981 275 978 l 319 1171 l 375 1171 l 375 981 q 463 961 419 978 q 539 912 507 944 q 586 835 571 879 q 601 746 601 792 l 601 733 l 546 733 l 546 743 q 535 813 546 778 q 500 873 524 847 q 443 913 476 899 q 374 929 410 926 l 374 533 q 460 492 418 514 q 535 437 501 469 q 590 360 569 404 q 610 269 610 317 q 592 180 610 224 q 542 105 575 136 q 464 58 508 74 q 375 40 419 43 l 375 -149 l 319 -149 m 321 556 l 321 929 q 254 913 286 926 q 199 876 222 900 q 163 819 175 851 q 151 751 151 786 q 165 685 151 717 q 203 628 179 653 q 258 587 228 604 q 321 556 289 569 m 374 92 q 443 107 410 94 q 502 143 476 119 q 541 201 528 167 q 554 269 554 235 q 539 339 554 306 q 497 397 524 372 q 439 439 471 422 q 374 471 407 456 l 374 92 z "},"%":{"ha":694,"x_min":36,"x_max":657,"o":"m 197 500 q 136 508 167 500 q 82 535 106 515 q 47 585 58 556 q 36 646 36 615 l 36 886 q 47 947 36 917 q 82 997 58 976 q 136 1024 106 1017 q 197 1032 167 1032 q 260 1024 229 1032 q 313 997 290 1017 q 347 947 336 976 q 358 886 358 917 l 358 646 q 347 585 358 615 q 313 535 336 556 q 260 508 290 515 q 197 500 229 500 m 399 599 l 585 1021 l 647 1021 l 458 599 l 399 599 m 197 549 q 238 553 218 549 q 274 572 258 558 q 297 606 290 586 q 304 646 304 625 l 304 886 q 297 926 304 906 q 274 959 290 946 q 238 978 258 972 q 197 983 218 983 q 156 978 176 983 q 121 959 136 972 q 98 926 106 946 q 90 886 90 906 l 90 646 q 98 606 90 625 q 121 572 106 586 q 156 553 136 558 q 197 549 176 549 m 497 -11 q 435 -3 465 -11 q 381 24 404 4 q 347 74 358 44 q 336 136 336 104 l 336 375 q 347 435 336 406 q 381 485 358 465 q 435 513 404 506 q 497 521 465 521 q 558 513 528 521 q 613 485 589 506 q 647 435 636 465 q 657 375 657 406 l 657 136 q 647 74 657 104 q 613 24 636 44 q 558 -3 589 4 q 497 -11 528 -11 m 497 38 q 538 43 518 38 q 574 62 558 49 q 597 95 589 75 q 604 136 604 115 l 604 375 q 597 415 604 396 q 574 449 589 435 q 538 467 558 463 q 497 472 518 472 q 456 467 476 472 q 420 449 436 463 q 397 415 404 435 q 390 375 390 396 l 390 136 q 397 95 390 115 q 420 62 404 75 q 456 43 436 49 q 497 38 476 38 m 49 0 l 236 422 l 296 422 l 110 0 l 49 0 z "},"&":{"ha":694,"x_min":83,"x_max":657,"o":"m 322 -11 q 255 -3 288 -11 q 194 22 222 4 q 144 67 165 40 q 110 126 124 94 q 90 190 97 157 q 83 257 83 222 q 97 342 83 300 q 133 420 110 383 q 186 488 156 457 q 250 547 217 518 q 205 612 228 579 q 163 679 182 644 q 133 752 144 714 q 121 829 121 790 q 133 908 121 869 q 170 975 144 946 q 233 1018 196 1004 q 310 1032 271 1032 q 386 1018 349 1032 q 449 974 424 1004 q 487 906 475 944 q 499 829 499 868 q 484 742 499 785 q 444 663 469 700 q 387 596 419 626 q 321 538 354 565 q 338 509 329 524 q 357 481 347 494 l 522 215 q 524 218 524 217 q 525 222 525 219 l 597 408 l 654 408 l 576 204 q 567 181 572 193 q 558 158 563 169 l 657 0 l 594 0 l 528 106 q 518 90 524 97 q 507 75 513 82 q 469 38 490 54 q 424 11 447 22 q 374 -6 400 0 q 322 -11 349 -11 m 290 581 q 347 631 319 606 q 397 688 375 657 q 431 756 418 719 q 443 829 443 792 q 435 885 443 857 q 410 936 428 914 q 366 970 393 958 q 310 982 339 982 q 253 970 281 982 q 209 936 226 958 q 183 885 192 914 q 175 829 175 857 q 186 760 175 793 q 214 696 197 726 q 251 638 231 665 q 290 581 271 610 m 324 39 q 378 48 351 39 q 426 72 404 57 q 467 109 449 88 q 497 156 485 131 l 310 454 q 295 478 303 467 q 279 503 288 490 q 226 453 251 479 q 181 395 200 426 q 150 328 161 364 q 139 257 139 293 q 144 203 139 229 q 158 152 149 176 q 184 106 168 128 q 222 68 200 83 q 271 46 244 53 q 324 39 297 39 z "},"'":{"ha":694,"x_min":317,"x_max":378,"o":"m 321 614 q 318 842 319 728 q 317 1072 317 957 l 378 1072 q 376 842 378 957 q 374 614 375 728 l 321 614 z "},"(":{"ha":694,"x_min":174,"x_max":557,"o":"m 529 -224 q 417 -144 469 -190 q 324 -44 365 -99 q 254 73 283 11 q 207 201 225 135 q 181 335 189 267 q 174 472 174 404 q 181 609 174 540 q 207 744 189 678 q 254 872 225 810 q 324 988 283 933 q 417 1089 365 1043 q 529 1168 469 1135 l 557 1124 q 453 1049 501 1092 q 367 955 406 1007 q 303 845 329 903 q 260 726 276 788 q 236 600 243 664 q 229 472 229 536 q 236 344 229 408 q 260 219 243 281 q 303 99 276 157 q 367 -10 329 42 q 453 -105 406 -62 q 557 -179 501 -147 l 529 -224 z "},")":{"ha":694,"x_min":138,"x_max":521,"o":"m 165 -224 l 138 -179 q 241 -105 193 -147 q 327 -10 289 -62 q 392 99 365 42 q 435 219 418 157 q 458 344 451 281 q 465 472 465 408 q 458 600 465 536 q 435 726 451 664 q 392 845 418 788 q 327 955 365 903 q 241 1049 289 1007 q 138 1124 193 1092 l 165 1168 q 277 1089 225 1135 q 370 988 329 1043 q 440 872 411 933 q 488 744 469 810 q 513 609 506 678 q 521 472 521 540 q 513 335 521 404 q 488 201 506 267 q 440 73 469 135 q 370 -44 411 11 q 277 -144 329 -99 q 165 -224 225 -190 z "},"*":{"ha":694,"x_min":61,"x_max":633,"o":"m 199 590 l 153 621 l 313 831 l 61 907 l 78 956 l 325 871 l 319 1133 l 375 1133 l 369 871 l 617 956 l 633 907 l 382 831 l 542 621 l 496 590 l 347 804 l 199 590 z "},"+":{"ha":694,"x_min":96,"x_max":599,"o":"m 375 211 l 319 211 l 319 447 l 96 447 l 96 497 l 319 497 l 319 733 l 375 733 l 375 497 l 599 497 l 599 447 l 375 447 l 375 211 z "},",":{"ha":694,"x_min":265,"x_max":418,"o":"m 313 -299 l 265 -272 q 328 -146 303 -212 q 361 -10 353 -79 q 354 -11 358 -11 q 346 -11 350 -11 q 318 -7 332 -11 q 294 8 304 -3 q 281 32 285 18 q 276 60 276 46 q 281 88 276 74 q 295 112 285 101 q 319 126 306 122 q 347 131 333 131 q 377 126 363 131 q 401 110 392 121 q 415 83 411 99 q 418 54 418 68 q 410 -39 418 7 q 389 -129 403 -85 q 356 -216 375 -174 q 313 -299 336 -258 z "},"-":{"ha":694,"x_min":96,"x_max":599,"o":"m 599 447 l 96 447 l 96 497 l 599 497 l 599 447 z "},".":{"ha":694,"x_min":276,"x_max":418,"o":"m 347 -11 q 319 -7 333 -11 q 295 8 306 -3 q 281 32 285 18 q 276 60 276 46 q 281 88 276 74 q 295 112 285 101 q 319 126 306 122 q 347 131 333 131 q 375 126 361 131 q 399 112 389 122 q 414 88 410 101 q 418 60 418 74 q 414 32 418 46 q 399 8 410 18 q 375 -7 389 -3 q 347 -11 361 -11 z "},"/":{"ha":694,"x_min":92,"x_max":603,"o":"m 92 -199 l 544 1143 l 603 1143 l 150 -199 l 92 -199 z "},":":{"ha":694,"x_min":276,"x_max":418,"o":"m 347 -11 q 319 -7 333 -11 q 295 8 306 -3 q 281 32 285 18 q 276 60 276 46 q 281 88 276 74 q 295 112 285 101 q 319 126 306 122 q 347 131 333 131 q 375 126 361 131 q 399 112 389 122 q 414 88 410 101 q 418 60 418 74 q 414 32 418 46 q 399 8 410 18 q 375 -7 389 -3 q 347 -11 361 -11 m 347 592 q 319 596 333 592 q 295 610 306 600 q 281 635 285 621 q 276 663 276 649 q 281 690 276 676 q 295 715 285 704 q 319 729 306 725 q 347 733 333 733 q 375 729 361 733 q 399 715 389 725 q 414 690 410 704 q 418 663 418 676 q 414 635 418 649 q 399 610 410 621 q 375 596 389 600 q 347 592 361 592 z "},";":{"ha":694,"x_min":265,"x_max":418,"o":"m 313 -299 l 265 -272 q 328 -146 303 -212 q 361 -10 353 -79 q 354 -11 358 -11 q 346 -11 350 -11 q 318 -7 332 -11 q 294 8 304 -3 q 281 32 285 18 q 276 60 276 46 q 281 88 276 74 q 295 112 285 101 q 319 126 306 122 q 347 131 333 131 q 377 126 363 131 q 401 110 392 121 q 415 83 411 99 q 418 54 418 68 q 410 -39 418 7 q 389 -129 403 -85 q 356 -216 375 -174 q 313 -299 336 -258 m 347 592 q 319 596 333 592 q 295 610 306 600 q 281 635 285 621 q 276 663 276 649 q 281 690 276 676 q 295 715 285 704 q 319 729 306 725 q 347 733 333 733 q 375 729 361 733 q 399 715 389 725 q 414 690 410 704 q 418 663 418 676 q 414 635 418 649 q 399 610 410 621 q 375 596 389 600 q 347 592 361 592 z "},"<":{"ha":694,"x_min":96,"x_max":613,"o":"m 585 142 l 96 443 l 96 501 l 585 803 l 613 760 l 144 472 l 613 185 l 585 142 z "},"=":{"ha":694,"x_min":96,"x_max":599,"o":"m 96 568 l 96 618 l 599 618 l 599 568 l 96 568 m 599 326 l 96 326 l 96 376 l 599 376 l 599 326 z "},">":{"ha":694,"x_min":82,"x_max":599,"o":"m 110 142 l 82 185 l 550 472 l 82 760 l 110 803 l 599 501 l 599 443 l 110 142 z "},"?":{"ha":694,"x_min":93,"x_max":599,"o":"m 319 307 q 323 375 319 340 q 338 442 326 410 q 369 503 350 475 q 412 558 389 532 q 458 608 435 583 q 501 662 482 633 q 532 724 521 690 q 543 792 543 757 q 529 867 543 831 q 488 931 515 904 q 422 969 460 958 q 346 981 385 981 q 269 969 307 981 q 204 932 232 958 q 163 869 176 906 q 149 793 149 832 l 149 785 l 93 785 l 93 794 q 101 860 93 828 q 124 920 108 892 q 165 971 140 949 q 219 1007 189 993 q 281 1026 249 1021 q 346 1032 313 1032 q 412 1026 379 1032 q 474 1006 444 1021 q 527 969 503 992 q 567 917 551 946 q 591 856 583 889 q 599 792 599 824 q 590 723 599 757 q 566 658 582 689 q 528 601 550 628 q 484 549 507 574 q 438 497 461 524 q 400 440 415 471 q 380 375 385 410 q 375 307 375 340 l 319 307 m 347 -11 q 321 -7 333 -11 q 299 6 308 -3 q 285 28 289 15 q 282 54 282 42 q 285 81 282 68 q 299 103 289 94 q 321 117 308 113 q 347 121 333 121 q 374 117 361 121 q 396 103 386 113 q 409 81 406 94 q 413 54 413 68 q 409 28 413 42 q 396 6 406 15 q 374 -7 386 -3 q 347 -11 361 -11 z "},"@":{"ha":694,"x_min":96,"x_max":599,"o":"m 347 -103 q 276 -95 311 -103 q 210 -69 240 -87 q 156 -22 179 -50 q 119 40 133 7 q 101 108 106 72 q 96 179 96 144 l 96 765 q 101 836 96 800 q 119 905 106 872 q 156 966 133 938 q 210 1013 179 994 q 276 1040 240 1032 q 347 1047 311 1047 q 419 1040 383 1047 q 485 1013 454 1032 q 538 966 515 994 q 575 905 561 938 q 594 837 589 872 q 599 765 599 801 l 599 306 q 596 261 599 283 q 586 218 593 239 q 567 179 579 197 q 537 148 554 161 q 498 129 519 135 q 454 124 476 124 q 411 129 432 124 q 372 148 390 135 q 342 179 354 161 q 323 218 331 197 q 313 261 315 239 q 311 306 311 283 l 311 583 q 318 650 311 617 q 344 710 325 683 q 395 751 364 738 q 460 765 426 765 l 544 765 q 541 823 544 794 q 527 878 538 851 q 499 928 517 904 q 457 967 481 951 q 405 990 433 983 q 347 996 376 996 q 290 990 318 996 q 238 967 261 983 q 196 928 214 951 q 167 878 178 904 q 153 822 157 851 q 150 765 150 793 l 150 179 q 153 122 150 151 q 167 67 157 93 q 196 17 178 40 q 238 -23 214 -7 q 290 -45 261 -39 q 347 -51 318 -51 l 574 -51 l 574 -103 l 347 -103 m 454 172 q 497 185 478 172 q 527 217 517 197 q 541 260 538 238 q 544 306 544 282 l 544 715 l 460 715 q 417 704 438 715 q 384 673 396 693 q 368 630 372 653 q 364 583 364 607 l 364 306 q 367 260 364 282 q 382 217 371 238 q 413 185 393 197 q 454 172 432 172 z "},"A":{"ha":694,"x_min":72,"x_max":622,"o":"m 72 0 l 315 1021 l 379 1021 l 460 681 l 622 0 l 564 0 l 490 310 l 204 310 l 131 0 l 72 0 m 215 361 l 479 361 l 404 681 q 375 802 389 742 q 347 924 361 863 q 319 802 333 863 q 290 681 306 742 l 215 361 z "},"B":{"ha":694,"x_min":96,"x_max":621,"o":"m 96 0 l 96 1021 l 321 1021 q 392 1015 357 1021 q 458 994 426 1010 q 515 954 489 979 q 556 899 540 929 q 579 833 572 868 q 586 764 586 799 q 578 690 586 726 q 552 623 571 654 q 504 568 533 592 q 442 532 475 544 q 517 495 482 519 q 577 437 553 471 q 611 361 601 403 q 621 276 621 319 q 613 199 621 238 q 586 128 606 161 q 537 69 567 94 q 472 28 507 43 q 399 6 438 13 q 321 0 360 0 l 96 0 m 151 556 l 321 556 q 377 560 350 556 q 429 578 404 565 q 474 610 454 590 q 508 654 494 629 q 526 707 521 679 q 531 763 531 735 q 526 818 531 790 q 508 871 521 846 q 474 916 494 896 q 429 948 454 936 q 376 965 404 960 q 321 969 349 969 l 151 969 l 151 556 m 151 51 l 321 51 q 384 56 353 51 q 444 74 415 61 q 498 107 474 86 q 538 156 522 128 q 559 215 553 183 q 565 278 565 246 q 559 341 565 310 q 538 399 553 372 q 498 448 522 426 q 444 482 474 469 q 384 499 415 494 q 321 504 353 504 l 151 504 l 151 51 z "},"C":{"ha":694,"x_min":85,"x_max":601,"o":"m 343 -11 q 271 -3 307 -11 q 203 22 235 4 q 149 68 172 40 q 110 129 125 96 q 90 199 96 163 q 85 271 85 235 l 85 750 q 90 822 85 786 q 110 892 96 858 q 149 953 125 925 q 203 999 172 981 q 271 1024 235 1017 q 343 1032 307 1032 q 410 1026 376 1032 q 473 1007 443 1021 q 528 970 503 993 q 569 918 553 947 q 594 856 586 889 q 601 789 601 822 l 601 785 l 546 785 l 546 789 q 532 866 546 828 q 489 931 518 904 q 422 969 460 958 q 343 981 383 981 q 285 974 314 981 q 232 953 257 968 q 189 915 207 938 q 160 865 171 892 q 144 808 149 838 q 140 750 140 779 l 140 271 q 144 213 140 242 q 160 156 149 183 q 189 106 171 129 q 232 68 207 83 q 285 47 257 53 q 343 40 314 40 q 422 51 383 40 q 489 90 460 63 q 532 155 518 117 q 546 232 546 193 l 546 236 l 601 236 l 601 232 q 594 165 601 199 q 569 103 586 132 q 528 51 553 74 q 473 14 503 28 q 410 -6 443 0 q 343 -11 376 -11 z "},"D":{"ha":694,"x_min":96,"x_max":610,"o":"m 301 0 l 96 0 l 96 1021 l 301 1021 q 382 1014 342 1021 q 459 990 422 1007 q 526 944 496 972 q 576 881 557 917 q 602 804 594 844 q 610 724 610 764 l 610 299 q 602 217 610 257 q 576 140 594 176 q 526 76 557 104 q 459 31 496 49 q 382 7 422 14 q 301 0 342 0 m 151 51 l 300 51 q 368 57 335 51 q 431 77 401 63 q 486 115 461 92 q 526 168 511 139 q 548 231 542 197 q 554 299 554 264 l 554 724 q 548 790 554 757 q 526 853 542 824 q 486 906 511 882 q 431 944 461 929 q 368 964 401 958 q 300 969 335 969 l 151 969 l 151 51 z "},"E":{"ha":694,"x_min":107,"x_max":599,"o":"m 107 0 l 107 1021 l 599 1021 l 599 969 l 163 969 l 163 557 l 524 557 l 524 506 l 163 506 l 163 51 l 599 51 l 599 0 l 107 0 z "},"F":{"ha":694,"x_min":144,"x_max":599,"o":"m 144 0 l 144 1021 l 599 1021 l 599 969 l 199 969 l 199 557 l 524 557 l 524 506 l 199 506 l 199 0 l 144 0 z "},"G":{"ha":694,"x_min":85,"x_max":601,"o":"m 325 -11 q 255 -3 289 -11 q 191 24 221 6 q 140 72 161 43 q 107 133 119 100 q 90 201 94 167 q 85 271 85 236 l 85 750 q 90 822 85 786 q 110 892 96 858 q 149 953 125 925 q 203 999 172 981 q 271 1024 235 1017 q 343 1032 307 1032 q 410 1026 376 1032 q 473 1007 443 1021 q 528 970 503 993 q 569 918 553 947 q 594 856 586 889 q 601 789 601 822 l 601 785 l 546 785 l 546 789 q 532 866 546 828 q 489 931 518 904 q 422 969 460 958 q 343 981 383 981 q 285 974 314 981 q 232 953 257 968 q 189 915 207 938 q 160 865 171 892 q 144 808 149 838 q 140 750 140 779 l 140 271 q 144 213 140 242 q 159 157 149 183 q 188 107 169 131 q 231 68 206 83 q 284 47 256 53 q 342 40 313 40 q 399 47 371 40 q 453 68 428 53 q 496 107 478 83 q 524 157 514 131 q 539 213 535 183 q 543 271 543 242 l 543 493 l 347 493 l 347 543 l 599 543 l 599 0 l 547 0 l 547 149 q 515 83 536 114 q 465 29 494 51 q 398 -2 435 7 q 325 -11 361 -11 z "},"H":{"ha":694,"x_min":96,"x_max":599,"o":"m 96 0 l 96 1021 l 151 1021 l 151 557 l 543 557 l 543 1021 l 599 1021 l 599 0 l 543 0 l 543 506 l 151 506 l 151 0 l 96 0 z "},"I":{"ha":694,"x_min":104,"x_max":590,"o":"m 590 0 l 104 0 l 104 51 l 319 51 l 319 969 l 104 969 l 104 1021 l 590 1021 l 590 969 l 375 969 l 375 51 l 590 51 l 590 0 z "},"J":{"ha":694,"x_min":69,"x_max":576,"o":"m 322 -11 q 256 -6 289 -11 q 194 15 224 0 q 140 52 164 29 q 100 104 115 75 q 77 166 85 133 q 69 232 69 199 l 69 236 l 125 236 l 125 232 q 138 156 125 193 q 179 91 151 118 q 245 52 207 64 q 322 40 283 40 q 380 47 351 40 q 433 69 408 53 q 474 108 457 85 q 502 158 492 131 q 517 213 513 185 q 521 271 521 242 l 521 969 l 306 969 l 306 1021 l 576 1021 l 576 271 q 571 199 576 235 q 551 131 565 164 q 515 69 538 97 q 460 22 492 40 q 394 -3 429 4 q 322 -11 358 -11 z "},"K":{"ha":694,"x_min":118,"x_max":601,"o":"m 539 0 l 258 513 l 174 385 l 174 0 l 118 0 l 118 1021 l 174 1021 l 174 479 l 536 1021 l 601 1021 l 292 561 l 601 0 l 539 0 z "},"L":{"ha":694,"x_min":144,"x_max":607,"o":"m 144 0 l 144 1021 l 199 1021 l 199 51 l 607 51 l 607 0 l 144 0 z "},"M":{"ha":694,"x_min":90,"x_max":604,"o":"m 90 0 l 90 1021 l 169 1021 l 347 397 l 525 1021 l 604 1021 l 604 0 l 549 0 l 549 204 q 549 566 549 385 q 551 928 550 747 l 374 307 l 321 307 l 143 928 q 145 566 144 747 q 146 204 146 385 l 146 0 l 90 0 z "},"N":{"ha":694,"x_min":96,"x_max":599,"o":"m 96 0 l 96 1021 l 172 1021 l 546 82 q 544 347 546 214 q 543 613 543 479 l 543 1021 l 599 1021 l 599 0 l 522 0 l 149 939 q 150 674 149 807 q 151 408 151 542 l 151 0 l 96 0 z "},"O":{"ha":694,"x_min":85,"x_max":610,"o":"m 347 -11 q 275 -4 311 -11 q 207 21 239 3 q 151 67 175 39 q 111 128 126 94 q 90 198 96 161 q 85 271 85 235 l 85 750 q 90 823 85 786 q 111 893 96 860 q 151 954 126 926 q 207 1000 175 982 q 275 1025 239 1018 q 347 1032 311 1032 q 419 1025 383 1032 q 488 1000 456 1018 q 544 954 519 982 q 583 893 568 926 q 604 823 599 860 q 610 750 610 786 l 610 271 q 604 198 610 235 q 583 128 599 161 q 544 67 568 94 q 488 21 519 39 q 419 -4 456 3 q 347 -11 383 -11 m 347 40 q 406 46 376 40 q 460 67 435 51 q 504 106 485 82 q 535 156 524 129 q 550 213 546 183 q 554 271 554 242 l 554 750 q 550 808 554 779 q 535 865 546 838 q 504 915 524 892 q 460 954 485 939 q 406 975 435 969 q 347 981 376 981 q 289 975 318 981 q 235 954 260 969 q 190 915 210 939 q 160 865 171 892 q 144 808 149 838 q 140 750 140 779 l 140 271 q 144 213 140 242 q 160 156 149 183 q 190 106 171 129 q 235 67 210 82 q 289 46 260 51 q 347 40 318 40 z "},"P":{"ha":694,"x_min":119,"x_max":621,"o":"m 119 0 l 119 1021 l 358 1021 q 431 1013 394 1021 q 499 988 467 1006 q 556 942 531 969 q 595 880 581 914 q 615 810 610 846 q 621 736 621 774 q 615 663 621 700 q 595 593 610 626 q 556 531 581 560 q 499 485 531 503 q 431 460 467 467 q 358 453 394 453 l 175 453 l 175 0 l 119 0 m 175 503 l 358 503 q 417 509 388 503 q 471 531 446 515 q 515 570 496 547 q 546 621 535 593 q 561 678 557 649 q 565 736 565 707 q 561 796 565 767 q 546 853 557 825 q 515 903 535 881 q 471 942 496 926 q 417 963 446 957 q 358 969 388 969 l 175 969 l 175 503 z "},"Q":{"ha":694,"x_min":85,"x_max":610,"o":"m 557 -236 q 496 -231 526 -236 q 438 -213 465 -226 q 387 -178 410 -200 q 349 -129 364 -157 q 328 -72 335 -101 q 321 -10 321 -42 q 253 1 286 -8 q 191 31 219 11 q 142 77 163 50 q 108 136 121 104 q 90 202 94 168 q 85 271 85 236 l 85 750 q 90 823 85 786 q 111 893 96 860 q 151 954 126 926 q 207 1000 175 982 q 275 1025 239 1018 q 347 1032 311 1032 q 419 1025 383 1032 q 488 1000 456 1018 q 544 954 519 982 q 583 893 568 926 q 604 823 599 860 q 610 750 610 786 l 610 271 q 605 203 610 236 q 588 138 600 169 q 553 78 575 106 q 504 32 532 51 q 443 2 476 13 q 376 -10 410 -8 q 382 -57 376 -33 q 399 -101 388 -81 q 426 -140 410 -122 q 465 -167 443 -157 q 510 -182 486 -178 q 557 -186 533 -186 l 583 -186 l 583 -236 l 557 -236 m 347 40 q 406 46 376 40 q 460 67 435 51 q 504 106 485 82 q 535 156 524 129 q 550 213 546 183 q 554 271 554 242 l 554 750 q 550 808 554 779 q 535 865 546 838 q 504 915 524 892 q 460 954 485 939 q 406 975 435 969 q 347 981 376 981 q 289 975 318 981 q 235 954 260 969 q 190 915 210 939 q 160 865 171 892 q 144 808 149 838 q 140 750 140 779 l 140 271 q 144 213 140 242 q 160 156 149 183 q 190 106 171 129 q 235 67 210 82 q 289 46 260 51 q 347 40 318 40 z "},"R":{"ha":694,"x_min":96,"x_max":632,"o":"m 96 0 l 96 1021 l 358 1021 q 430 1013 394 1021 q 496 987 465 1006 q 549 940 526 968 q 586 878 572 911 q 605 808 600 844 q 610 736 610 772 q 606 671 610 704 q 590 607 601 638 q 560 549 579 576 q 515 501 542 521 q 458 468 489 481 q 394 453 426 456 l 632 0 l 571 0 l 333 453 l 151 453 l 151 0 l 96 0 m 151 503 l 358 503 q 415 510 388 503 q 467 533 443 517 q 509 572 492 549 q 537 623 526 596 q 551 679 547 650 q 554 736 554 708 q 551 794 554 765 q 537 850 547 824 q 509 901 526 876 q 467 941 492 925 q 415 963 443 957 q 358 969 388 969 l 151 969 l 151 503 z "},"S":{"ha":694,"x_min":82,"x_max":610,"o":"m 346 -11 q 279 -6 313 -11 q 215 13 246 -1 q 159 49 185 26 q 116 100 133 71 q 90 162 99 129 q 82 228 82 194 l 82 236 l 138 236 l 138 231 q 153 152 138 190 q 198 88 168 114 q 267 51 228 61 q 346 40 306 40 q 426 52 386 40 q 496 92 467 64 q 540 160 525 121 q 554 240 554 199 q 540 314 554 278 q 502 378 526 350 q 446 428 478 407 q 380 465 414 449 q 312 499 346 482 q 246 535 278 515 q 186 581 214 556 q 138 639 158 607 q 106 707 117 671 q 96 782 96 743 q 103 848 96 815 q 126 910 111 881 q 165 965 142 940 q 219 1004 189 989 q 282 1026 249 1019 q 349 1032 315 1032 q 415 1026 382 1032 q 476 1007 447 1021 q 530 970 506 993 q 570 919 554 947 q 594 858 586 890 q 601 793 601 825 l 601 785 l 546 785 l 546 790 q 533 867 546 829 q 492 931 519 904 q 426 969 464 958 q 349 981 388 981 q 271 968 310 981 q 205 927 232 956 q 165 860 178 899 q 151 782 151 821 q 165 708 151 744 q 203 644 178 672 q 260 594 228 615 q 325 556 292 574 q 393 523 358 539 q 459 486 428 507 q 519 440 490 465 q 567 383 547 414 q 599 315 588 351 q 610 240 610 278 q 601 172 610 206 q 577 108 593 138 q 535 54 561 78 q 479 15 510 31 q 415 -6 449 0 q 346 -11 381 -11 z "},"T":{"ha":694,"x_min":88,"x_max":607,"o":"m 319 0 l 319 969 l 88 969 l 88 1021 l 607 1021 l 607 969 l 375 969 l 375 0 l 319 0 z "},"U":{"ha":694,"x_min":96,"x_max":599,"o":"m 347 -11 q 276 -3 311 -11 q 210 23 240 4 q 156 69 179 42 q 119 131 133 97 q 101 199 106 164 q 96 271 96 235 l 96 1021 l 151 1021 l 151 271 q 155 213 151 242 q 169 158 158 185 q 197 108 179 132 q 238 69 214 85 q 290 47 263 53 q 347 40 318 40 q 404 47 376 40 q 456 69 432 53 q 498 108 481 85 q 526 158 515 132 q 540 213 536 185 q 543 271 543 242 l 543 1021 l 599 1021 l 599 271 q 594 199 599 235 q 575 131 589 164 q 538 69 561 97 q 485 23 515 42 q 419 -3 454 4 q 347 -11 383 -11 z "},"V":{"ha":694,"x_min":72,"x_max":622,"o":"m 315 0 l 72 1021 l 131 1021 l 290 340 q 319 219 306 279 q 347 97 333 158 q 375 219 361 158 q 404 340 389 279 l 564 1021 l 622 1021 l 379 0 l 315 0 z "},"W":{"ha":694,"x_min":68,"x_max":626,"o":"m 188 0 l 68 1021 l 124 1021 l 218 133 l 321 735 l 374 735 l 476 133 l 571 1021 l 626 1021 l 507 0 l 453 0 l 347 626 l 242 0 l 188 0 z "},"X":{"ha":694,"x_min":85,"x_max":610,"o":"m 85 0 l 318 511 l 85 1021 l 146 1021 l 347 575 l 549 1021 l 610 1021 l 376 511 l 610 0 l 549 0 l 347 446 l 146 0 l 85 0 z "},"Y":{"ha":694,"x_min":82,"x_max":613,"o":"m 319 0 l 319 407 l 82 1021 l 142 1021 l 347 483 l 553 1021 l 613 1021 l 375 407 l 375 0 l 319 0 z "},"Z":{"ha":694,"x_min":96,"x_max":599,"o":"m 96 0 l 96 51 l 535 969 l 96 969 l 96 1021 l 599 1021 l 599 969 l 160 51 l 599 51 l 599 0 l 96 0 z "},"[":{"ha":694,"x_min":185,"x_max":549,"o":"m 185 -199 l 185 1143 l 549 1143 l 549 1092 l 240 1092 l 240 -147 l 549 -147 l 549 -199 l 185 -199 z "},"\\":{"ha":694,"x_min":92,"x_max":603,"o":"m 544 -199 l 92 1143 l 150 1143 l 603 -199 l 544 -199 z "},"]":{"ha":694,"x_min":146,"x_max":510,"o":"m 146 -199 l 146 -147 l 454 -147 l 454 1092 l 146 1092 l 146 1143 l 510 1143 l 510 -199 l 146 -199 z "},"^":{"ha":694,"x_min":79,"x_max":615,"o":"m 125 643 l 79 675 l 314 978 l 381 978 l 615 675 l 569 643 l 347 935 l 125 643 z "},"_":{"ha":694,"x_min":96,"x_max":599,"o":"m 599 -51 l 96 -51 l 96 0 l 599 0 l 599 -51 z "},"`":{"ha":694,"x_min":154,"x_max":401,"o":"m 361 771 l 154 1061 l 204 1093 l 401 797 l 361 771 z "},"a":{"ha":694,"x_min":85,"x_max":599,"o":"m 324 -11 q 235 -1 279 -11 q 155 38 190 10 q 102 108 119 65 q 85 194 85 150 q 94 260 85 228 q 126 319 104 293 q 178 361 149 344 q 240 388 207 378 q 306 401 272 397 q 372 404 339 404 l 543 404 l 543 483 q 539 536 543 510 q 522 587 535 563 q 491 630 510 611 q 449 661 472 649 q 399 678 425 674 q 346 682 372 682 q 276 676 311 682 q 213 651 242 669 q 166 601 183 632 q 149 535 149 569 l 93 535 q 103 594 93 565 q 130 647 113 624 q 173 688 147 671 q 227 716 199 706 q 285 730 256 726 q 346 733 315 733 q 413 728 379 733 q 476 707 446 722 q 531 668 507 692 q 571 615 556 644 q 592 551 586 585 q 599 483 599 517 l 599 0 l 543 0 l 543 125 q 508 66 531 93 q 456 21 486 39 q 392 -4 426 3 q 324 -11 358 -11 m 340 40 q 396 45 368 40 q 448 63 424 50 q 492 97 472 76 q 523 142 511 117 q 539 195 535 168 q 543 250 543 222 l 543 354 l 372 354 q 319 351 346 354 q 268 342 293 349 q 219 324 243 336 q 177 294 196 313 q 149 251 158 276 q 140 199 140 225 q 156 129 140 163 q 202 75 172 96 q 268 47 232 54 q 340 40 304 40 z "},"b":{"ha":694,"x_min":96,"x_max":610,"o":"m 369 -11 q 299 -3 335 -11 q 235 26 264 6 q 185 77 206 47 q 151 140 164 107 l 151 0 l 96 0 l 96 1021 l 151 1021 l 151 582 q 185 645 164 615 q 235 696 206 675 q 299 725 264 717 q 369 733 335 733 q 440 725 406 733 q 504 697 475 717 q 555 647 533 676 q 588 583 576 617 q 605 515 600 550 q 610 444 610 481 l 610 278 q 605 207 610 242 q 588 139 600 172 q 555 76 576 106 q 504 26 533 46 q 440 -3 475 6 q 369 -11 406 -11 m 353 40 q 411 47 382 40 q 465 69 440 53 q 508 110 490 86 q 536 162 525 135 q 551 219 547 189 q 554 278 554 249 l 554 444 q 551 503 554 474 q 536 560 547 533 q 508 612 525 588 q 465 653 490 636 q 411 676 440 669 q 353 682 382 682 q 294 676 324 682 q 240 653 265 669 q 198 612 215 636 q 169 560 181 588 q 155 503 158 533 q 151 444 151 474 l 151 278 q 155 219 151 249 q 169 162 158 189 q 198 110 181 135 q 240 69 215 86 q 294 47 265 53 q 353 40 324 40 z "},"c":{"ha":694,"x_min":85,"x_max":601,"o":"m 343 -11 q 270 -3 307 -11 q 202 24 233 4 q 147 72 171 43 q 110 134 124 100 q 90 205 96 168 q 85 278 85 242 l 85 444 q 90 517 85 481 q 110 588 96 554 q 147 651 124 622 q 202 699 171 679 q 270 726 233 718 q 343 733 307 733 q 410 728 376 733 q 474 708 443 722 q 528 670 504 693 q 569 618 553 647 q 594 556 586 589 q 601 489 601 524 l 601 486 l 546 486 l 546 489 q 532 566 546 528 q 490 632 518 604 q 422 671 461 660 q 343 682 383 682 q 285 676 314 682 q 231 653 256 669 q 188 613 206 636 q 159 561 169 589 q 144 503 149 533 q 140 444 140 474 l 140 278 q 144 219 140 249 q 159 161 149 189 q 188 110 169 133 q 231 69 206 86 q 285 47 256 53 q 343 40 314 40 q 422 51 383 40 q 490 90 461 63 q 532 156 518 118 q 546 233 546 194 l 546 236 l 601 236 l 601 233 q 594 166 601 199 q 569 104 586 133 q 528 52 553 75 q 474 15 504 29 q 410 -6 443 0 q 343 -11 376 -11 z "},"d":{"ha":694,"x_min":85,"x_max":599,"o":"m 325 -11 q 254 -3 289 -11 q 190 26 219 6 q 140 76 161 46 q 106 139 118 106 q 90 207 94 172 q 85 278 85 242 l 85 444 q 90 515 85 481 q 106 583 94 550 q 140 647 118 617 q 190 697 161 676 q 254 725 219 717 q 325 733 289 733 q 395 725 360 733 q 460 696 431 717 q 510 645 489 675 q 543 582 531 615 l 543 1021 l 599 1021 l 599 0 l 543 0 l 543 140 q 510 77 531 107 q 460 26 489 47 q 395 -3 431 6 q 325 -11 360 -11 m 342 40 q 400 47 371 40 q 454 69 429 53 q 497 110 479 86 q 525 162 514 135 q 540 219 536 189 q 543 278 543 249 l 543 444 q 540 503 543 474 q 525 560 536 533 q 497 612 514 588 q 454 653 479 636 q 400 676 429 669 q 342 682 371 682 q 283 676 313 682 q 229 653 254 669 q 187 612 204 636 q 158 560 169 588 q 144 503 147 533 q 140 444 140 474 l 140 278 q 144 219 140 249 q 158 162 147 189 q 187 110 169 135 q 229 69 204 86 q 283 47 254 53 q 342 40 313 40 z "},"e":{"ha":694,"x_min":85,"x_max":610,"o":"m 347 -11 q 274 -3 311 -11 q 206 23 238 4 q 149 70 174 42 q 110 133 125 99 q 90 203 96 167 q 85 278 85 240 l 85 444 q 90 519 85 482 q 110 590 96 556 q 149 652 125 624 q 206 699 174 681 q 274 726 238 718 q 347 733 310 733 q 421 726 385 733 q 489 699 457 718 q 545 652 521 681 q 584 590 569 624 q 604 519 599 556 q 610 444 610 482 l 610 336 l 140 336 l 140 278 q 144 218 140 247 q 160 161 149 189 q 190 109 171 133 q 233 69 208 85 q 288 47 258 53 q 347 40 318 40 q 418 47 383 40 q 483 72 453 53 q 531 122 513 90 q 551 188 550 153 l 607 188 q 596 128 606 157 q 567 75 586 99 q 523 34 549 51 q 468 6 497 17 q 408 -8 439 -4 q 347 -11 378 -11 m 140 386 l 554 386 l 554 444 q 550 504 554 475 q 535 561 546 533 q 505 613 524 589 q 461 653 486 638 q 407 676 436 669 q 347 682 378 682 q 288 676 317 682 q 233 653 258 669 q 190 613 208 638 q 160 561 171 589 q 144 504 149 533 q 140 444 140 475 l 140 386 z "},"f":{"ha":694,"x_min":96,"x_max":622,"o":"m 258 0 l 258 594 l 96 594 l 96 644 l 258 644 l 258 804 q 261 859 258 832 q 274 913 264 886 q 299 962 283 939 q 336 1001 314 985 q 385 1025 358 1018 q 440 1032 413 1032 q 513 1019 478 1032 q 574 980 549 1007 q 610 917 599 953 q 622 844 622 882 l 622 843 l 567 843 l 567 844 q 559 897 567 871 q 534 942 551 922 q 492 972 517 963 q 440 981 467 981 q 400 974 419 981 q 365 955 381 968 q 340 924 350 942 q 324 885 329 906 q 316 845 318 865 q 314 804 314 825 l 314 644 l 574 644 l 574 594 l 314 594 l 314 0 l 258 0 z "},"g":{"ha":694,"x_min":85,"x_max":599,"o":"m 343 -310 q 285 -306 314 -310 q 229 -294 257 -303 q 177 -269 201 -285 q 134 -231 153 -253 q 105 -181 115 -208 q 93 -125 94 -154 l 149 -125 q 169 -185 150 -157 q 216 -231 188 -214 q 277 -253 244 -247 q 343 -258 310 -258 q 401 -251 372 -258 q 455 -228 431 -244 q 497 -188 479 -212 q 526 -136 515 -164 q 540 -79 536 -108 q 543 -21 543 -50 l 543 140 q 510 77 531 107 q 460 26 489 47 q 395 -3 431 6 q 325 -11 360 -11 q 254 -3 289 -11 q 190 26 219 6 q 140 76 161 46 q 106 139 118 106 q 90 207 94 172 q 85 278 85 242 l 85 444 q 90 515 85 481 q 106 583 94 550 q 140 647 118 617 q 190 697 161 676 q 254 725 219 717 q 325 733 289 733 q 395 725 360 733 q 460 696 431 717 q 510 645 489 675 q 543 582 531 615 l 543 722 l 599 722 l 599 -21 q 594 -94 599 -57 q 575 -164 589 -131 q 538 -226 561 -197 q 483 -275 514 -256 q 415 -302 451 -294 q 343 -310 379 -310 m 342 40 q 400 47 371 40 q 454 69 429 53 q 497 110 479 86 q 525 162 514 135 q 540 219 536 189 q 543 278 543 249 l 543 444 q 540 503 543 474 q 525 560 536 533 q 497 612 514 588 q 454 653 479 636 q 400 676 429 669 q 342 682 371 682 q 283 676 313 682 q 229 653 254 669 q 187 612 204 636 q 158 560 169 588 q 144 503 147 533 q 140 444 140 474 l 140 278 q 144 219 140 249 q 158 162 147 189 q 187 110 169 135 q 229 69 204 86 q 283 47 254 53 q 342 40 313 40 z "},"h":{"ha":694,"x_min":96,"x_max":599,"o":"m 96 0 l 96 1021 l 151 1021 l 151 583 q 183 646 163 617 q 233 695 204 675 q 295 724 261 715 q 364 733 329 733 q 435 724 400 733 q 498 695 469 715 q 547 645 526 675 q 578 583 567 615 q 594 515 590 550 q 599 444 599 479 l 599 0 l 543 0 l 543 444 q 540 503 543 474 q 526 559 536 532 q 499 610 515 586 q 458 651 482 635 q 405 675 433 668 q 347 682 376 682 q 290 675 318 682 q 237 651 261 668 q 196 610 213 635 q 169 559 179 586 q 155 503 158 532 q 151 444 151 474 l 151 0 l 96 0 z "},"i":{"ha":694,"x_min":104,"x_max":590,"o":"m 590 0 l 104 0 l 104 51 l 329 51 l 329 671 l 124 671 l 124 722 l 385 722 l 385 51 l 590 51 l 590 0 m 354 876 q 333 879 343 876 q 314 890 322 882 q 303 909 306 899 q 300 931 300 919 q 303 952 300 942 q 314 971 306 963 q 333 982 322 979 q 354 985 343 985 q 376 982 365 985 q 394 971 386 979 q 406 952 403 963 q 408 931 408 942 q 406 909 408 919 q 394 890 403 899 q 376 879 386 882 q 354 876 365 876 z "},"j":{"ha":694,"x_min":54,"x_max":479,"o":"m 257 -310 q 177 -297 217 -310 q 110 -253 138 -283 q 69 -184 82 -224 q 54 -104 56 -144 l 110 -104 q 119 -163 110 -133 q 149 -215 129 -193 q 198 -248 169 -237 q 257 -258 226 -258 q 308 -249 283 -258 q 350 -222 332 -240 q 379 -179 368 -203 q 397 -131 390 -156 q 405 -80 403 -106 q 407 -28 407 -54 l 407 671 l 192 671 l 192 722 l 463 722 l 463 -28 q 459 -94 463 -61 q 446 -158 456 -126 q 419 -218 436 -189 q 378 -269 403 -247 q 322 -300 354 -290 q 257 -310 290 -310 m 424 876 q 402 879 413 876 q 383 890 392 882 q 372 909 375 899 q 369 931 369 919 q 372 952 369 942 q 383 971 375 963 q 402 982 392 979 q 424 985 413 985 q 445 982 435 985 q 464 971 456 979 q 475 952 472 963 q 478 931 478 942 q 475 909 478 919 q 464 890 472 899 q 445 879 456 882 q 424 876 435 876 z "},"k":{"ha":694,"x_min":118,"x_max":593,"o":"m 118 0 l 118 1021 l 174 1021 l 174 335 l 521 722 l 593 722 l 299 396 l 593 0 l 526 0 l 263 357 l 174 257 l 174 0 l 118 0 z "},"l":{"ha":694,"x_min":104,"x_max":590,"o":"m 590 0 l 104 0 l 104 51 l 329 51 l 329 969 l 124 969 l 124 1021 l 385 1021 l 385 51 l 590 51 l 590 0 z "},"m":{"ha":694,"x_min":90,"x_max":604,"o":"m 90 0 l 90 722 l 144 722 l 144 665 q 163 694 153 681 q 187 716 174 707 q 217 729 200 725 q 250 733 233 733 q 289 727 269 733 q 324 708 308 721 q 349 677 339 694 q 365 640 360 660 q 381 677 371 660 q 406 708 390 694 q 440 727 421 721 q 479 733 458 733 q 518 727 499 733 q 553 708 538 721 q 578 678 568 696 q 594 642 588 661 q 602 604 600 624 q 604 564 604 585 l 604 0 l 550 0 l 550 564 q 546 606 550 585 q 531 644 542 626 q 502 673 521 663 q 463 683 483 683 q 422 673 440 683 q 392 644 403 663 q 378 606 382 626 q 375 564 375 585 l 375 0 l 319 0 l 319 564 q 316 606 319 585 q 302 644 313 626 q 273 673 292 663 q 232 683 254 683 q 192 673 211 683 q 163 644 174 663 q 149 606 153 626 q 144 564 144 585 l 144 0 l 90 0 z "},"n":{"ha":694,"x_min":96,"x_max":599,"o":"m 96 0 l 96 722 l 151 722 l 151 583 q 183 646 163 617 q 233 695 204 675 q 295 724 261 715 q 364 733 329 733 q 435 724 400 733 q 498 695 469 715 q 547 645 526 675 q 578 583 567 615 q 594 515 590 550 q 599 444 599 479 l 599 0 l 543 0 l 543 444 q 540 503 543 474 q 526 559 536 532 q 499 610 515 586 q 458 651 482 635 q 405 675 433 668 q 347 682 376 682 q 290 675 318 682 q 237 651 261 668 q 196 610 213 635 q 169 559 179 586 q 155 503 158 532 q 151 444 151 474 l 151 0 l 96 0 z "},"o":{"ha":694,"x_min":85,"x_max":610,"o":"m 347 -11 q 274 -3 310 -11 q 206 23 238 4 q 149 70 174 42 q 110 133 125 99 q 90 203 96 167 q 85 278 85 240 l 85 444 q 90 519 85 482 q 110 590 96 556 q 149 652 125 624 q 206 699 174 681 q 274 726 238 718 q 347 733 310 733 q 421 726 385 733 q 489 699 457 718 q 545 652 521 681 q 584 590 569 624 q 604 519 599 556 q 610 444 610 482 l 610 278 q 604 203 610 240 q 584 133 599 167 q 545 70 569 99 q 489 23 521 42 q 421 -3 457 4 q 347 -11 385 -11 m 347 40 q 407 47 378 40 q 461 69 436 53 q 505 109 486 85 q 535 161 524 133 q 550 218 546 189 q 554 278 554 247 l 554 444 q 550 504 554 475 q 535 561 546 533 q 505 613 524 589 q 461 653 486 638 q 407 676 436 669 q 347 682 378 682 q 288 676 317 682 q 233 653 258 669 q 190 613 208 638 q 160 561 171 589 q 144 504 149 533 q 140 444 140 475 l 140 278 q 144 218 140 247 q 160 161 149 189 q 190 109 171 133 q 233 69 208 85 q 288 47 258 53 q 347 40 317 40 z "},"p":{"ha":694,"x_min":96,"x_max":610,"o":"m 96 -299 l 96 722 l 151 722 l 151 582 q 185 645 164 615 q 235 696 206 675 q 299 725 264 717 q 369 733 335 733 q 440 725 406 733 q 504 697 475 717 q 555 647 533 676 q 588 583 576 617 q 605 515 600 550 q 610 444 610 481 l 610 278 q 605 207 610 242 q 588 139 600 172 q 555 76 576 106 q 504 26 533 46 q 440 -3 475 6 q 369 -11 406 -11 q 299 -3 335 -11 q 235 26 264 6 q 185 77 206 47 q 151 140 164 107 l 151 -299 l 96 -299 m 353 40 q 411 47 382 40 q 465 69 440 53 q 508 110 490 86 q 536 162 525 135 q 551 219 547 189 q 554 278 554 249 l 554 444 q 551 503 554 474 q 536 560 547 533 q 508 612 525 588 q 465 653 490 636 q 411 676 440 669 q 353 682 382 682 q 294 676 324 682 q 240 653 265 669 q 198 612 215 636 q 169 560 181 588 q 155 503 158 533 q 151 444 151 474 l 151 278 q 155 219 151 249 q 169 162 158 189 q 198 110 181 135 q 240 69 215 86 q 294 47 265 53 q 353 40 324 40 z "},"q":{"ha":694,"x_min":85,"x_max":599,"o":"m 543 -299 l 543 140 q 510 77 531 107 q 460 26 489 47 q 395 -3 431 6 q 325 -11 360 -11 q 254 -3 289 -11 q 190 26 219 6 q 140 76 161 46 q 106 139 118 106 q 90 207 94 172 q 85 278 85 242 l 85 444 q 90 515 85 481 q 106 583 94 550 q 140 647 118 617 q 190 697 161 676 q 254 725 219 717 q 325 733 289 733 q 395 725 360 733 q 460 696 431 717 q 510 645 489 675 q 543 582 531 615 l 543 722 l 599 722 l 599 -299 l 543 -299 m 342 40 q 400 47 371 40 q 454 69 429 53 q 497 110 479 86 q 525 162 514 135 q 540 219 536 189 q 543 278 543 249 l 543 444 q 540 503 543 474 q 525 560 536 533 q 497 612 514 588 q 454 653 479 636 q 400 676 429 669 q 342 682 371 682 q 283 676 313 682 q 229 653 254 669 q 187 612 204 636 q 158 560 169 588 q 144 503 147 533 q 140 444 140 474 l 140 278 q 144 219 140 249 q 158 162 147 189 q 187 110 169 135 q 229 69 204 86 q 283 47 254 53 q 342 40 313 40 z "},"r":{"ha":694,"x_min":179,"x_max":619,"o":"m 179 0 l 179 722 l 235 722 l 235 557 q 261 624 244 592 q 303 681 278 656 q 363 720 329 707 q 433 733 397 733 q 484 729 458 733 q 532 714 510 725 q 572 684 554 703 q 601 642 590 665 q 616 594 613 619 q 619 544 619 569 l 564 544 q 557 598 564 571 q 532 645 550 625 q 488 674 514 665 q 433 682 461 682 q 368 670 400 682 q 312 635 336 658 q 273 580 288 611 q 249 516 258 549 q 238 450 240 483 q 235 383 235 417 l 235 0 l 179 0 z "},"s":{"ha":694,"x_min":93,"x_max":599,"o":"m 346 -11 q 288 -8 317 -11 q 231 3 258 -6 q 178 26 203 11 q 133 63 153 40 q 103 112 114 85 q 93 168 93 139 l 93 174 l 149 174 l 149 171 q 158 128 149 149 q 182 91 167 107 q 217 65 197 75 q 258 50 238 56 q 301 42 279 44 q 346 40 324 40 q 390 42 368 40 q 435 51 413 44 q 476 68 457 57 q 511 96 496 79 q 535 134 526 113 q 543 178 543 156 q 526 235 543 208 q 483 279 508 263 q 428 306 457 296 q 369 326 399 317 q 311 344 340 335 q 253 366 282 354 q 199 394 225 378 q 151 433 172 411 q 119 485 131 456 q 107 544 107 514 q 116 601 107 574 q 142 652 125 629 q 184 691 160 675 q 235 717 208 707 q 291 730 263 726 q 349 733 319 733 q 405 730 376 733 q 460 718 433 726 q 510 694 486 710 q 553 658 535 679 q 581 609 571 636 q 590 554 590 582 l 590 549 l 535 549 l 535 553 q 517 612 535 583 q 472 656 500 640 q 413 677 444 672 q 349 682 381 682 q 305 680 326 682 q 263 671 283 678 q 224 653 243 664 q 192 625 206 642 q 170 588 178 608 q 163 544 163 567 q 179 488 163 514 q 222 444 196 461 q 276 416 247 426 q 335 397 306 406 q 394 378 364 388 q 451 356 424 368 q 506 328 479 344 q 553 289 532 311 q 587 238 575 267 q 599 178 599 208 q 588 120 599 149 q 560 69 578 92 q 516 30 542 46 q 463 5 490 14 q 405 -8 435 -4 q 346 -11 375 -11 z "},"t":{"ha":694,"x_min":97,"x_max":651,"o":"m 454 -11 q 394 -3 424 -11 q 342 22 365 4 q 301 64 318 39 q 274 117 283 89 q 260 175 264 146 q 257 235 257 204 l 257 671 l 97 671 l 97 722 l 257 722 l 257 1021 l 313 1021 l 313 722 l 583 722 l 583 671 l 313 671 l 313 235 q 315 190 313 213 q 324 145 317 167 q 342 103 331 124 q 370 69 353 83 q 409 47 388 54 q 454 40 431 40 q 497 47 476 40 q 535 67 518 53 q 564 100 553 81 q 582 140 575 119 q 592 183 589 161 q 596 226 596 204 l 596 236 l 651 236 l 651 224 q 647 167 651 196 q 631 111 642 138 q 603 60 621 85 q 563 19 586 36 q 511 -4 539 3 q 454 -11 483 -11 z "},"u":{"ha":694,"x_min":96,"x_max":599,"o":"m 331 -11 q 260 -2 294 -11 q 197 27 225 7 q 148 77 168 47 q 116 140 128 107 q 100 208 104 172 q 96 278 96 243 l 96 722 l 151 722 l 151 278 q 155 219 151 249 q 169 163 158 190 q 196 112 179 136 q 237 71 213 88 q 290 47 261 54 q 347 40 318 40 q 405 47 376 40 q 458 71 433 54 q 499 112 482 88 q 526 163 515 136 q 540 219 536 190 q 543 278 543 249 l 543 722 l 599 722 l 599 0 l 543 0 l 543 139 q 511 76 532 106 q 462 27 490 47 q 399 -2 433 7 q 331 -11 365 -11 z "},"v":{"ha":694,"x_min":72,"x_max":622,"o":"m 315 0 l 72 722 l 132 722 l 293 240 q 321 157 307 199 q 347 72 335 115 q 374 157 360 115 q 401 240 388 199 l 563 722 l 622 722 l 379 0 l 315 0 z "},"w":{"ha":694,"x_min":68,"x_max":626,"o":"m 188 0 l 68 722 l 124 722 l 218 94 l 319 519 l 375 519 l 476 94 l 571 722 l 626 722 l 507 0 l 453 0 l 347 443 l 242 0 l 188 0 z "},"x":{"ha":694,"x_min":88,"x_max":607,"o":"m 88 0 l 317 361 l 88 722 l 154 722 l 347 411 l 540 722 l 607 722 l 378 361 l 607 0 l 540 0 l 347 311 l 154 0 l 88 0 z "},"y":{"ha":694,"x_min":76,"x_max":618,"o":"m 238 -299 q 257 -237 247 -268 q 276 -175 267 -206 l 318 -47 l 76 722 l 135 722 l 346 36 l 560 722 l 618 722 l 296 -299 l 238 -299 z "},"z":{"ha":694,"x_min":96,"x_max":599,"o":"m 96 0 l 96 51 l 538 671 l 96 671 l 96 722 l 599 722 l 599 671 l 157 51 l 599 51 l 599 0 l 96 0 z "},"{":{"ha":694,"x_min":121,"x_max":549,"o":"m 549 -212 q 479 -207 514 -212 q 413 -189 444 -201 q 352 -156 381 -176 q 303 -108 324 -136 q 274 -45 283 -79 q 264 24 264 -11 q 272 85 264 54 q 293 144 281 115 q 317 201 306 172 q 328 263 328 231 q 322 315 328 289 q 303 363 317 340 q 269 403 290 386 q 224 429 249 419 q 174 443 200 439 q 121 447 147 447 l 121 497 q 174 501 147 497 q 224 515 200 506 q 269 542 249 525 q 303 581 290 558 q 322 630 317 604 q 328 682 328 656 q 317 743 328 714 q 293 801 306 772 q 272 860 281 829 q 264 921 264 890 q 274 990 264 956 q 303 1052 283 1024 q 352 1101 324 1081 q 413 1133 381 1121 q 479 1151 444 1146 q 549 1157 514 1157 l 549 1106 q 493 1102 521 1106 q 440 1089 465 1099 q 391 1063 414 1079 q 351 1025 368 1047 q 327 976 335 1003 q 319 921 319 949 q 331 860 319 890 q 354 802 342 831 q 375 744 367 774 q 383 682 383 714 q 376 614 383 647 q 349 552 368 581 q 301 503 329 524 q 240 472 272 483 q 301 441 272 461 q 349 392 329 421 q 376 331 368 364 q 383 263 383 297 q 375 201 383 231 q 354 142 367 171 q 331 84 342 114 q 319 24 319 54 q 327 -31 319 -4 q 351 -81 335 -58 q 391 -119 368 -103 q 440 -144 414 -135 q 493 -158 465 -154 q 549 -161 521 -161 l 549 -212 z "},"|":{"ha":694,"x_min":319,"x_max":375,"o":"m 319 -199 l 319 1143 l 375 1143 l 375 -199 l 319 -199 z "},"}":{"ha":694,"x_min":146,"x_max":574,"o":"m 146 -212 l 146 -161 q 201 -158 174 -161 q 255 -144 229 -154 q 303 -119 281 -135 q 343 -81 326 -103 q 367 -31 360 -58 q 375 24 375 -4 q 364 84 375 54 q 340 142 353 114 q 319 201 328 171 q 311 263 311 231 q 319 331 311 297 q 346 392 326 364 q 394 441 365 421 q 454 472 422 461 q 394 503 422 483 q 346 552 365 524 q 319 614 326 581 q 311 682 311 647 q 319 744 311 714 q 340 802 328 774 q 364 860 353 831 q 375 921 375 890 q 367 976 375 949 q 343 1025 360 1003 q 303 1063 326 1047 q 255 1089 281 1079 q 201 1102 229 1099 q 146 1106 174 1106 l 146 1157 q 215 1151 181 1157 q 282 1133 250 1146 q 342 1101 314 1121 q 391 1052 371 1081 q 421 990 411 1024 q 431 921 431 956 q 422 860 431 890 q 401 801 414 829 q 378 743 389 772 q 367 682 367 714 q 372 630 367 656 q 391 581 378 604 q 425 542 404 558 q 470 515 446 525 q 521 501 494 506 q 574 497 547 497 l 574 447 q 521 443 547 447 q 470 429 494 439 q 425 403 446 419 q 391 363 404 386 q 372 315 378 340 q 367 263 367 289 q 378 201 367 231 q 401 144 389 172 q 422 85 414 115 q 431 24 431 54 q 421 -45 431 -11 q 391 -108 411 -79 q 342 -156 371 -136 q 282 -189 314 -176 q 215 -207 250 -201 q 146 -212 181 -212 z "},"~":{"ha":694,"x_min":69,"x_max":625,"o":"m 446 256 q 426 259 436 256 q 407 268 415 263 q 392 281 399 274 q 378 296 385 288 q 367 313 372 304 q 356 329 361 321 q 347 347 351 338 q 337 366 342 357 q 327 385 332 375 q 317 405 322 394 q 307 425 313 415 q 297 444 301 435 q 287 460 292 453 q 278 475 282 468 q 264 492 274 482 q 249 503 254 503 q 234 497 239 503 q 224 484 229 490 q 213 468 219 478 q 203 453 206 458 q 197 443 200 449 q 191 432 194 438 q 185 420 188 426 q 178 407 182 414 q 172 392 175 400 q 165 376 168 385 q 159 360 163 368 q 152 342 156 351 q 144 323 149 333 q 137 302 140 313 q 129 281 133 292 q 122 258 125 269 l 69 274 q 85 317 78 296 q 99 356 92 338 q 113 390 106 374 q 126 420 119 406 q 138 447 132 435 q 151 471 144 460 q 167 497 157 482 q 189 524 178 513 q 215 544 200 535 q 249 553 231 553 q 269 549 258 553 q 288 540 279 546 q 303 528 296 535 q 316 513 310 521 q 328 496 322 504 q 338 479 333 488 q 348 461 343 471 q 358 442 353 451 q 367 424 363 433 q 377 404 372 414 q 388 384 382 394 q 398 365 393 374 q 408 348 403 356 q 417 333 413 340 q 431 316 421 326 q 446 306 440 306 q 460 312 456 306 q 470 324 465 318 q 482 340 475 331 q 492 355 489 350 q 497 365 494 360 q 503 376 500 371 q 510 388 507 382 q 516 401 513 394 q 523 416 519 408 q 529 432 526 424 q 535 449 532 440 q 542 466 539 457 q 550 485 546 475 q 558 506 554 496 q 565 528 561 517 q 572 550 569 539 l 625 535 q 610 492 617 513 q 596 453 603 471 q 582 419 589 435 q 569 388 575 403 q 556 361 563 374 q 544 338 550 349 q 527 311 538 326 q 506 285 517 296 q 479 265 494 274 q 446 256 464 256 z "},"":{"ha":694,"x_min":0,"x_max":0,"o":""},"":{"ha":694,"x_min":282,"x_max":413,"o":"m 347 601 q 321 606 333 601 q 299 619 308 610 q 285 641 289 628 q 282 668 282 654 q 285 694 282 681 q 299 716 289 707 q 321 729 308 725 q 347 733 333 733 q 374 729 361 733 q 396 716 386 725 q 409 694 406 707 q 413 668 413 681 q 409 641 413 654 q 396 619 406 628 q 374 606 386 610 q 347 601 361 601 m 319 -299 l 319 361 l 375 361 l 375 -299 l 319 -299 z "},"":{"ha":694,"x_min":85,"x_max":601,"o":"m 319 -149 l 319 -11 q 251 1 285 -8 q 190 31 218 11 q 140 80 161 51 q 107 141 119 108 q 90 208 94 174 q 85 278 85 243 l 85 444 q 90 514 85 479 q 107 581 94 549 q 140 642 119 614 q 190 691 161 671 q 251 721 218 711 q 319 733 285 731 l 319 872 l 375 872 l 375 732 q 465 711 421 729 q 540 659 508 693 q 586 581 571 625 q 601 489 601 536 l 601 486 l 546 486 l 546 489 q 535 560 546 525 q 500 622 524 594 q 443 663 476 649 q 374 681 410 678 l 374 42 q 443 59 410 44 q 500 101 476 74 q 535 163 524 128 q 546 233 546 197 l 546 236 l 601 236 l 601 233 q 586 142 601 186 q 540 63 571 97 q 465 11 508 29 q 375 -10 421 -7 l 375 -149 l 319 -149 m 321 40 l 321 682 q 267 670 293 679 q 218 644 240 661 q 181 603 196 626 q 156 553 165 579 q 144 500 147 528 q 140 444 140 472 l 140 278 q 144 222 140 250 q 156 169 147 194 q 181 119 165 143 q 218 78 196 96 q 267 52 240 61 q 321 40 293 43 z "},"":{"ha":694,"x_min":57,"x_max":599,"o":"m 96 0 l 96 51 q 144 113 124 79 q 175 185 164 147 q 189 263 186 224 q 192 342 192 303 l 192 486 l 57 486 l 57 535 l 192 535 l 192 818 q 195 872 192 844 q 210 925 199 900 q 238 972 221 950 q 279 1007 256 993 q 330 1026 303 1021 q 383 1032 357 1032 q 462 1019 424 1032 q 526 976 500 1006 q 565 908 553 946 q 576 831 576 869 l 576 819 l 521 819 l 521 828 q 513 885 521 857 q 487 937 506 914 q 440 970 468 960 q 383 981 413 981 q 324 969 353 981 q 278 933 296 957 q 253 878 260 908 q 247 818 247 849 l 247 535 l 407 535 l 407 486 l 247 486 l 247 342 q 245 265 247 303 q 234 189 243 226 q 209 116 225 151 q 168 51 193 81 l 599 51 l 599 0 l 96 0 z "},"":{"ha":694,"x_min":76,"x_max":618,"o":"m 579 203 l 503 281 q 429 245 469 256 q 347 235 389 235 q 265 245 306 235 q 192 281 225 256 l 115 203 l 76 239 l 156 317 q 120 390 131 350 q 110 472 110 431 q 120 554 110 514 q 156 628 131 594 l 76 706 l 115 742 l 192 664 q 265 699 225 689 q 347 710 306 710 q 429 699 389 710 q 503 664 469 689 l 579 742 l 618 706 l 539 628 q 574 554 564 594 q 585 472 585 514 q 574 390 585 431 q 539 317 564 350 l 618 239 l 579 203 m 347 285 q 422 296 385 285 q 484 334 458 307 q 520 398 510 361 q 531 472 531 435 q 520 547 531 510 q 484 610 510 583 q 422 649 458 638 q 347 660 385 660 q 273 649 310 660 q 210 610 236 638 q 174 547 185 583 q 164 472 164 510 q 174 398 164 435 q 210 334 185 361 q 273 296 236 307 q 347 285 310 285 z "},"":{"ha":694,"x_min":82,"x_max":613,"o":"m 319 0 l 319 179 l 96 179 l 96 229 l 319 229 l 319 383 l 96 383 l 96 433 l 310 433 l 82 1021 l 142 1021 l 347 483 l 553 1021 l 613 1021 l 385 433 l 599 433 l 599 383 l 375 383 l 375 229 l 599 229 l 599 179 l 375 179 l 375 0 l 319 0 z "},"":{"ha":694,"x_min":319,"x_max":375,"o":"m 319 536 l 319 1143 l 375 1143 l 375 536 l 319 536 m 319 -199 l 319 408 l 375 408 l 375 -199 l 319 -199 z "},"":{"ha":694,"x_min":93,"x_max":601,"o":"m 346 -210 q 280 -204 313 -210 q 217 -184 247 -199 q 164 -147 188 -169 q 124 -94 140 -124 q 101 -33 108 -65 q 93 33 93 0 l 93 38 l 149 38 l 149 33 q 162 -43 149 -6 q 203 -108 175 -81 q 269 -147 231 -135 q 346 -158 307 -158 q 425 -144 386 -158 q 491 -100 464 -131 q 531 -30 518 -69 q 544 50 544 10 q 531 115 544 83 q 492 171 517 147 q 436 208 468 194 q 372 231 404 222 q 306 249 339 240 q 242 270 274 257 q 183 303 211 283 q 135 351 156 324 q 105 412 115 379 q 94 479 94 444 q 103 543 94 511 q 124 605 111 575 q 159 660 138 635 q 208 703 181 686 q 162 737 183 717 q 125 782 140 757 q 102 835 110 807 q 94 893 94 864 q 103 961 94 928 q 126 1025 111 994 q 164 1081 140 1056 q 217 1124 188 1107 q 281 1147 247 1140 q 349 1154 315 1154 q 415 1149 382 1154 q 477 1128 447 1143 q 531 1091 507 1114 q 570 1039 554 1068 q 594 977 586 1010 q 601 911 601 944 l 601 907 l 546 907 l 546 911 q 533 988 546 950 q 492 1052 519 1025 q 426 1091 464 1079 q 349 1103 388 1103 q 269 1089 308 1103 q 203 1044 231 1075 q 163 974 176 1014 q 150 894 150 935 q 164 829 150 861 q 202 774 178 797 q 258 736 226 750 q 323 713 290 722 q 388 696 356 704 q 452 674 421 688 q 511 641 483 661 q 559 593 539 621 q 590 533 579 565 q 600 465 600 500 q 592 401 600 433 q 570 340 583 369 q 535 284 557 310 q 486 242 514 258 q 533 208 511 228 q 569 163 554 188 q 592 109 585 138 q 600 51 600 81 q 592 -17 600 17 q 569 -81 583 -50 q 531 -137 554 -111 q 477 -179 507 -162 q 413 -203 447 -196 q 346 -210 379 -210 m 422 269 q 475 301 451 281 q 513 347 499 321 q 536 403 528 374 q 544 464 544 433 q 533 524 544 494 q 500 578 521 554 q 451 616 479 601 q 392 640 422 631 q 332 658 363 650 q 272 675 301 665 q 219 644 243 664 q 181 597 196 624 q 158 541 167 571 q 150 481 150 511 q 162 420 150 450 q 194 367 174 390 q 244 328 215 343 q 302 304 272 314 q 363 287 332 294 q 422 269 393 279 z "},"":{"ha":694,"x_min":154,"x_max":540,"o":"m 486 876 q 465 879 475 876 q 446 890 454 882 q 435 909 438 899 q 432 931 432 919 q 435 952 432 942 q 446 971 438 963 q 465 982 454 979 q 486 985 475 985 q 508 982 497 985 q 526 971 518 979 q 538 952 535 963 q 540 931 540 942 q 538 909 540 919 q 526 890 535 899 q 508 879 518 882 q 486 876 497 876 m 208 876 q 187 879 197 876 q 168 890 176 882 q 157 909 160 899 q 154 931 154 919 q 157 952 154 942 q 168 971 160 963 q 187 982 176 979 q 208 985 197 985 q 230 982 219 985 q 249 971 240 979 q 260 952 257 963 q 263 931 263 942 q 260 909 263 919 q 249 890 257 899 q 230 879 240 882 q 208 876 219 876 z "},"":{"ha":694,"x_min":147,"x_max":540,"o":"m 324 440 q 260 447 292 440 q 201 474 228 454 q 161 523 175 493 q 147 586 147 553 q 155 635 147 611 q 180 678 163 660 q 220 708 197 696 q 267 726 243 719 q 317 735 292 733 q 367 738 342 738 l 486 738 l 486 790 q 476 842 486 817 q 446 883 467 867 q 399 906 425 900 q 346 913 372 913 q 299 909 322 913 q 256 895 276 906 q 220 865 235 885 q 206 822 206 846 l 153 822 l 153 824 q 171 886 153 857 q 217 933 189 915 q 279 956 246 950 q 346 963 313 963 q 395 959 371 963 q 442 946 419 956 q 485 920 465 936 q 517 883 504 904 q 535 838 529 863 q 540 790 540 814 l 540 449 l 486 449 l 486 535 q 460 494 476 513 q 421 463 443 475 q 374 445 399 450 q 324 440 349 440 m 343 490 q 399 497 371 490 q 447 523 426 504 q 477 569 468 542 q 486 624 486 596 l 486 689 l 367 689 q 331 688 349 689 q 295 682 313 686 q 260 672 278 678 q 229 653 243 665 q 208 625 215 642 q 200 590 200 608 q 213 544 200 567 q 248 510 226 522 q 294 494 269 499 q 343 490 318 490 m 154 279 l 154 326 l 540 326 l 540 279 l 154 279 z "},"":{"ha":694,"x_min":57,"x_max":611,"o":"m 563 128 q 516 223 542 176 q 460 313 490 269 q 392 393 429 356 q 310 460 354 431 l 310 485 q 392 551 354 514 q 460 632 429 589 q 516 722 490 675 q 563 817 542 768 l 611 799 q 567 707 592 751 q 515 621 543 663 q 453 542 486 579 q 379 472 419 504 q 453 403 419 440 q 515 324 486 365 q 567 238 543 282 q 611 146 592 193 l 563 128 m 311 128 q 265 223 290 176 q 208 313 239 269 q 140 393 178 356 q 58 460 103 431 l 58 485 q 140 551 103 514 q 208 632 178 589 q 265 722 239 675 q 311 817 290 768 l 360 799 q 316 707 340 751 q 263 621 292 663 q 201 542 235 579 q 128 472 168 504 q 201 403 168 440 q 263 324 235 365 q 316 238 292 282 q 360 146 340 193 l 311 128 z "},"":{"ha":694,"x_min":96,"x_max":599,"o":"m 599 196 l 544 196 l 544 447 l 96 447 l 96 497 l 599 497 l 599 196 z "},"":{"ha":694,"x_min":96,"x_max":599,"o":"m 599 447 l 96 447 l 96 497 l 599 497 l 599 447 z "},"":{"ha":694,"x_min":47,"x_max":647,"o":"m 228 714 l 228 1122 l 358 1122 q 405 1114 382 1122 q 443 1088 428 1106 q 465 1047 458 1071 q 471 1000 471 1024 q 467 961 471 981 q 452 925 463 942 q 425 897 442 908 q 389 881 408 886 l 481 714 l 425 714 l 335 879 l 276 879 l 276 714 l 228 714 m 276 924 l 358 924 q 385 929 372 924 q 407 947 399 935 q 419 972 415 958 q 422 1000 422 986 q 419 1029 422 1015 q 407 1054 415 1043 q 385 1072 399 1065 q 358 1078 372 1078 l 276 1078 l 276 924 m 347 618 q 267 625 307 618 q 191 650 226 632 q 126 697 156 668 q 79 762 97 726 q 54 838 61 797 q 47 918 47 878 q 54 999 47 958 q 79 1074 61 1039 q 126 1139 97 1110 q 191 1186 156 1168 q 267 1211 226 1204 q 347 1218 307 1218 q 428 1211 388 1218 q 503 1186 468 1204 q 568 1139 539 1168 q 615 1074 597 1110 q 640 999 633 1039 q 647 918 647 958 q 640 838 647 878 q 615 762 633 797 q 568 697 597 726 q 503 650 539 668 q 428 625 468 632 q 347 618 388 618 m 347 663 q 415 669 381 663 q 478 690 449 675 q 533 731 508 706 q 572 786 557 756 q 593 851 588 817 q 599 918 599 885 q 593 985 599 951 q 572 1050 588 1019 q 533 1106 557 1081 q 478 1146 508 1131 q 415 1167 449 1161 q 347 1174 381 1174 q 280 1167 314 1174 q 216 1146 246 1161 q 162 1106 186 1131 q 122 1050 138 1081 q 101 985 107 1019 q 96 918 96 951 q 101 851 96 885 q 122 786 107 817 q 162 731 138 756 q 216 690 186 706 q 280 669 246 675 q 347 663 314 663 z "},"":{"ha":694,"x_min":96,"x_max":599,"o":"m 96 906 l 96 956 l 599 956 l 599 906 l 96 906 z "},"":{"ha":694,"x_min":214,"x_max":481,"o":"m 347 782 q 294 790 321 782 q 249 817 268 799 q 222 862 231 836 q 214 915 214 888 q 222 968 214 942 q 249 1013 231 994 q 294 1040 268 1032 q 347 1047 321 1047 q 400 1040 374 1047 q 445 1013 426 1032 q 472 968 464 994 q 481 915 481 942 q 472 862 481 888 q 445 817 464 836 q 400 790 426 799 q 347 782 374 782 m 347 833 q 380 838 364 833 q 407 855 396 843 q 423 883 418 867 q 428 915 428 899 q 423 947 428 931 q 407 974 418 963 q 380 991 396 986 q 347 996 364 996 q 315 991 331 996 q 288 974 299 986 q 272 947 276 963 q 267 915 267 931 q 272 883 267 899 q 288 855 276 867 q 315 838 299 843 q 347 833 331 833 z "},"":{"ha":694,"x_min":96,"x_max":599,"o":"m 375 211 l 319 211 l 319 447 l 96 447 l 96 497 l 319 497 l 319 733 l 375 733 l 375 497 l 599 497 l 599 447 l 375 447 l 375 211 m 96 0 l 96 50 l 599 50 l 599 0 l 96 0 z "},"":{"ha":694,"x_min":153,"x_max":543,"o":"m 154 449 l 154 450 q 156 517 154 483 q 167 582 158 550 q 193 644 176 614 q 232 699 210 674 q 281 744 254 724 q 335 782 307 764 q 392 817 364 800 q 443 860 421 835 q 478 917 465 885 q 490 982 490 949 q 481 1038 490 1011 q 452 1085 472 1065 q 404 1114 432 1106 q 349 1122 376 1122 q 296 1116 322 1122 q 249 1093 269 1110 q 218 1052 229 1076 q 207 1001 207 1028 l 207 997 l 153 997 l 153 1003 q 168 1074 153 1039 q 212 1131 183 1108 q 276 1162 240 1153 q 349 1171 311 1171 q 424 1160 386 1171 q 491 1122 463 1149 q 531 1058 519 1096 q 543 982 543 1021 q 531 906 543 943 q 493 840 518 869 q 436 788 468 810 q 372 745 404 767 q 309 699 339 724 q 257 643 279 675 q 223 574 235 611 q 210 497 211 536 l 540 497 l 540 449 l 154 449 z "},"":{"ha":694,"x_min":144,"x_max":556,"o":"m 350 440 q 275 449 313 440 q 208 481 238 458 q 161 538 178 503 q 144 611 144 574 l 144 614 l 199 614 l 199 613 q 211 559 199 585 q 246 517 224 533 q 295 496 268 501 q 350 490 322 490 q 408 499 379 490 q 459 527 438 507 q 491 576 481 547 q 501 633 501 604 q 495 681 501 657 q 476 724 489 704 q 444 758 463 743 q 403 782 425 774 q 356 792 381 790 q 308 794 332 794 l 308 844 q 374 850 342 844 q 433 876 407 856 q 472 928 458 897 q 486 992 486 958 q 477 1044 486 1018 q 449 1088 468 1069 q 403 1115 429 1107 q 350 1122 376 1122 q 299 1115 325 1122 q 254 1092 274 1108 q 224 1052 235 1076 q 214 1001 214 1028 l 214 997 l 161 997 l 161 1003 q 175 1073 161 1039 q 217 1130 189 1107 q 279 1162 244 1153 q 350 1171 314 1171 q 424 1160 388 1171 q 487 1125 460 1150 q 527 1065 514 1100 q 540 992 540 1029 q 533 939 540 965 q 510 890 525 913 q 475 849 496 867 q 429 821 454 831 q 481 791 457 810 q 522 747 506 772 q 547 692 539 721 q 556 632 556 663 q 541 555 556 593 q 497 490 526 517 q 429 451 468 463 q 350 440 390 440 z "},"":{"ha":694,"x_min":293,"x_max":540,"o":"m 333 771 l 293 797 l 490 1093 l 540 1061 l 333 771 z "},"":{"ha":694,"x_min":96,"x_max":599,"o":"m 96 -299 l 96 722 l 151 722 l 151 278 q 155 219 151 249 q 169 163 158 190 q 196 112 179 136 q 237 71 213 88 q 290 47 261 54 q 347 40 318 40 q 403 47 375 40 q 454 68 431 53 q 495 106 478 83 q 523 155 513 129 q 538 208 533 181 q 543 265 543 236 l 543 722 l 599 722 l 599 0 l 543 0 l 543 139 q 511 76 532 106 q 462 27 490 47 q 399 -2 433 7 q 331 -11 365 -11 q 278 -7 304 -11 q 229 8 253 -3 q 185 36 206 19 q 150 75 165 53 q 151 -37 150 18 q 151 -150 151 -93 l 151 -299 l 96 -299 z "},"":{"ha":694,"x_min":96,"x_max":599,"o":"m 335 0 l 335 488 q 267 494 300 488 q 204 519 233 501 q 153 563 175 536 q 119 622 132 590 q 101 686 106 653 q 96 754 96 719 q 101 822 96 788 q 119 887 106 856 q 153 944 132 918 q 204 989 175 971 q 267 1014 233 1007 q 335 1021 300 1021 l 599 1021 l 599 0 l 547 0 l 547 974 l 386 974 l 386 0 l 335 0 z "},"":{"ha":694,"x_min":276,"x_max":418,"o":"m 347 401 q 319 406 333 401 q 295 420 306 410 q 281 444 285 431 q 276 472 276 458 q 281 500 276 486 q 295 524 285 514 q 319 539 306 535 q 347 543 333 543 q 375 539 361 543 q 399 524 389 535 q 414 500 410 514 q 418 472 418 486 q 414 444 418 458 q 399 420 410 431 q 375 406 389 410 q 347 401 361 401 z "},"":{"ha":694,"x_min":208,"x_max":497,"o":"m 208 -306 l 208 -256 l 347 -256 q 381 -253 364 -256 q 413 -242 399 -250 q 437 -219 428 -233 q 446 -186 446 -204 q 437 -154 446 -169 q 413 -131 428 -139 q 381 -119 399 -122 q 347 -117 364 -117 l 321 -117 l 321 0 l 374 0 l 374 -72 q 420 -83 397 -75 q 461 -106 443 -90 q 488 -143 479 -121 q 497 -189 497 -165 q 485 -240 497 -215 q 450 -280 472 -265 q 401 -300 428 -294 q 347 -306 374 -306 l 208 -306 z "},"":{"ha":694,"x_min":163,"x_max":403,"o":"m 350 449 l 350 1104 l 192 994 l 163 1033 l 350 1164 l 403 1164 l 403 449 l 350 449 z "},"":{"ha":694,"x_min":147,"x_max":547,"o":"m 347 440 q 294 445 321 440 q 242 463 267 450 q 199 494 218 475 q 168 538 181 514 q 151 590 156 563 q 147 643 147 617 l 147 760 q 151 813 147 786 q 168 865 156 840 q 199 908 181 889 q 242 940 218 928 q 294 958 267 953 q 347 963 321 963 q 401 958 374 963 q 452 940 428 953 q 495 908 476 928 q 526 865 514 889 q 543 813 539 840 q 547 760 547 786 l 547 643 q 543 590 547 617 q 526 538 539 563 q 495 494 514 514 q 452 463 476 475 q 401 445 428 450 q 347 440 374 440 m 347 490 q 407 500 378 490 q 457 532 436 510 q 486 583 478 554 q 494 643 494 613 l 494 760 q 486 819 494 790 q 457 871 478 849 q 407 903 436 893 q 347 913 378 913 q 288 903 317 913 q 238 871 258 893 q 208 819 217 849 q 200 760 200 790 l 200 643 q 208 583 200 613 q 238 532 217 554 q 288 500 258 510 q 347 490 317 490 m 154 279 l 154 326 l 540 326 l 540 279 l 154 279 z "},"":{"ha":694,"x_min":85,"x_max":636,"o":"m 385 128 l 336 146 q 379 238 356 193 q 431 324 403 282 q 494 403 460 365 q 567 472 528 440 q 494 542 528 504 q 431 621 460 579 q 379 707 403 663 q 336 799 356 751 l 385 817 q 430 722 404 768 q 487 632 456 675 q 556 551 518 589 q 636 485 593 514 l 636 460 q 556 393 593 431 q 487 313 518 356 q 430 223 456 269 q 385 128 404 176 m 133 128 l 85 146 q 128 238 104 193 q 180 324 151 282 q 242 403 208 365 q 315 472 276 440 q 242 542 276 504 q 180 621 208 579 q 128 707 151 663 q 85 799 104 751 l 133 817 q 178 722 153 768 q 235 632 204 675 q 304 551 267 589 q 385 485 342 514 l 385 460 q 304 393 342 431 q 235 313 267 356 q 178 223 204 269 q 133 128 153 176 z "},"":{"ha":694,"x_min":96,"x_max":599,"o":"m 96 454 l 96 490 l 599 490 l 599 454 l 96 454 m 346 617 l 346 1124 l 229 1040 l 203 1075 l 346 1178 l 396 1178 l 396 617 l 346 617 m 449 -233 l 400 -233 l 400 -82 l 178 -82 l 178 -36 l 396 328 l 451 328 l 232 -36 l 400 -36 l 400 110 l 449 110 l 449 -36 l 513 -36 l 513 -82 l 449 -82 l 449 -233 z "},"":{"ha":694,"x_min":96,"x_max":599,"o":"m 96 454 l 96 490 l 599 490 l 599 454 l 96 454 m 346 617 l 346 1124 l 229 1040 l 203 1075 l 346 1178 l 396 1178 l 396 617 l 346 617 m 183 -233 l 183 -232 q 187 -165 183 -199 q 203 -101 190 -132 q 239 -44 217 -69 q 289 1 261 -18 q 347 35 317 21 q 405 70 378 50 q 449 120 432 90 q 467 183 467 150 q 458 227 467 206 q 433 263 450 249 q 393 283 415 278 q 349 289 371 289 q 307 285 328 289 q 269 269 286 281 q 242 240 253 258 q 232 200 232 221 l 232 199 l 182 199 l 182 201 q 196 260 182 232 q 235 304 210 288 q 289 328 260 321 q 349 335 318 335 q 412 326 381 335 q 468 297 443 318 q 504 246 493 276 q 515 183 515 215 q 505 124 515 153 q 474 71 494 94 q 427 31 453 47 q 374 -1 401 14 q 322 -33 347 -15 q 278 -75 297 -51 q 247 -128 258 -99 q 235 -189 236 -157 l 513 -189 l 513 -233 l 183 -233 z "},"":{"ha":694,"x_min":96,"x_max":599,"o":"m 96 454 l 96 490 l 599 490 l 599 454 l 96 454 m 350 611 q 289 617 319 611 q 233 640 258 624 q 192 685 207 657 q 176 744 176 714 l 176 747 l 225 747 l 225 746 q 237 705 225 724 q 267 675 249 686 q 307 660 286 664 q 350 656 328 656 q 397 661 374 656 q 438 681 419 667 q 465 718 456 696 q 475 763 475 740 q 461 817 475 792 q 424 860 447 843 q 372 881 401 876 q 315 885 343 885 l 315 931 q 368 934 342 931 q 416 952 394 938 q 450 991 438 967 q 463 1042 463 1015 q 454 1083 463 1063 q 429 1116 446 1103 q 392 1134 413 1129 q 350 1139 371 1139 q 310 1135 331 1139 q 274 1119 290 1131 q 247 1090 257 1108 q 238 1050 238 1071 l 238 1049 l 189 1049 l 189 1051 q 202 1109 189 1082 q 239 1153 215 1136 q 292 1178 263 1171 q 350 1185 321 1185 q 410 1177 381 1185 q 464 1150 440 1169 q 500 1101 488 1131 q 513 1042 513 1072 q 506 1000 513 1021 q 488 962 500 979 q 460 931 476 944 q 424 908 443 917 q 465 885 446 900 q 497 851 483 871 q 518 809 511 832 q 525 763 525 786 q 511 699 525 729 q 472 647 497 668 q 415 619 447 626 q 350 611 382 611 m 449 -233 l 400 -233 l 400 -82 l 178 -82 l 178 -36 l 396 328 l 451 328 l 232 -36 l 400 -36 l 400 110 l 449 110 l 449 -36 l 513 -36 l 513 -82 l 449 -82 l 449 -233 z "},"":{"ha":694,"x_min":96,"x_max":601,"o":"m 347 601 q 321 606 333 601 q 299 619 308 610 q 285 641 289 628 q 282 668 282 654 q 285 694 282 681 q 299 716 289 707 q 321 729 308 725 q 347 733 333 733 q 374 729 361 733 q 396 716 386 725 q 409 694 406 707 q 413 668 413 681 q 409 641 413 654 q 396 619 406 628 q 374 606 386 610 q 347 601 361 601 m 349 -310 q 283 -304 315 -310 q 221 -284 250 -299 q 167 -247 192 -269 q 127 -195 143 -224 q 103 -134 111 -167 q 96 -69 96 -101 q 104 -1 96 -35 q 128 64 113 33 q 166 122 144 94 q 210 174 188 149 q 256 225 233 199 q 294 282 279 251 q 315 347 310 313 q 319 415 319 382 l 375 415 q 372 347 375 382 q 356 280 368 313 q 325 219 344 247 q 283 165 306 190 q 236 114 260 139 q 193 60 213 89 q 163 -1 174 32 q 151 -69 151 -35 q 165 -145 151 -108 q 207 -209 179 -182 q 272 -247 235 -236 q 349 -258 310 -258 q 425 -247 388 -258 q 490 -210 463 -236 q 532 -147 518 -183 q 546 -71 546 -110 l 546 -62 l 601 -62 l 601 -72 q 594 -137 601 -106 q 570 -198 586 -169 q 530 -249 554 -226 q 476 -285 506 -271 q 414 -304 446 -299 q 349 -310 382 -310 z "},"":{"ha":694,"x_min":72,"x_max":622,"o":"m 72 0 l 315 1021 l 379 1021 l 460 681 l 622 0 l 564 0 l 490 310 l 204 310 l 131 0 l 72 0 m 215 361 l 479 361 l 404 681 q 375 802 389 742 q 347 924 361 863 q 319 802 333 863 q 290 681 306 742 l 215 361 m 356 1118 l 203 1310 l 249 1343 l 393 1146 l 356 1118 z "},"":{"ha":694,"x_min":72,"x_max":622,"o":"m 72 0 l 315 1021 l 379 1021 l 460 681 l 622 0 l 564 0 l 490 310 l 204 310 l 131 0 l 72 0 m 215 361 l 479 361 l 404 681 q 375 802 389 742 q 347 924 361 863 q 319 802 333 863 q 290 681 306 742 l 215 361 m 339 1118 l 301 1146 l 446 1343 l 492 1310 l 339 1118 z "},"":{"ha":694,"x_min":72,"x_max":622,"o":"m 72 0 l 315 1021 l 379 1021 l 460 681 l 622 0 l 564 0 l 490 310 l 204 310 l 131 0 l 72 0 m 215 361 l 479 361 l 404 681 q 375 802 389 742 q 347 924 361 863 q 319 802 333 863 q 290 681 306 742 l 215 361 m 215 1122 l 174 1151 l 311 1342 l 383 1342 l 521 1151 l 479 1122 l 347 1294 l 215 1122 z "},"":{"ha":694,"x_min":72,"x_max":622,"o":"m 72 0 l 315 1021 l 379 1021 l 460 681 l 622 0 l 564 0 l 490 310 l 204 310 l 131 0 l 72 0 m 215 361 l 479 361 l 404 681 q 375 802 389 742 q 347 924 361 863 q 319 802 333 863 q 290 681 306 742 l 215 361 m 429 1129 q 410 1132 419 1129 q 392 1140 400 1135 q 376 1153 383 1146 q 362 1167 368 1160 q 350 1183 356 1175 q 339 1199 344 1190 q 328 1216 333 1207 q 317 1234 322 1225 q 306 1251 311 1243 q 294 1267 300 1260 q 281 1282 289 1274 q 265 1290 272 1290 q 256 1287 260 1290 q 247 1280 251 1283 q 238 1270 243 1276 q 230 1261 232 1264 q 226 1255 228 1258 q 221 1248 224 1251 q 215 1240 218 1244 q 210 1231 213 1236 q 206 1222 208 1226 q 200 1212 203 1217 q 194 1201 197 1207 q 189 1189 192 1194 q 183 1176 186 1183 q 176 1163 179 1169 q 170 1149 174 1156 q 164 1133 167 1142 l 114 1153 q 125 1177 119 1165 q 135 1200 131 1189 q 145 1221 140 1211 q 155 1240 150 1231 q 165 1257 160 1249 q 174 1272 169 1265 q 183 1285 179 1279 q 195 1301 188 1292 q 210 1316 203 1310 q 226 1328 217 1322 q 244 1337 235 1333 q 265 1340 254 1340 q 285 1338 275 1340 q 303 1329 294 1335 q 319 1317 311 1324 q 333 1302 326 1310 q 344 1287 339 1294 q 356 1271 350 1279 q 367 1253 361 1263 q 378 1235 372 1244 q 389 1218 383 1226 q 400 1203 394 1210 q 414 1188 406 1196 q 429 1179 422 1179 q 439 1183 435 1179 q 447 1190 443 1186 q 457 1199 451 1193 q 465 1208 463 1206 q 469 1215 467 1211 q 474 1222 471 1218 q 479 1229 476 1225 q 484 1238 482 1233 q 489 1248 486 1243 q 494 1258 492 1253 q 500 1269 497 1263 q 506 1281 503 1275 q 512 1293 508 1286 q 518 1307 515 1300 q 524 1321 521 1314 q 531 1336 528 1328 l 581 1317 q 569 1292 575 1304 q 559 1269 564 1281 q 549 1249 554 1258 q 540 1230 544 1239 q 530 1213 535 1221 q 520 1197 525 1204 q 511 1184 515 1190 q 499 1169 507 1178 q 485 1153 492 1160 q 469 1142 478 1147 q 450 1133 460 1136 q 429 1129 440 1129 z "},"":{"ha":694,"x_min":72,"x_max":622,"o":"m 72 0 l 315 1021 l 379 1021 l 460 681 l 622 0 l 564 0 l 490 310 l 204 310 l 131 0 l 72 0 m 215 361 l 479 361 l 404 681 q 375 802 389 742 q 347 924 361 863 q 319 802 333 863 q 290 681 306 742 l 215 361 m 486 1175 q 465 1178 475 1175 q 446 1189 454 1181 q 435 1208 438 1197 q 432 1229 432 1218 q 435 1251 432 1240 q 446 1269 438 1261 q 465 1281 454 1278 q 486 1283 475 1283 q 508 1281 497 1283 q 526 1269 518 1278 q 538 1251 535 1261 q 540 1229 540 1240 q 538 1208 540 1218 q 526 1189 535 1197 q 508 1178 518 1181 q 486 1175 497 1175 m 208 1175 q 187 1178 197 1175 q 168 1189 176 1181 q 157 1208 160 1197 q 154 1229 154 1218 q 157 1251 154 1240 q 168 1269 160 1261 q 187 1281 176 1278 q 208 1283 197 1283 q 230 1281 219 1283 q 249 1269 240 1278 q 260 1251 257 1261 q 263 1229 263 1240 q 260 1208 263 1218 q 249 1189 257 1197 q 230 1178 240 1181 q 208 1175 219 1175 z "},"":{"ha":694,"x_min":72,"x_max":622,"o":"m 72 0 l 315 1021 l 379 1021 l 460 681 l 622 0 l 564 0 l 490 310 l 204 310 l 131 0 l 72 0 m 215 361 l 479 361 l 404 681 q 375 802 389 742 q 347 924 361 863 q 319 802 333 863 q 290 681 306 742 l 215 361 m 347 1119 q 303 1126 325 1119 q 266 1148 282 1132 q 244 1185 250 1164 q 238 1229 238 1207 q 244 1273 238 1251 q 266 1310 250 1294 q 303 1333 282 1326 q 347 1339 325 1339 q 391 1333 369 1339 q 428 1310 413 1326 q 451 1273 444 1294 q 457 1229 457 1251 q 451 1185 457 1207 q 428 1148 444 1164 q 391 1126 413 1132 q 347 1119 369 1119 m 347 1163 q 374 1167 361 1163 q 397 1180 388 1171 q 410 1202 406 1189 q 414 1229 414 1215 q 410 1256 414 1243 q 397 1278 406 1269 q 374 1292 388 1288 q 347 1296 361 1296 q 320 1292 333 1296 q 298 1278 307 1288 q 285 1256 289 1269 q 281 1229 281 1243 q 285 1202 281 1215 q 298 1180 289 1189 q 320 1167 307 1171 q 347 1163 333 1163 z "},"":{"ha":694,"x_min":69,"x_max":604,"o":"m 69 0 l 307 1021 l 604 1021 l 604 969 l 388 969 l 388 557 l 592 557 l 592 506 l 388 506 l 388 51 l 604 51 l 604 0 l 333 0 l 333 311 l 197 311 l 125 0 l 69 0 m 208 361 l 333 361 l 333 907 q 308 794 321 850 q 282 681 294 738 l 208 361 z "},"":{"ha":694,"x_min":85,"x_max":601,"o":"m 343 -11 q 271 -3 307 -11 q 203 22 235 4 q 149 68 172 40 q 110 129 125 96 q 90 199 96 163 q 85 271 85 235 l 85 750 q 90 822 85 786 q 110 892 96 858 q 149 953 125 925 q 203 999 172 981 q 271 1024 235 1017 q 343 1032 307 1032 q 410 1026 376 1032 q 473 1007 443 1021 q 528 970 503 993 q 569 918 553 947 q 594 856 586 889 q 601 789 601 822 l 601 785 l 546 785 l 546 789 q 532 866 546 828 q 489 931 518 904 q 422 969 460 958 q 343 981 383 981 q 285 974 314 981 q 232 953 257 968 q 189 915 207 938 q 160 865 171 892 q 144 808 149 838 q 140 750 140 779 l 140 271 q 144 213 140 242 q 160 156 149 183 q 189 106 171 129 q 232 68 207 83 q 285 47 257 53 q 343 40 314 40 q 422 51 383 40 q 489 90 460 63 q 532 155 518 117 q 546 232 546 193 l 546 236 l 601 236 l 601 232 q 594 165 601 199 q 569 103 586 132 q 528 51 553 74 q 473 14 503 28 q 410 -6 443 0 q 343 -11 376 -11 m 208 -306 l 208 -256 l 347 -256 q 381 -253 364 -256 q 413 -242 399 -250 q 437 -219 428 -233 q 446 -186 446 -204 q 437 -154 446 -169 q 413 -131 428 -139 q 381 -119 399 -122 q 347 -117 364 -117 l 321 -117 l 321 40 l 374 40 l 374 -72 q 420 -83 397 -75 q 461 -106 443 -90 q 488 -143 479 -121 q 497 -189 497 -165 q 485 -240 497 -215 q 450 -280 472 -265 q 401 -300 428 -294 q 347 -306 374 -306 l 208 -306 z "},"":{"ha":694,"x_min":107,"x_max":599,"o":"m 107 0 l 107 1021 l 599 1021 l 599 969 l 163 969 l 163 557 l 524 557 l 524 506 l 163 506 l 163 51 l 599 51 l 599 0 l 107 0 m 356 1118 l 203 1310 l 249 1343 l 393 1146 l 356 1118 z "},"":{"ha":694,"x_min":107,"x_max":599,"o":"m 107 0 l 107 1021 l 599 1021 l 599 969 l 163 969 l 163 557 l 524 557 l 524 506 l 163 506 l 163 51 l 599 51 l 599 0 l 107 0 m 339 1118 l 301 1146 l 446 1343 l 492 1310 l 339 1118 z "},"":{"ha":694,"x_min":107,"x_max":599,"o":"m 107 0 l 107 1021 l 599 1021 l 599 969 l 163 969 l 163 557 l 524 557 l 524 506 l 163 506 l 163 51 l 599 51 l 599 0 l 107 0 m 215 1122 l 174 1151 l 311 1342 l 383 1342 l 521 1151 l 479 1122 l 347 1294 l 215 1122 z "},"":{"ha":694,"x_min":107,"x_max":599,"o":"m 107 0 l 107 1021 l 599 1021 l 599 969 l 163 969 l 163 557 l 524 557 l 524 506 l 163 506 l 163 51 l 599 51 l 599 0 l 107 0 m 486 1175 q 465 1178 475 1175 q 446 1189 454 1181 q 435 1208 438 1197 q 432 1229 432 1218 q 435 1251 432 1240 q 446 1269 438 1261 q 465 1281 454 1278 q 486 1283 475 1283 q 508 1281 497 1283 q 526 1269 518 1278 q 538 1251 535 1261 q 540 1229 540 1240 q 538 1208 540 1218 q 526 1189 535 1197 q 508 1178 518 1181 q 486 1175 497 1175 m 208 1175 q 187 1178 197 1175 q 168 1189 176 1181 q 157 1208 160 1197 q 154 1229 154 1218 q 157 1251 154 1240 q 168 1269 160 1261 q 187 1281 176 1278 q 208 1283 197 1283 q 230 1281 219 1283 q 249 1269 240 1278 q 260 1251 257 1261 q 263 1229 263 1240 q 260 1208 263 1218 q 249 1189 257 1197 q 230 1178 240 1181 q 208 1175 219 1175 z "},"":{"ha":694,"x_min":104,"x_max":590,"o":"m 590 0 l 104 0 l 104 51 l 319 51 l 319 969 l 104 969 l 104 1021 l 590 1021 l 590 969 l 375 969 l 375 51 l 590 51 l 590 0 m 356 1118 l 203 1310 l 249 1343 l 393 1146 l 356 1118 z "},"":{"ha":694,"x_min":104,"x_max":590,"o":"m 590 0 l 104 0 l 104 51 l 319 51 l 319 969 l 104 969 l 104 1021 l 590 1021 l 590 969 l 375 969 l 375 51 l 590 51 l 590 0 m 339 1118 l 301 1146 l 446 1343 l 492 1310 l 339 1118 z "},"":{"ha":694,"x_min":104,"x_max":590,"o":"m 590 0 l 104 0 l 104 51 l 319 51 l 319 969 l 104 969 l 104 1021 l 590 1021 l 590 969 l 375 969 l 375 51 l 590 51 l 590 0 m 215 1122 l 174 1151 l 311 1342 l 383 1342 l 521 1151 l 479 1122 l 347 1294 l 215 1122 z "},"":{"ha":694,"x_min":104,"x_max":590,"o":"m 590 0 l 104 0 l 104 51 l 319 51 l 319 969 l 104 969 l 104 1021 l 590 1021 l 590 969 l 375 969 l 375 51 l 590 51 l 590 0 m 486 1175 q 465 1178 475 1175 q 446 1189 454 1181 q 435 1208 438 1197 q 432 1229 432 1218 q 435 1251 432 1240 q 446 1269 438 1261 q 465 1281 454 1278 q 486 1283 475 1283 q 508 1281 497 1283 q 526 1269 518 1278 q 538 1251 535 1261 q 540 1229 540 1240 q 538 1208 540 1218 q 526 1189 535 1197 q 508 1178 518 1181 q 486 1175 497 1175 m 208 1175 q 187 1178 197 1175 q 168 1189 176 1181 q 157 1208 160 1197 q 154 1229 154 1218 q 157 1251 154 1240 q 168 1269 160 1261 q 187 1281 176 1278 q 208 1283 197 1283 q 230 1281 219 1283 q 249 1269 240 1278 q 260 1251 257 1261 q 263 1229 263 1240 q 260 1208 263 1218 q 249 1189 257 1197 q 230 1178 240 1181 q 208 1175 219 1175 z "},"":{"ha":694,"x_min":18,"x_max":610,"o":"m 301 0 l 96 0 l 96 486 l 18 486 l 18 535 l 96 535 l 96 1021 l 301 1021 q 382 1014 342 1021 q 459 990 422 1007 q 526 944 496 972 q 576 881 557 917 q 602 804 594 844 q 610 724 610 764 l 610 299 q 602 217 610 257 q 576 140 594 176 q 526 76 557 104 q 459 31 496 49 q 382 7 422 14 q 301 0 342 0 m 151 51 l 300 51 q 368 57 335 51 q 431 77 401 63 q 486 115 461 92 q 526 168 511 139 q 548 231 542 197 q 554 299 554 264 l 554 724 q 548 790 554 757 q 526 853 542 824 q 486 906 511 882 q 431 944 461 929 q 368 964 401 958 q 300 969 335 969 l 151 969 l 151 535 l 314 535 l 314 486 l 151 486 l 151 51 z "},"":{"ha":694,"x_min":96,"x_max":599,"o":"m 96 0 l 96 1021 l 172 1021 l 546 82 q 544 347 546 214 q 543 613 543 479 l 543 1021 l 599 1021 l 599 0 l 522 0 l 149 939 q 150 674 149 807 q 151 408 151 542 l 151 0 l 96 0 m 429 1129 q 410 1132 419 1129 q 392 1140 400 1135 q 376 1153 383 1146 q 362 1167 368 1160 q 350 1183 356 1175 q 339 1199 344 1190 q 328 1216 333 1207 q 317 1234 322 1225 q 306 1251 311 1243 q 294 1267 300 1260 q 281 1282 289 1274 q 265 1290 272 1290 q 256 1287 260 1290 q 247 1280 251 1283 q 238 1270 243 1276 q 230 1261 232 1264 q 226 1255 228 1258 q 221 1248 224 1251 q 215 1240 218 1244 q 210 1231 213 1236 q 206 1222 208 1226 q 200 1212 203 1217 q 194 1201 197 1207 q 189 1189 192 1194 q 183 1176 186 1183 q 176 1163 179 1169 q 170 1149 174 1156 q 164 1133 167 1142 l 114 1153 q 125 1177 119 1165 q 135 1200 131 1189 q 145 1221 140 1211 q 155 1240 150 1231 q 165 1257 160 1249 q 174 1272 169 1265 q 183 1285 179 1279 q 195 1301 188 1292 q 210 1316 203 1310 q 226 1328 217 1322 q 244 1337 235 1333 q 265 1340 254 1340 q 285 1338 275 1340 q 303 1329 294 1335 q 319 1317 311 1324 q 333 1302 326 1310 q 344 1287 339 1294 q 356 1271 350 1279 q 367 1253 361 1263 q 378 1235 372 1244 q 389 1218 383 1226 q 400 1203 394 1210 q 414 1188 406 1196 q 429 1179 422 1179 q 439 1183 435 1179 q 447 1190 443 1186 q 457 1199 451 1193 q 465 1208 463 1206 q 469 1215 467 1211 q 474 1222 471 1218 q 479 1229 476 1225 q 484 1238 482 1233 q 489 1248 486 1243 q 494 1258 492 1253 q 500 1269 497 1263 q 506 1281 503 1275 q 512 1293 508 1286 q 518 1307 515 1300 q 524 1321 521 1314 q 531 1336 528 1328 l 581 1317 q 569 1292 575 1304 q 559 1269 564 1281 q 549 1249 554 1258 q 540 1230 544 1239 q 530 1213 535 1221 q 520 1197 525 1204 q 511 1184 515 1190 q 499 1169 507 1178 q 485 1153 492 1160 q 469 1142 478 1147 q 450 1133 460 1136 q 429 1129 440 1129 z "},"":{"ha":694,"x_min":85,"x_max":610,"o":"m 347 -11 q 275 -4 311 -11 q 207 21 239 3 q 151 67 175 39 q 111 128 126 94 q 90 198 96 161 q 85 271 85 235 l 85 750 q 90 823 85 786 q 111 893 96 860 q 151 954 126 926 q 207 1000 175 982 q 275 1025 239 1018 q 347 1032 311 1032 q 419 1025 383 1032 q 488 1000 456 1018 q 544 954 519 982 q 583 893 568 926 q 604 823 599 860 q 610 750 610 786 l 610 271 q 604 198 610 235 q 583 128 599 161 q 544 67 568 94 q 488 21 519 39 q 419 -4 456 3 q 347 -11 383 -11 m 347 40 q 406 46 376 40 q 460 67 435 51 q 504 106 485 82 q 535 156 524 129 q 550 213 546 183 q 554 271 554 242 l 554 750 q 550 808 554 779 q 535 865 546 838 q 504 915 524 892 q 460 954 485 939 q 406 975 435 969 q 347 981 376 981 q 289 975 318 981 q 235 954 260 969 q 190 915 210 939 q 160 865 171 892 q 144 808 149 838 q 140 750 140 779 l 140 271 q 144 213 140 242 q 160 156 149 183 q 190 106 171 129 q 235 67 210 82 q 289 46 260 51 q 347 40 318 40 m 356 1118 l 203 1310 l 249 1343 l 393 1146 l 356 1118 z "},"":{"ha":694,"x_min":85,"x_max":610,"o":"m 347 -11 q 275 -4 311 -11 q 207 21 239 3 q 151 67 175 39 q 111 128 126 94 q 90 198 96 161 q 85 271 85 235 l 85 750 q 90 823 85 786 q 111 893 96 860 q 151 954 126 926 q 207 1000 175 982 q 275 1025 239 1018 q 347 1032 311 1032 q 419 1025 383 1032 q 488 1000 456 1018 q 544 954 519 982 q 583 893 568 926 q 604 823 599 860 q 610 750 610 786 l 610 271 q 604 198 610 235 q 583 128 599 161 q 544 67 568 94 q 488 21 519 39 q 419 -4 456 3 q 347 -11 383 -11 m 347 40 q 406 46 376 40 q 460 67 435 51 q 504 106 485 82 q 535 156 524 129 q 550 213 546 183 q 554 271 554 242 l 554 750 q 550 808 554 779 q 535 865 546 838 q 504 915 524 892 q 460 954 485 939 q 406 975 435 969 q 347 981 376 981 q 289 975 318 981 q 235 954 260 969 q 190 915 210 939 q 160 865 171 892 q 144 808 149 838 q 140 750 140 779 l 140 271 q 144 213 140 242 q 160 156 149 183 q 190 106 171 129 q 235 67 210 82 q 289 46 260 51 q 347 40 318 40 m 339 1118 l 301 1146 l 446 1343 l 492 1310 l 339 1118 z "},"":{"ha":694,"x_min":85,"x_max":610,"o":"m 347 -11 q 275 -4 311 -11 q 207 21 239 3 q 151 67 175 39 q 111 128 126 94 q 90 198 96 161 q 85 271 85 235 l 85 750 q 90 823 85 786 q 111 893 96 860 q 151 954 126 926 q 207 1000 175 982 q 275 1025 239 1018 q 347 1032 311 1032 q 419 1025 383 1032 q 488 1000 456 1018 q 544 954 519 982 q 583 893 568 926 q 604 823 599 860 q 610 750 610 786 l 610 271 q 604 198 610 235 q 583 128 599 161 q 544 67 568 94 q 488 21 519 39 q 419 -4 456 3 q 347 -11 383 -11 m 347 40 q 406 46 376 40 q 460 67 435 51 q 504 106 485 82 q 535 156 524 129 q 550 213 546 183 q 554 271 554 242 l 554 750 q 550 808 554 779 q 535 865 546 838 q 504 915 524 892 q 460 954 485 939 q 406 975 435 969 q 347 981 376 981 q 289 975 318 981 q 235 954 260 969 q 190 915 210 939 q 160 865 171 892 q 144 808 149 838 q 140 750 140 779 l 140 271 q 144 213 140 242 q 160 156 149 183 q 190 106 171 129 q 235 67 210 82 q 289 46 260 51 q 347 40 318 40 m 215 1122 l 174 1151 l 311 1342 l 383 1342 l 521 1151 l 479 1122 l 347 1294 l 215 1122 z "},"":{"ha":694,"x_min":85,"x_max":610,"o":"m 347 -11 q 275 -4 311 -11 q 207 21 239 3 q 151 67 175 39 q 111 128 126 94 q 90 198 96 161 q 85 271 85 235 l 85 750 q 90 823 85 786 q 111 893 96 860 q 151 954 126 926 q 207 1000 175 982 q 275 1025 239 1018 q 347 1032 311 1032 q 419 1025 383 1032 q 488 1000 456 1018 q 544 954 519 982 q 583 893 568 926 q 604 823 599 860 q 610 750 610 786 l 610 271 q 604 198 610 235 q 583 128 599 161 q 544 67 568 94 q 488 21 519 39 q 419 -4 456 3 q 347 -11 383 -11 m 347 40 q 406 46 376 40 q 460 67 435 51 q 504 106 485 82 q 535 156 524 129 q 550 213 546 183 q 554 271 554 242 l 554 750 q 550 808 554 779 q 535 865 546 838 q 504 915 524 892 q 460 954 485 939 q 406 975 435 969 q 347 981 376 981 q 289 975 318 981 q 235 954 260 969 q 190 915 210 939 q 160 865 171 892 q 144 808 149 838 q 140 750 140 779 l 140 271 q 144 213 140 242 q 160 156 149 183 q 190 106 171 129 q 235 67 210 82 q 289 46 260 51 q 347 40 318 40 m 429 1129 q 410 1132 419 1129 q 392 1140 400 1135 q 376 1153 383 1146 q 362 1167 368 1160 q 350 1183 356 1175 q 339 1199 344 1190 q 328 1216 333 1207 q 317 1234 322 1225 q 306 1251 311 1243 q 294 1267 300 1260 q 281 1282 289 1274 q 265 1290 272 1290 q 256 1287 260 1290 q 247 1280 251 1283 q 238 1270 243 1276 q 230 1261 232 1264 q 226 1255 228 1258 q 221 1248 224 1251 q 215 1240 218 1244 q 210 1231 213 1236 q 206 1222 208 1226 q 200 1212 203 1217 q 194 1201 197 1207 q 189 1189 192 1194 q 183 1176 186 1183 q 176 1163 179 1169 q 170 1149 174 1156 q 164 1133 167 1142 l 114 1153 q 125 1177 119 1165 q 135 1200 131 1189 q 145 1221 140 1211 q 155 1240 150 1231 q 165 1257 160 1249 q 174 1272 169 1265 q 183 1285 179 1279 q 195 1301 188 1292 q 210 1316 203 1310 q 226 1328 217 1322 q 244 1337 235 1333 q 265 1340 254 1340 q 285 1338 275 1340 q 303 1329 294 1335 q 319 1317 311 1324 q 333 1302 326 1310 q 344 1287 339 1294 q 356 1271 350 1279 q 367 1253 361 1263 q 378 1235 372 1244 q 389 1218 383 1226 q 400 1203 394 1210 q 414 1188 406 1196 q 429 1179 422 1179 q 439 1183 435 1179 q 447 1190 443 1186 q 457 1199 451 1193 q 465 1208 463 1206 q 469 1215 467 1211 q 474 1222 471 1218 q 479 1229 476 1225 q 484 1238 482 1233 q 489 1248 486 1243 q 494 1258 492 1253 q 500 1269 497 1263 q 506 1281 503 1275 q 512 1293 508 1286 q 518 1307 515 1300 q 524 1321 521 1314 q 531 1336 528 1328 l 581 1317 q 569 1292 575 1304 q 559 1269 564 1281 q 549 1249 554 1258 q 540 1230 544 1239 q 530 1213 535 1221 q 520 1197 525 1204 q 511 1184 515 1190 q 499 1169 507 1178 q 485 1153 492 1160 q 469 1142 478 1147 q 450 1133 460 1136 q 429 1129 440 1129 z "},"":{"ha":694,"x_min":85,"x_max":610,"o":"m 347 -11 q 275 -4 311 -11 q 207 21 239 3 q 151 67 175 39 q 111 128 126 94 q 90 198 96 161 q 85 271 85 235 l 85 750 q 90 823 85 786 q 111 893 96 860 q 151 954 126 926 q 207 1000 175 982 q 275 1025 239 1018 q 347 1032 311 1032 q 419 1025 383 1032 q 488 1000 456 1018 q 544 954 519 982 q 583 893 568 926 q 604 823 599 860 q 610 750 610 786 l 610 271 q 604 198 610 235 q 583 128 599 161 q 544 67 568 94 q 488 21 519 39 q 419 -4 456 3 q 347 -11 383 -11 m 347 40 q 406 46 376 40 q 460 67 435 51 q 504 106 485 82 q 535 156 524 129 q 550 213 546 183 q 554 271 554 242 l 554 750 q 550 808 554 779 q 535 865 546 838 q 504 915 524 892 q 460 954 485 939 q 406 975 435 969 q 347 981 376 981 q 289 975 318 981 q 235 954 260 969 q 190 915 210 939 q 160 865 171 892 q 144 808 149 838 q 140 750 140 779 l 140 271 q 144 213 140 242 q 160 156 149 183 q 190 106 171 129 q 235 67 210 82 q 289 46 260 51 q 347 40 318 40 m 486 1175 q 465 1178 475 1175 q 446 1189 454 1181 q 435 1208 438 1197 q 432 1229 432 1218 q 435 1251 432 1240 q 446 1269 438 1261 q 465 1281 454 1278 q 486 1283 475 1283 q 508 1281 497 1283 q 526 1269 518 1278 q 538 1251 535 1261 q 540 1229 540 1240 q 538 1208 540 1218 q 526 1189 535 1197 q 508 1178 518 1181 q 486 1175 497 1175 m 208 1175 q 187 1178 197 1175 q 168 1189 176 1181 q 157 1208 160 1197 q 154 1229 154 1218 q 157 1251 154 1240 q 168 1269 160 1261 q 187 1281 176 1278 q 208 1283 197 1283 q 230 1281 219 1283 q 249 1269 240 1278 q 260 1251 257 1261 q 263 1229 263 1240 q 260 1208 263 1218 q 249 1189 257 1197 q 230 1178 240 1181 q 208 1175 219 1175 z "},"":{"ha":694,"x_min":53,"x_max":642,"o":"m 92 179 l 53 215 l 310 472 l 53 729 l 92 765 l 347 510 l 603 765 l 642 729 l 385 472 l 642 215 l 603 179 l 347 435 l 92 179 z "},"":{"ha":694,"x_min":85,"x_max":610,"o":"m 133 -61 l 85 -42 l 138 83 q 112 126 122 103 q 95 172 101 149 q 87 221 89 196 q 85 271 85 246 l 85 750 q 90 823 85 786 q 111 893 96 860 q 151 954 126 926 q 207 1000 175 982 q 275 1025 239 1018 q 347 1032 311 1032 q 438 1020 393 1032 q 518 979 482 1008 l 561 1082 l 610 1063 l 557 938 q 583 895 572 918 q 599 849 593 872 q 608 800 606 825 q 610 750 610 775 l 610 271 q 604 198 610 235 q 583 128 599 161 q 544 67 568 94 q 488 21 519 39 q 419 -4 456 3 q 347 -11 383 -11 q 257 1 301 -11 q 176 42 213 13 l 133 -61 m 164 146 l 494 926 q 427 968 467 956 q 347 981 388 981 q 289 975 318 981 q 235 954 260 969 q 190 915 210 939 q 160 865 171 892 q 144 808 149 838 q 140 750 140 779 l 140 271 q 145 207 140 239 q 164 146 150 175 m 347 40 q 406 46 376 40 q 460 67 435 51 q 504 106 485 82 q 535 156 524 129 q 550 213 546 183 q 554 271 554 242 l 554 750 q 549 814 554 782 q 531 875 544 846 l 200 94 q 267 53 228 65 q 347 40 307 40 z "},"":{"ha":694,"x_min":96,"x_max":599,"o":"m 347 -11 q 276 -3 311 -11 q 210 23 240 4 q 156 69 179 42 q 119 131 133 97 q 101 199 106 164 q 96 271 96 235 l 96 1021 l 151 1021 l 151 271 q 155 213 151 242 q 169 158 158 185 q 197 108 179 132 q 238 69 214 85 q 290 47 263 53 q 347 40 318 40 q 404 47 376 40 q 456 69 432 53 q 498 108 481 85 q 526 158 515 132 q 540 213 536 185 q 543 271 543 242 l 543 1021 l 599 1021 l 599 271 q 594 199 599 235 q 575 131 589 164 q 538 69 561 97 q 485 23 515 42 q 419 -3 454 4 q 347 -11 383 -11 m 356 1118 l 203 1310 l 249 1343 l 393 1146 l 356 1118 z "},"":{"ha":694,"x_min":96,"x_max":599,"o":"m 347 -11 q 276 -3 311 -11 q 210 23 240 4 q 156 69 179 42 q 119 131 133 97 q 101 199 106 164 q 96 271 96 235 l 96 1021 l 151 1021 l 151 271 q 155 213 151 242 q 169 158 158 185 q 197 108 179 132 q 238 69 214 85 q 290 47 263 53 q 347 40 318 40 q 404 47 376 40 q 456 69 432 53 q 498 108 481 85 q 526 158 515 132 q 540 213 536 185 q 543 271 543 242 l 543 1021 l 599 1021 l 599 271 q 594 199 599 235 q 575 131 589 164 q 538 69 561 97 q 485 23 515 42 q 419 -3 454 4 q 347 -11 383 -11 m 339 1118 l 301 1146 l 446 1343 l 492 1310 l 339 1118 z "},"":{"ha":694,"x_min":96,"x_max":599,"o":"m 347 -11 q 276 -3 311 -11 q 210 23 240 4 q 156 69 179 42 q 119 131 133 97 q 101 199 106 164 q 96 271 96 235 l 96 1021 l 151 1021 l 151 271 q 155 213 151 242 q 169 158 158 185 q 197 108 179 132 q 238 69 214 85 q 290 47 263 53 q 347 40 318 40 q 404 47 376 40 q 456 69 432 53 q 498 108 481 85 q 526 158 515 132 q 540 213 536 185 q 543 271 543 242 l 543 1021 l 599 1021 l 599 271 q 594 199 599 235 q 575 131 589 164 q 538 69 561 97 q 485 23 515 42 q 419 -3 454 4 q 347 -11 383 -11 m 215 1122 l 174 1151 l 311 1342 l 383 1342 l 521 1151 l 479 1122 l 347 1294 l 215 1122 z "},"":{"ha":694,"x_min":96,"x_max":599,"o":"m 347 -11 q 276 -3 311 -11 q 210 23 240 4 q 156 69 179 42 q 119 131 133 97 q 101 199 106 164 q 96 271 96 235 l 96 1021 l 151 1021 l 151 271 q 155 213 151 242 q 169 158 158 185 q 197 108 179 132 q 238 69 214 85 q 290 47 263 53 q 347 40 318 40 q 404 47 376 40 q 456 69 432 53 q 498 108 481 85 q 526 158 515 132 q 540 213 536 185 q 543 271 543 242 l 543 1021 l 599 1021 l 599 271 q 594 199 599 235 q 575 131 589 164 q 538 69 561 97 q 485 23 515 42 q 419 -3 454 4 q 347 -11 383 -11 m 486 1175 q 465 1178 475 1175 q 446 1189 454 1181 q 435 1208 438 1197 q 432 1229 432 1218 q 435 1251 432 1240 q 446 1269 438 1261 q 465 1281 454 1278 q 486 1283 475 1283 q 508 1281 497 1283 q 526 1269 518 1278 q 538 1251 535 1261 q 540 1229 540 1240 q 538 1208 540 1218 q 526 1189 535 1197 q 508 1178 518 1181 q 486 1175 497 1175 m 208 1175 q 187 1178 197 1175 q 168 1189 176 1181 q 157 1208 160 1197 q 154 1229 154 1218 q 157 1251 154 1240 q 168 1269 160 1261 q 187 1281 176 1278 q 208 1283 197 1283 q 230 1281 219 1283 q 249 1269 240 1278 q 260 1251 257 1261 q 263 1229 263 1240 q 260 1208 263 1218 q 249 1189 257 1197 q 230 1178 240 1181 q 208 1175 219 1175 z "},"":{"ha":694,"x_min":82,"x_max":613,"o":"m 319 0 l 319 407 l 82 1021 l 142 1021 l 347 483 l 553 1021 l 613 1021 l 375 407 l 375 0 l 319 0 m 339 1118 l 301 1146 l 446 1343 l 492 1310 l 339 1118 z "},"":{"ha":694,"x_min":119,"x_max":610,"o":"m 119 0 l 119 1021 l 175 1021 l 175 826 l 282 826 q 368 819 325 826 q 450 794 411 813 q 521 746 489 776 q 574 677 553 715 q 602 597 594 639 q 610 511 610 554 q 602 424 610 467 q 574 344 594 382 q 521 275 553 306 q 450 226 489 244 q 368 201 411 208 q 282 194 325 194 l 175 194 l 175 0 l 119 0 m 175 244 l 282 244 q 354 251 318 244 q 422 272 390 257 q 481 313 454 288 q 525 371 508 339 q 548 439 542 403 q 554 511 554 475 q 548 582 554 546 q 525 650 542 618 q 481 708 508 682 q 422 749 454 733 q 354 770 390 764 q 282 776 318 776 l 175 776 l 175 244 z "},"":{"ha":694,"x_min":96,"x_max":610,"o":"m 96 0 l 96 722 q 100 797 96 760 q 116 868 104 833 q 148 935 128 903 q 197 990 168 967 q 263 1022 226 1013 q 336 1032 299 1032 q 403 1025 369 1032 q 465 1001 436 1018 q 515 957 493 983 q 550 900 536 931 q 570 836 564 869 q 576 769 576 803 q 568 695 576 732 q 542 626 560 658 q 499 565 525 593 q 440 518 474 538 q 513 481 479 506 q 569 423 547 457 q 601 349 592 389 q 610 268 610 308 q 602 193 610 231 q 576 123 594 156 q 528 66 557 90 q 465 26 499 42 q 393 6 431 11 q 318 0 356 0 l 247 0 l 247 51 l 318 51 q 378 56 349 51 q 437 72 408 60 q 488 105 465 85 q 526 151 511 125 q 548 208 542 178 q 554 268 554 238 q 548 328 554 299 q 526 385 542 358 q 488 431 511 411 q 437 464 465 451 q 378 481 408 476 q 318 485 349 485 l 318 536 q 401 556 361 536 q 467 609 440 576 q 508 684 494 642 q 521 768 521 726 q 516 822 521 796 q 501 872 511 847 q 476 918 492 897 q 438 953 460 939 q 389 974 415 968 q 336 981 363 981 q 278 972 307 981 q 226 942 249 963 q 189 896 204 922 q 165 841 174 869 q 154 783 157 813 q 151 722 151 753 l 151 0 l 96 0 z "},"":{"ha":694,"x_min":85,"x_max":599,"o":"m 324 -11 q 235 -1 279 -11 q 155 38 190 10 q 102 108 119 65 q 85 194 85 150 q 94 260 85 228 q 126 319 104 293 q 178 361 149 344 q 240 388 207 378 q 306 401 272 397 q 372 404 339 404 l 543 404 l 543 483 q 539 536 543 510 q 522 587 535 563 q 491 630 510 611 q 449 661 472 649 q 399 678 425 674 q 346 682 372 682 q 276 676 311 682 q 213 651 242 669 q 166 601 183 632 q 149 535 149 569 l 93 535 q 103 594 93 565 q 130 647 113 624 q 173 688 147 671 q 227 716 199 706 q 285 730 256 726 q 346 733 315 733 q 413 728 379 733 q 476 707 446 722 q 531 668 507 692 q 571 615 556 644 q 592 551 586 585 q 599 483 599 517 l 599 0 l 543 0 l 543 125 q 508 66 531 93 q 456 21 486 39 q 392 -4 426 3 q 324 -11 358 -11 m 340 40 q 396 45 368 40 q 448 63 424 50 q 492 97 472 76 q 523 142 511 117 q 539 195 535 168 q 543 250 543 222 l 543 354 l 372 354 q 319 351 346 354 q 268 342 293 349 q 219 324 243 336 q 177 294 196 313 q 149 251 158 276 q 140 199 140 225 q 156 129 140 163 q 202 75 172 96 q 268 47 232 54 q 340 40 304 40 m 356 819 l 203 1011 l 249 1044 l 393 847 l 356 819 z "},"":{"ha":694,"x_min":85,"x_max":599,"o":"m 324 -11 q 235 -1 279 -11 q 155 38 190 10 q 102 108 119 65 q 85 194 85 150 q 94 260 85 228 q 126 319 104 293 q 178 361 149 344 q 240 388 207 378 q 306 401 272 397 q 372 404 339 404 l 543 404 l 543 483 q 539 536 543 510 q 522 587 535 563 q 491 630 510 611 q 449 661 472 649 q 399 678 425 674 q 346 682 372 682 q 276 676 311 682 q 213 651 242 669 q 166 601 183 632 q 149 535 149 569 l 93 535 q 103 594 93 565 q 130 647 113 624 q 173 688 147 671 q 227 716 199 706 q 285 730 256 726 q 346 733 315 733 q 413 728 379 733 q 476 707 446 722 q 531 668 507 692 q 571 615 556 644 q 592 551 586 585 q 599 483 599 517 l 599 0 l 543 0 l 543 125 q 508 66 531 93 q 456 21 486 39 q 392 -4 426 3 q 324 -11 358 -11 m 340 40 q 396 45 368 40 q 448 63 424 50 q 492 97 472 76 q 523 142 511 117 q 539 195 535 168 q 543 250 543 222 l 543 354 l 372 354 q 319 351 346 354 q 268 342 293 349 q 219 324 243 336 q 177 294 196 313 q 149 251 158 276 q 140 199 140 225 q 156 129 140 163 q 202 75 172 96 q 268 47 232 54 q 340 40 304 40 m 339 819 l 301 847 l 446 1044 l 492 1011 l 339 819 z "},"":{"ha":694,"x_min":85,"x_max":599,"o":"m 324 -11 q 235 -1 279 -11 q 155 38 190 10 q 102 108 119 65 q 85 194 85 150 q 94 260 85 228 q 126 319 104 293 q 178 361 149 344 q 240 388 207 378 q 306 401 272 397 q 372 404 339 404 l 543 404 l 543 483 q 539 536 543 510 q 522 587 535 563 q 491 630 510 611 q 449 661 472 649 q 399 678 425 674 q 346 682 372 682 q 276 676 311 682 q 213 651 242 669 q 166 601 183 632 q 149 535 149 569 l 93 535 q 103 594 93 565 q 130 647 113 624 q 173 688 147 671 q 227 716 199 706 q 285 730 256 726 q 346 733 315 733 q 413 728 379 733 q 476 707 446 722 q 531 668 507 692 q 571 615 556 644 q 592 551 586 585 q 599 483 599 517 l 599 0 l 543 0 l 543 125 q 508 66 531 93 q 456 21 486 39 q 392 -4 426 3 q 324 -11 358 -11 m 340 40 q 396 45 368 40 q 448 63 424 50 q 492 97 472 76 q 523 142 511 117 q 539 195 535 168 q 543 250 543 222 l 543 354 l 372 354 q 319 351 346 354 q 268 342 293 349 q 219 324 243 336 q 177 294 196 313 q 149 251 158 276 q 140 199 140 225 q 156 129 140 163 q 202 75 172 96 q 268 47 232 54 q 340 40 304 40 m 215 824 l 174 853 l 311 1043 l 383 1043 l 521 853 l 479 824 l 347 996 l 215 824 z "},"":{"ha":694,"x_min":85,"x_max":599,"o":"m 324 -11 q 235 -1 279 -11 q 155 38 190 10 q 102 108 119 65 q 85 194 85 150 q 94 260 85 228 q 126 319 104 293 q 178 361 149 344 q 240 388 207 378 q 306 401 272 397 q 372 404 339 404 l 543 404 l 543 483 q 539 536 543 510 q 522 587 535 563 q 491 630 510 611 q 449 661 472 649 q 399 678 425 674 q 346 682 372 682 q 276 676 311 682 q 213 651 242 669 q 166 601 183 632 q 149 535 149 569 l 93 535 q 103 594 93 565 q 130 647 113 624 q 173 688 147 671 q 227 716 199 706 q 285 730 256 726 q 346 733 315 733 q 413 728 379 733 q 476 707 446 722 q 531 668 507 692 q 571 615 556 644 q 592 551 586 585 q 599 483 599 517 l 599 0 l 543 0 l 543 125 q 508 66 531 93 q 456 21 486 39 q 392 -4 426 3 q 324 -11 358 -11 m 340 40 q 396 45 368 40 q 448 63 424 50 q 492 97 472 76 q 523 142 511 117 q 539 195 535 168 q 543 250 543 222 l 543 354 l 372 354 q 319 351 346 354 q 268 342 293 349 q 219 324 243 336 q 177 294 196 313 q 149 251 158 276 q 140 199 140 225 q 156 129 140 163 q 202 75 172 96 q 268 47 232 54 q 340 40 304 40 m 429 831 q 410 833 419 831 q 392 842 400 836 q 376 854 383 847 q 362 869 368 861 q 350 884 356 876 q 339 900 344 892 q 328 917 333 908 q 317 935 322 926 q 306 953 311 944 q 294 968 300 961 q 281 983 289 975 q 265 992 272 992 q 256 988 260 992 q 247 981 251 985 q 238 972 243 978 q 230 963 232 965 q 226 956 228 960 q 221 949 224 953 q 215 942 218 946 q 210 933 213 938 q 206 923 208 928 q 200 913 203 918 q 194 902 197 908 q 189 890 192 896 q 183 878 186 885 q 176 864 179 871 q 170 850 174 857 q 164 835 167 843 l 114 854 q 125 878 119 867 q 135 901 131 890 q 145 922 140 913 q 155 941 150 932 q 165 958 160 950 q 174 974 169 967 q 183 987 179 981 q 195 1002 188 993 q 210 1017 203 1011 q 226 1029 217 1024 q 244 1038 235 1035 q 265 1042 254 1042 q 285 1039 275 1042 q 303 1031 294 1036 q 319 1018 311 1025 q 333 1003 326 1011 q 344 988 339 996 q 356 972 350 981 q 367 955 361 964 q 378 937 372 946 q 389 919 383 928 q 400 904 394 911 q 414 889 406 897 q 429 881 422 881 q 439 884 435 881 q 447 891 443 888 q 457 901 451 894 q 465 910 463 907 q 469 916 467 913 q 474 923 471 919 q 479 931 476 926 q 484 940 482 935 q 489 949 486 944 q 494 959 492 954 q 500 970 497 964 q 506 982 503 976 q 512 994 508 988 q 518 1008 515 1001 q 524 1022 521 1015 q 531 1038 528 1029 l 581 1018 q 569 994 575 1006 q 559 971 564 982 q 549 950 554 960 q 540 931 544 940 q 530 914 535 922 q 520 899 525 906 q 511 885 515 892 q 499 870 507 879 q 485 855 492 861 q 469 843 478 849 q 450 834 460 838 q 429 831 440 831 z "},"":{"ha":694,"x_min":85,"x_max":599,"o":"m 324 -11 q 235 -1 279 -11 q 155 38 190 10 q 102 108 119 65 q 85 194 85 150 q 94 260 85 228 q 126 319 104 293 q 178 361 149 344 q 240 388 207 378 q 306 401 272 397 q 372 404 339 404 l 543 404 l 543 483 q 539 536 543 510 q 522 587 535 563 q 491 630 510 611 q 449 661 472 649 q 399 678 425 674 q 346 682 372 682 q 276 676 311 682 q 213 651 242 669 q 166 601 183 632 q 149 535 149 569 l 93 535 q 103 594 93 565 q 130 647 113 624 q 173 688 147 671 q 227 716 199 706 q 285 730 256 726 q 346 733 315 733 q 413 728 379 733 q 476 707 446 722 q 531 668 507 692 q 571 615 556 644 q 592 551 586 585 q 599 483 599 517 l 599 0 l 543 0 l 543 125 q 508 66 531 93 q 456 21 486 39 q 392 -4 426 3 q 324 -11 358 -11 m 340 40 q 396 45 368 40 q 448 63 424 50 q 492 97 472 76 q 523 142 511 117 q 539 195 535 168 q 543 250 543 222 l 543 354 l 372 354 q 319 351 346 354 q 268 342 293 349 q 219 324 243 336 q 177 294 196 313 q 149 251 158 276 q 140 199 140 225 q 156 129 140 163 q 202 75 172 96 q 268 47 232 54 q 340 40 304 40 m 486 876 q 465 879 475 876 q 446 890 454 882 q 435 909 438 899 q 432 931 432 919 q 435 952 432 942 q 446 971 438 963 q 465 982 454 979 q 486 985 475 985 q 508 982 497 985 q 526 971 518 979 q 538 952 535 963 q 540 931 540 942 q 538 909 540 919 q 526 890 535 899 q 508 879 518 882 q 486 876 497 876 m 208 876 q 187 879 197 876 q 168 890 176 882 q 157 909 160 899 q 154 931 154 919 q 157 952 154 942 q 168 971 160 963 q 187 982 176 979 q 208 985 197 985 q 230 982 219 985 q 249 971 240 979 q 260 952 257 963 q 263 931 263 942 q 260 909 263 919 q 249 890 257 899 q 230 879 240 882 q 208 876 219 876 z "},"":{"ha":694,"x_min":85,"x_max":599,"o":"m 324 -11 q 235 -1 279 -11 q 155 38 190 10 q 102 108 119 65 q 85 194 85 150 q 94 260 85 228 q 126 319 104 293 q 178 361 149 344 q 240 388 207 378 q 306 401 272 397 q 372 404 339 404 l 543 404 l 543 483 q 539 536 543 510 q 522 587 535 563 q 491 630 510 611 q 449 661 472 649 q 399 678 425 674 q 346 682 372 682 q 276 676 311 682 q 213 651 242 669 q 166 601 183 632 q 149 535 149 569 l 93 535 q 103 594 93 565 q 130 647 113 624 q 173 688 147 671 q 227 716 199 706 q 285 730 256 726 q 346 733 315 733 q 413 728 379 733 q 476 707 446 722 q 531 668 507 692 q 571 615 556 644 q 592 551 586 585 q 599 483 599 517 l 599 0 l 543 0 l 543 125 q 508 66 531 93 q 456 21 486 39 q 392 -4 426 3 q 324 -11 358 -11 m 340 40 q 396 45 368 40 q 448 63 424 50 q 492 97 472 76 q 523 142 511 117 q 539 195 535 168 q 543 250 543 222 l 543 354 l 372 354 q 319 351 346 354 q 268 342 293 349 q 219 324 243 336 q 177 294 196 313 q 149 251 158 276 q 140 199 140 225 q 156 129 140 163 q 202 75 172 96 q 268 47 232 54 q 340 40 304 40 m 347 821 q 303 827 325 821 q 266 849 282 833 q 244 887 250 865 q 238 931 238 908 q 244 974 238 953 q 266 1012 250 996 q 303 1034 282 1028 q 347 1040 325 1040 q 391 1034 369 1040 q 428 1012 413 1028 q 451 974 444 996 q 457 931 457 953 q 451 887 457 908 q 428 849 444 865 q 391 827 413 833 q 347 821 369 821 m 347 864 q 374 868 361 864 q 397 881 388 872 q 410 903 406 890 q 414 931 414 917 q 410 958 414 944 q 397 980 406 971 q 374 993 388 989 q 347 997 361 997 q 320 993 333 997 q 298 980 307 989 q 285 958 289 971 q 281 931 281 944 q 285 903 281 917 q 298 881 289 890 q 320 868 307 872 q 347 864 333 864 z "},"":{"ha":694,"x_min":79,"x_max":615,"o":"m 226 -11 q 180 -3 203 -11 q 139 20 157 4 q 110 58 121 36 q 92 102 99 79 q 82 149 85 125 q 79 196 79 172 q 83 247 79 222 q 94 296 86 272 q 117 341 103 319 q 151 377 131 363 q 197 398 172 392 q 247 404 222 404 l 319 404 l 319 563 q 316 605 319 583 q 302 644 313 626 q 272 673 292 663 q 232 683 253 683 q 201 677 215 683 q 176 659 186 671 q 160 633 167 647 q 149 603 153 618 q 144 573 146 589 q 142 542 142 557 l 142 535 l 88 535 l 88 544 q 91 589 88 567 q 101 632 94 611 q 120 672 108 653 q 149 706 132 692 q 188 727 165 721 q 232 733 210 733 q 267 730 249 733 q 300 718 285 726 q 328 697 315 710 q 350 669 342 685 q 372 697 360 683 q 400 718 385 710 q 433 730 415 726 q 468 733 450 733 q 513 726 490 733 q 554 705 536 719 q 584 670 572 690 q 603 628 596 650 q 613 583 610 606 q 615 536 615 560 l 615 336 l 375 336 l 375 186 q 376 153 375 169 q 381 122 376 138 q 391 91 385 106 q 408 64 397 76 q 435 45 419 51 q 467 39 450 39 q 497 45 482 39 q 522 63 511 51 q 540 88 533 74 q 550 118 546 103 q 556 149 554 133 q 558 181 558 165 l 558 188 l 613 188 l 613 178 q 609 133 613 156 q 599 90 606 111 q 579 49 592 68 q 549 16 567 31 q 510 -5 532 1 q 467 -11 489 -11 q 429 -7 447 -11 q 395 7 411 -3 q 367 31 379 17 q 346 61 354 44 q 325 31 338 44 q 297 7 313 17 q 264 -7 282 -3 q 226 -11 246 -11 m 375 386 l 561 386 l 561 536 q 560 569 561 553 q 554 601 558 585 q 543 632 550 617 q 525 659 536 647 q 499 677 514 671 q 468 683 483 683 q 436 677 451 683 q 410 659 421 671 q 392 632 399 647 q 381 601 385 617 q 376 569 376 585 q 375 536 375 553 l 375 386 m 226 39 q 260 47 244 39 q 287 69 276 56 q 303 99 297 82 q 314 133 310 115 q 319 167 318 150 q 319 203 319 185 l 319 354 l 247 354 q 195 341 219 354 q 157 304 171 328 q 138 253 143 281 q 133 199 133 226 q 135 165 133 182 q 141 131 138 147 q 151 98 144 114 q 167 68 157 82 q 194 47 178 54 q 226 39 210 39 z "},"":{"ha":694,"x_min":85,"x_max":601,"o":"m 343 -11 q 270 -3 307 -11 q 202 24 233 4 q 147 72 171 43 q 110 134 124 100 q 90 205 96 168 q 85 278 85 242 l 85 444 q 90 517 85 481 q 110 588 96 554 q 147 651 124 622 q 202 699 171 679 q 270 726 233 718 q 343 733 307 733 q 410 728 376 733 q 474 708 443 722 q 528 670 504 693 q 569 618 553 647 q 594 556 586 589 q 601 489 601 524 l 601 486 l 546 486 l 546 489 q 532 566 546 528 q 490 632 518 604 q 422 671 461 660 q 343 682 383 682 q 285 676 314 682 q 231 653 256 669 q 188 613 206 636 q 159 561 169 589 q 144 503 149 533 q 140 444 140 474 l 140 278 q 144 219 140 249 q 159 161 149 189 q 188 110 169 133 q 231 69 206 86 q 285 47 256 53 q 343 40 314 40 q 422 51 383 40 q 490 90 461 63 q 532 156 518 118 q 546 233 546 194 l 546 236 l 601 236 l 601 233 q 594 166 601 199 q 569 104 586 133 q 528 52 553 75 q 474 15 504 29 q 410 -6 443 0 q 343 -11 376 -11 m 208 -306 l 208 -256 l 347 -256 q 381 -253 364 -256 q 413 -242 399 -250 q 437 -219 428 -233 q 446 -186 446 -204 q 437 -154 446 -169 q 413 -131 428 -139 q 381 -119 399 -122 q 347 -117 364 -117 l 321 -117 l 321 40 l 374 40 l 374 -72 q 420 -83 397 -75 q 461 -106 443 -90 q 488 -143 479 -121 q 497 -189 497 -165 q 485 -240 497 -215 q 450 -280 472 -265 q 401 -300 428 -294 q 347 -306 374 -306 l 208 -306 z "},"":{"ha":694,"x_min":85,"x_max":610,"o":"m 347 -11 q 274 -3 311 -11 q 206 23 238 4 q 149 70 174 42 q 110 133 125 99 q 90 203 96 167 q 85 278 85 240 l 85 444 q 90 519 85 482 q 110 590 96 556 q 149 652 125 624 q 206 699 174 681 q 274 726 238 718 q 347 733 310 733 q 421 726 385 733 q 489 699 457 718 q 545 652 521 681 q 584 590 569 624 q 604 519 599 556 q 610 444 610 482 l 610 336 l 140 336 l 140 278 q 144 218 140 247 q 160 161 149 189 q 190 109 171 133 q 233 69 208 85 q 288 47 258 53 q 347 40 318 40 q 418 47 383 40 q 483 72 453 53 q 531 122 513 90 q 551 188 550 153 l 607 188 q 596 128 606 157 q 567 75 586 99 q 523 34 549 51 q 468 6 497 17 q 408 -8 439 -4 q 347 -11 378 -11 m 140 386 l 554 386 l 554 444 q 550 504 554 475 q 535 561 546 533 q 505 613 524 589 q 461 653 486 638 q 407 676 436 669 q 347 682 378 682 q 288 676 317 682 q 233 653 258 669 q 190 613 208 638 q 160 561 171 589 q 144 504 149 533 q 140 444 140 475 l 140 386 m 356 819 l 203 1011 l 249 1044 l 393 847 l 356 819 z "},"":{"ha":694,"x_min":85,"x_max":610,"o":"m 347 -11 q 274 -3 311 -11 q 206 23 238 4 q 149 70 174 42 q 110 133 125 99 q 90 203 96 167 q 85 278 85 240 l 85 444 q 90 519 85 482 q 110 590 96 556 q 149 652 125 624 q 206 699 174 681 q 274 726 238 718 q 347 733 310 733 q 421 726 385 733 q 489 699 457 718 q 545 652 521 681 q 584 590 569 624 q 604 519 599 556 q 610 444 610 482 l 610 336 l 140 336 l 140 278 q 144 218 140 247 q 160 161 149 189 q 190 109 171 133 q 233 69 208 85 q 288 47 258 53 q 347 40 318 40 q 418 47 383 40 q 483 72 453 53 q 531 122 513 90 q 551 188 550 153 l 607 188 q 596 128 606 157 q 567 75 586 99 q 523 34 549 51 q 468 6 497 17 q 408 -8 439 -4 q 347 -11 378 -11 m 140 386 l 554 386 l 554 444 q 550 504 554 475 q 535 561 546 533 q 505 613 524 589 q 461 653 486 638 q 407 676 436 669 q 347 682 378 682 q 288 676 317 682 q 233 653 258 669 q 190 613 208 638 q 160 561 171 589 q 144 504 149 533 q 140 444 140 475 l 140 386 m 339 819 l 301 847 l 446 1044 l 492 1011 l 339 819 z "},"":{"ha":694,"x_min":85,"x_max":610,"o":"m 347 -11 q 274 -3 311 -11 q 206 23 238 4 q 149 70 174 42 q 110 133 125 99 q 90 203 96 167 q 85 278 85 240 l 85 444 q 90 519 85 482 q 110 590 96 556 q 149 652 125 624 q 206 699 174 681 q 274 726 238 718 q 347 733 310 733 q 421 726 385 733 q 489 699 457 718 q 545 652 521 681 q 584 590 569 624 q 604 519 599 556 q 610 444 610 482 l 610 336 l 140 336 l 140 278 q 144 218 140 247 q 160 161 149 189 q 190 109 171 133 q 233 69 208 85 q 288 47 258 53 q 347 40 318 40 q 418 47 383 40 q 483 72 453 53 q 531 122 513 90 q 551 188 550 153 l 607 188 q 596 128 606 157 q 567 75 586 99 q 523 34 549 51 q 468 6 497 17 q 408 -8 439 -4 q 347 -11 378 -11 m 140 386 l 554 386 l 554 444 q 550 504 554 475 q 535 561 546 533 q 505 613 524 589 q 461 653 486 638 q 407 676 436 669 q 347 682 378 682 q 288 676 317 682 q 233 653 258 669 q 190 613 208 638 q 160 561 171 589 q 144 504 149 533 q 140 444 140 475 l 140 386 m 215 824 l 174 853 l 311 1043 l 383 1043 l 521 853 l 479 824 l 347 996 l 215 824 z "},"":{"ha":694,"x_min":85,"x_max":610,"o":"m 347 -11 q 274 -3 311 -11 q 206 23 238 4 q 149 70 174 42 q 110 133 125 99 q 90 203 96 167 q 85 278 85 240 l 85 444 q 90 519 85 482 q 110 590 96 556 q 149 652 125 624 q 206 699 174 681 q 274 726 238 718 q 347 733 310 733 q 421 726 385 733 q 489 699 457 718 q 545 652 521 681 q 584 590 569 624 q 604 519 599 556 q 610 444 610 482 l 610 336 l 140 336 l 140 278 q 144 218 140 247 q 160 161 149 189 q 190 109 171 133 q 233 69 208 85 q 288 47 258 53 q 347 40 318 40 q 418 47 383 40 q 483 72 453 53 q 531 122 513 90 q 551 188 550 153 l 607 188 q 596 128 606 157 q 567 75 586 99 q 523 34 549 51 q 468 6 497 17 q 408 -8 439 -4 q 347 -11 378 -11 m 140 386 l 554 386 l 554 444 q 550 504 554 475 q 535 561 546 533 q 505 613 524 589 q 461 653 486 638 q 407 676 436 669 q 347 682 378 682 q 288 676 317 682 q 233 653 258 669 q 190 613 208 638 q 160 561 171 589 q 144 504 149 533 q 140 444 140 475 l 140 386 m 486 876 q 465 879 475 876 q 446 890 454 882 q 435 909 438 899 q 432 931 432 919 q 435 952 432 942 q 446 971 438 963 q 465 982 454 979 q 486 985 475 985 q 508 982 497 985 q 526 971 518 979 q 538 952 535 963 q 540 931 540 942 q 538 909 540 919 q 526 890 535 899 q 508 879 518 882 q 486 876 497 876 m 208 876 q 187 879 197 876 q 168 890 176 882 q 157 909 160 899 q 154 931 154 919 q 157 952 154 942 q 168 971 160 963 q 187 982 176 979 q 208 985 197 985 q 230 982 219 985 q 249 971 240 979 q 260 952 257 963 q 263 931 263 942 q 260 909 263 919 q 249 890 257 899 q 230 879 240 882 q 208 876 219 876 z "},"":{"ha":694,"x_min":104,"x_max":590,"o":"m 590 0 l 104 0 l 104 51 l 329 51 l 329 671 l 124 671 l 124 722 l 385 722 l 385 51 l 590 51 l 590 0 m 363 819 l 210 1011 l 256 1044 l 400 847 l 363 819 z "},"":{"ha":694,"x_min":104,"x_max":590,"o":"m 590 0 l 104 0 l 104 51 l 329 51 l 329 671 l 124 671 l 124 722 l 385 722 l 385 51 l 590 51 l 590 0 m 346 819 l 308 847 l 453 1044 l 499 1011 l 346 819 z "},"":{"ha":694,"x_min":104,"x_max":590,"o":"m 590 0 l 104 0 l 104 51 l 329 51 l 329 671 l 124 671 l 124 722 l 385 722 l 385 51 l 590 51 l 590 0 m 222 824 l 181 853 l 318 1043 l 390 1043 l 528 853 l 486 824 l 354 996 l 222 824 z "},"":{"ha":694,"x_min":104,"x_max":590,"o":"m 590 0 l 104 0 l 104 51 l 329 51 l 329 671 l 124 671 l 124 722 l 385 722 l 385 51 l 590 51 l 590 0 m 486 876 q 465 879 475 876 q 446 890 454 882 q 435 909 438 899 q 432 931 432 919 q 435 952 432 942 q 446 971 438 963 q 465 982 454 979 q 486 985 475 985 q 508 982 497 985 q 526 971 518 979 q 538 952 535 963 q 540 931 540 942 q 538 909 540 919 q 526 890 535 899 q 508 879 518 882 q 486 876 497 876 m 208 876 q 187 879 197 876 q 168 890 176 882 q 157 909 160 899 q 154 931 154 919 q 157 952 154 942 q 168 971 160 963 q 187 982 176 979 q 208 985 197 985 q 230 982 219 985 q 249 971 240 979 q 260 952 257 963 q 263 931 263 942 q 260 909 263 919 q 249 890 257 899 q 230 879 240 882 q 208 876 219 876 z "},"":{"ha":694,"x_min":85,"x_max":610,"o":"m 347 -11 q 269 -1 308 -11 q 199 31 231 8 q 144 85 167 53 q 108 153 121 117 q 90 229 94 190 q 85 307 85 268 q 89 383 85 346 q 105 456 93 421 q 138 524 117 492 q 188 580 158 557 q 255 613 218 603 q 331 624 292 624 q 401 615 365 624 q 465 585 436 606 q 515 534 494 564 q 550 469 536 504 q 513 624 540 549 q 440 764 486 699 l 153 683 l 139 731 l 408 806 q 286 910 356 867 q 139 971 217 953 l 151 1021 q 241 992 197 1010 q 325 948 285 974 q 401 890 365 922 q 465 822 436 858 l 567 850 l 581 803 l 496 779 q 551 679 528 732 q 588 572 574 626 q 606 459 601 517 q 610 344 610 401 l 610 307 q 605 228 610 267 q 586 153 600 190 q 549 85 572 117 q 494 31 526 53 q 424 -1 463 8 q 347 -11 386 -11 m 347 40 q 410 49 379 40 q 467 76 442 57 q 509 123 492 96 q 537 181 526 150 q 551 243 547 211 q 554 306 554 275 q 551 369 554 338 q 537 432 547 401 q 509 490 526 463 q 467 536 492 517 q 410 564 442 556 q 347 572 379 572 q 284 564 315 572 q 228 536 253 556 q 185 490 203 517 q 158 432 168 463 q 144 369 147 401 q 140 307 140 338 q 144 243 140 275 q 158 181 147 211 q 185 123 168 150 q 228 76 203 96 q 284 49 253 57 q 347 40 315 40 z "},"":{"ha":694,"x_min":96,"x_max":599,"o":"m 96 0 l 96 722 l 151 722 l 151 583 q 183 646 163 617 q 233 695 204 675 q 295 724 261 715 q 364 733 329 733 q 435 724 400 733 q 498 695 469 715 q 547 645 526 675 q 578 583 567 615 q 594 515 590 550 q 599 444 599 479 l 599 0 l 543 0 l 543 444 q 540 503 543 474 q 526 559 536 532 q 499 610 515 586 q 458 651 482 635 q 405 675 433 668 q 347 682 376 682 q 290 675 318 682 q 237 651 261 668 q 196 610 213 635 q 169 559 179 586 q 155 503 158 532 q 151 444 151 474 l 151 0 l 96 0 m 429 831 q 410 833 419 831 q 392 842 400 836 q 376 854 383 847 q 362 869 368 861 q 350 884 356 876 q 339 900 344 892 q 328 917 333 908 q 317 935 322 926 q 306 953 311 944 q 294 968 300 961 q 281 983 289 975 q 265 992 272 992 q 256 988 260 992 q 247 981 251 985 q 238 972 243 978 q 230 963 232 965 q 226 956 228 960 q 221 949 224 953 q 215 942 218 946 q 210 933 213 938 q 206 923 208 928 q 200 913 203 918 q 194 902 197 908 q 189 890 192 896 q 183 878 186 885 q 176 864 179 871 q 170 850 174 857 q 164 835 167 843 l 114 854 q 125 878 119 867 q 135 901 131 890 q 145 922 140 913 q 155 941 150 932 q 165 958 160 950 q 174 974 169 967 q 183 987 179 981 q 195 1002 188 993 q 210 1017 203 1011 q 226 1029 217 1024 q 244 1038 235 1035 q 265 1042 254 1042 q 285 1039 275 1042 q 303 1031 294 1036 q 319 1018 311 1025 q 333 1003 326 1011 q 344 988 339 996 q 356 972 350 981 q 367 955 361 964 q 378 937 372 946 q 389 919 383 928 q 400 904 394 911 q 414 889 406 897 q 429 881 422 881 q 439 884 435 881 q 447 891 443 888 q 457 901 451 894 q 465 910 463 907 q 469 916 467 913 q 474 923 471 919 q 479 931 476 926 q 484 940 482 935 q 489 949 486 944 q 494 959 492 954 q 500 970 497 964 q 506 982 503 976 q 512 994 508 988 q 518 1008 515 1001 q 524 1022 521 1015 q 531 1038 528 1029 l 581 1018 q 569 994 575 1006 q 559 971 564 982 q 549 950 554 960 q 540 931 544 940 q 530 914 535 922 q 520 899 525 906 q 511 885 515 892 q 499 870 507 879 q 485 855 492 861 q 469 843 478 849 q 450 834 460 838 q 429 831 440 831 z "},"":{"ha":694,"x_min":85,"x_max":610,"o":"m 347 -11 q 274 -3 310 -11 q 206 23 238 4 q 149 70 174 42 q 110 133 125 99 q 90 203 96 167 q 85 278 85 240 l 85 444 q 90 519 85 482 q 110 590 96 556 q 149 652 125 624 q 206 699 174 681 q 274 726 238 718 q 347 733 310 733 q 421 726 385 733 q 489 699 457 718 q 545 652 521 681 q 584 590 569 624 q 604 519 599 556 q 610 444 610 482 l 610 278 q 604 203 610 240 q 584 133 599 167 q 545 70 569 99 q 489 23 521 42 q 421 -3 457 4 q 347 -11 385 -11 m 347 40 q 407 47 378 40 q 461 69 436 53 q 505 109 486 85 q 535 161 524 133 q 550 218 546 189 q 554 278 554 247 l 554 444 q 550 504 554 475 q 535 561 546 533 q 505 613 524 589 q 461 653 486 638 q 407 676 436 669 q 347 682 378 682 q 288 676 317 682 q 233 653 258 669 q 190 613 208 638 q 160 561 171 589 q 144 504 149 533 q 140 444 140 475 l 140 278 q 144 218 140 247 q 160 161 149 189 q 190 109 171 133 q 233 69 208 85 q 288 47 258 53 q 347 40 317 40 m 356 819 l 203 1011 l 249 1044 l 393 847 l 356 819 z "},"":{"ha":694,"x_min":85,"x_max":610,"o":"m 347 -11 q 274 -3 310 -11 q 206 23 238 4 q 149 70 174 42 q 110 133 125 99 q 90 203 96 167 q 85 278 85 240 l 85 444 q 90 519 85 482 q 110 590 96 556 q 149 652 125 624 q 206 699 174 681 q 274 726 238 718 q 347 733 310 733 q 421 726 385 733 q 489 699 457 718 q 545 652 521 681 q 584 590 569 624 q 604 519 599 556 q 610 444 610 482 l 610 278 q 604 203 610 240 q 584 133 599 167 q 545 70 569 99 q 489 23 521 42 q 421 -3 457 4 q 347 -11 385 -11 m 347 40 q 407 47 378 40 q 461 69 436 53 q 505 109 486 85 q 535 161 524 133 q 550 218 546 189 q 554 278 554 247 l 554 444 q 550 504 554 475 q 535 561 546 533 q 505 613 524 589 q 461 653 486 638 q 407 676 436 669 q 347 682 378 682 q 288 676 317 682 q 233 653 258 669 q 190 613 208 638 q 160 561 171 589 q 144 504 149 533 q 140 444 140 475 l 140 278 q 144 218 140 247 q 160 161 149 189 q 190 109 171 133 q 233 69 208 85 q 288 47 258 53 q 347 40 317 40 m 339 819 l 301 847 l 446 1044 l 492 1011 l 339 819 z "},"":{"ha":694,"x_min":85,"x_max":610,"o":"m 347 -11 q 274 -3 310 -11 q 206 23 238 4 q 149 70 174 42 q 110 133 125 99 q 90 203 96 167 q 85 278 85 240 l 85 444 q 90 519 85 482 q 110 590 96 556 q 149 652 125 624 q 206 699 174 681 q 274 726 238 718 q 347 733 310 733 q 421 726 385 733 q 489 699 457 718 q 545 652 521 681 q 584 590 569 624 q 604 519 599 556 q 610 444 610 482 l 610 278 q 604 203 610 240 q 584 133 599 167 q 545 70 569 99 q 489 23 521 42 q 421 -3 457 4 q 347 -11 385 -11 m 347 40 q 407 47 378 40 q 461 69 436 53 q 505 109 486 85 q 535 161 524 133 q 550 218 546 189 q 554 278 554 247 l 554 444 q 550 504 554 475 q 535 561 546 533 q 505 613 524 589 q 461 653 486 638 q 407 676 436 669 q 347 682 378 682 q 288 676 317 682 q 233 653 258 669 q 190 613 208 638 q 160 561 171 589 q 144 504 149 533 q 140 444 140 475 l 140 278 q 144 218 140 247 q 160 161 149 189 q 190 109 171 133 q 233 69 208 85 q 288 47 258 53 q 347 40 317 40 m 215 824 l 174 853 l 311 1043 l 383 1043 l 521 853 l 479 824 l 347 996 l 215 824 z "},"":{"ha":694,"x_min":85,"x_max":610,"o":"m 347 -11 q 274 -3 310 -11 q 206 23 238 4 q 149 70 174 42 q 110 133 125 99 q 90 203 96 167 q 85 278 85 240 l 85 444 q 90 519 85 482 q 110 590 96 556 q 149 652 125 624 q 206 699 174 681 q 274 726 238 718 q 347 733 310 733 q 421 726 385 733 q 489 699 457 718 q 545 652 521 681 q 584 590 569 624 q 604 519 599 556 q 610 444 610 482 l 610 278 q 604 203 610 240 q 584 133 599 167 q 545 70 569 99 q 489 23 521 42 q 421 -3 457 4 q 347 -11 385 -11 m 347 40 q 407 47 378 40 q 461 69 436 53 q 505 109 486 85 q 535 161 524 133 q 550 218 546 189 q 554 278 554 247 l 554 444 q 550 504 554 475 q 535 561 546 533 q 505 613 524 589 q 461 653 486 638 q 407 676 436 669 q 347 682 378 682 q 288 676 317 682 q 233 653 258 669 q 190 613 208 638 q 160 561 171 589 q 144 504 149 533 q 140 444 140 475 l 140 278 q 144 218 140 247 q 160 161 149 189 q 190 109 171 133 q 233 69 208 85 q 288 47 258 53 q 347 40 317 40 m 429 831 q 410 833 419 831 q 392 842 400 836 q 376 854 383 847 q 362 869 368 861 q 350 884 356 876 q 339 900 344 892 q 328 917 333 908 q 317 935 322 926 q 306 953 311 944 q 294 968 300 961 q 281 983 289 975 q 265 992 272 992 q 256 988 260 992 q 247 981 251 985 q 238 972 243 978 q 230 963 232 965 q 226 956 228 960 q 221 949 224 953 q 215 942 218 946 q 210 933 213 938 q 206 923 208 928 q 200 913 203 918 q 194 902 197 908 q 189 890 192 896 q 183 878 186 885 q 176 864 179 871 q 170 850 174 857 q 164 835 167 843 l 114 854 q 125 878 119 867 q 135 901 131 890 q 145 922 140 913 q 155 941 150 932 q 165 958 160 950 q 174 974 169 967 q 183 987 179 981 q 195 1002 188 993 q 210 1017 203 1011 q 226 1029 217 1024 q 244 1038 235 1035 q 265 1042 254 1042 q 285 1039 275 1042 q 303 1031 294 1036 q 319 1018 311 1025 q 333 1003 326 1011 q 344 988 339 996 q 356 972 350 981 q 367 955 361 964 q 378 937 372 946 q 389 919 383 928 q 400 904 394 911 q 414 889 406 897 q 429 881 422 881 q 439 884 435 881 q 447 891 443 888 q 457 901 451 894 q 465 910 463 907 q 469 916 467 913 q 474 923 471 919 q 479 931 476 926 q 484 940 482 935 q 489 949 486 944 q 494 959 492 954 q 500 970 497 964 q 506 982 503 976 q 512 994 508 988 q 518 1008 515 1001 q 524 1022 521 1015 q 531 1038 528 1029 l 581 1018 q 569 994 575 1006 q 559 971 564 982 q 549 950 554 960 q 540 931 544 940 q 530 914 535 922 q 520 899 525 906 q 511 885 515 892 q 499 870 507 879 q 485 855 492 861 q 469 843 478 849 q 450 834 460 838 q 429 831 440 831 z "},"":{"ha":694,"x_min":85,"x_max":610,"o":"m 347 -11 q 274 -3 310 -11 q 206 23 238 4 q 149 70 174 42 q 110 133 125 99 q 90 203 96 167 q 85 278 85 240 l 85 444 q 90 519 85 482 q 110 590 96 556 q 149 652 125 624 q 206 699 174 681 q 274 726 238 718 q 347 733 310 733 q 421 726 385 733 q 489 699 457 718 q 545 652 521 681 q 584 590 569 624 q 604 519 599 556 q 610 444 610 482 l 610 278 q 604 203 610 240 q 584 133 599 167 q 545 70 569 99 q 489 23 521 42 q 421 -3 457 4 q 347 -11 385 -11 m 347 40 q 407 47 378 40 q 461 69 436 53 q 505 109 486 85 q 535 161 524 133 q 550 218 546 189 q 554 278 554 247 l 554 444 q 550 504 554 475 q 535 561 546 533 q 505 613 524 589 q 461 653 486 638 q 407 676 436 669 q 347 682 378 682 q 288 676 317 682 q 233 653 258 669 q 190 613 208 638 q 160 561 171 589 q 144 504 149 533 q 140 444 140 475 l 140 278 q 144 218 140 247 q 160 161 149 189 q 190 109 171 133 q 233 69 208 85 q 288 47 258 53 q 347 40 317 40 m 486 876 q 465 879 475 876 q 446 890 454 882 q 435 909 438 899 q 432 931 432 919 q 435 952 432 942 q 446 971 438 963 q 465 982 454 979 q 486 985 475 985 q 508 982 497 985 q 526 971 518 979 q 538 952 535 963 q 540 931 540 942 q 538 909 540 919 q 526 890 535 899 q 508 879 518 882 q 486 876 497 876 m 208 876 q 187 879 197 876 q 168 890 176 882 q 157 909 160 899 q 154 931 154 919 q 157 952 154 942 q 168 971 160 963 q 187 982 176 979 q 208 985 197 985 q 230 982 219 985 q 249 971 240 979 q 260 952 257 963 q 263 931 263 942 q 260 909 263 919 q 249 890 257 899 q 230 879 240 882 q 208 876 219 876 z "},"":{"ha":694,"x_min":96,"x_max":599,"o":"m 347 658 q 322 663 335 658 q 299 676 308 667 q 286 698 290 685 q 282 724 282 711 q 286 749 282 736 q 299 772 290 763 q 322 785 308 781 q 347 789 335 789 q 373 785 360 789 q 395 772 386 781 q 408 749 404 763 q 413 724 413 736 q 408 698 413 711 q 395 676 404 685 q 373 663 386 667 q 347 658 360 658 m 96 447 l 96 497 l 599 497 l 599 447 l 96 447 m 347 156 q 322 160 335 156 q 299 173 308 164 q 286 195 290 182 q 282 221 282 208 q 286 247 282 233 q 299 269 290 260 q 322 282 308 278 q 347 286 335 286 q 373 282 360 286 q 395 269 386 278 q 408 247 404 260 q 413 221 413 233 q 408 195 413 208 q 395 173 404 182 q 373 160 386 164 q 347 156 360 156 z "},"":{"ha":694,"x_min":85,"x_max":610,"o":"m 132 -49 l 86 -24 l 146 75 q 116 120 128 96 q 97 171 104 144 q 87 224 89 197 q 85 278 85 251 l 85 444 q 90 519 85 482 q 110 590 96 556 q 149 652 125 624 q 206 699 174 681 q 274 726 238 718 q 347 733 310 733 q 433 722 390 733 q 511 685 476 711 l 563 771 l 608 746 l 549 647 q 578 602 567 626 q 598 551 590 578 q 608 498 606 525 q 610 444 610 471 l 610 278 q 604 203 610 240 q 584 133 599 167 q 545 70 569 99 q 489 23 521 42 q 421 -3 457 4 q 347 -11 385 -11 q 261 0 304 -11 q 183 38 218 11 l 132 -49 m 176 126 l 482 638 q 419 672 456 661 q 347 682 383 682 q 288 676 317 682 q 233 653 258 669 q 190 613 208 638 q 160 561 171 589 q 144 504 149 533 q 140 444 140 475 l 140 278 q 142 238 140 258 q 147 199 143 218 q 159 162 151 181 q 176 126 167 143 m 347 40 q 407 47 378 40 q 461 69 436 53 q 505 109 486 85 q 535 161 524 133 q 550 218 546 189 q 554 278 554 247 l 554 444 q 553 484 554 464 q 547 523 551 504 q 535 560 543 542 q 518 596 528 579 l 213 85 q 275 51 239 61 q 347 40 311 40 z "},"":{"ha":694,"x_min":96,"x_max":599,"o":"m 331 -11 q 260 -2 294 -11 q 197 27 225 7 q 148 77 168 47 q 116 140 128 107 q 100 208 104 172 q 96 278 96 243 l 96 722 l 151 722 l 151 278 q 155 219 151 249 q 169 163 158 190 q 196 112 179 136 q 237 71 213 88 q 290 47 261 54 q 347 40 318 40 q 405 47 376 40 q 458 71 433 54 q 499 112 482 88 q 526 163 515 136 q 540 219 536 190 q 543 278 543 249 l 543 722 l 599 722 l 599 0 l 543 0 l 543 139 q 511 76 532 106 q 462 27 490 47 q 399 -2 433 7 q 331 -11 365 -11 m 356 819 l 203 1011 l 249 1044 l 393 847 l 356 819 z "},"":{"ha":694,"x_min":96,"x_max":599,"o":"m 331 -11 q 260 -2 294 -11 q 197 27 225 7 q 148 77 168 47 q 116 140 128 107 q 100 208 104 172 q 96 278 96 243 l 96 722 l 151 722 l 151 278 q 155 219 151 249 q 169 163 158 190 q 196 112 179 136 q 237 71 213 88 q 290 47 261 54 q 347 40 318 40 q 405 47 376 40 q 458 71 433 54 q 499 112 482 88 q 526 163 515 136 q 540 219 536 190 q 543 278 543 249 l 543 722 l 599 722 l 599 0 l 543 0 l 543 139 q 511 76 532 106 q 462 27 490 47 q 399 -2 433 7 q 331 -11 365 -11 m 339 819 l 301 847 l 446 1044 l 492 1011 l 339 819 z "},"":{"ha":694,"x_min":96,"x_max":599,"o":"m 331 -11 q 260 -2 294 -11 q 197 27 225 7 q 148 77 168 47 q 116 140 128 107 q 100 208 104 172 q 96 278 96 243 l 96 722 l 151 722 l 151 278 q 155 219 151 249 q 169 163 158 190 q 196 112 179 136 q 237 71 213 88 q 290 47 261 54 q 347 40 318 40 q 405 47 376 40 q 458 71 433 54 q 499 112 482 88 q 526 163 515 136 q 540 219 536 190 q 543 278 543 249 l 543 722 l 599 722 l 599 0 l 543 0 l 543 139 q 511 76 532 106 q 462 27 490 47 q 399 -2 433 7 q 331 -11 365 -11 m 215 824 l 174 853 l 311 1043 l 383 1043 l 521 853 l 479 824 l 347 996 l 215 824 z "},"":{"ha":694,"x_min":96,"x_max":599,"o":"m 331 -11 q 260 -2 294 -11 q 197 27 225 7 q 148 77 168 47 q 116 140 128 107 q 100 208 104 172 q 96 278 96 243 l 96 722 l 151 722 l 151 278 q 155 219 151 249 q 169 163 158 190 q 196 112 179 136 q 237 71 213 88 q 290 47 261 54 q 347 40 318 40 q 405 47 376 40 q 458 71 433 54 q 499 112 482 88 q 526 163 515 136 q 540 219 536 190 q 543 278 543 249 l 543 722 l 599 722 l 599 0 l 543 0 l 543 139 q 511 76 532 106 q 462 27 490 47 q 399 -2 433 7 q 331 -11 365 -11 m 486 876 q 465 879 475 876 q 446 890 454 882 q 435 909 438 899 q 432 931 432 919 q 435 952 432 942 q 446 971 438 963 q 465 982 454 979 q 486 985 475 985 q 508 982 497 985 q 526 971 518 979 q 538 952 535 963 q 540 931 540 942 q 538 909 540 919 q 526 890 535 899 q 508 879 518 882 q 486 876 497 876 m 208 876 q 187 879 197 876 q 168 890 176 882 q 157 909 160 899 q 154 931 154 919 q 157 952 154 942 q 168 971 160 963 q 187 982 176 979 q 208 985 197 985 q 230 982 219 985 q 249 971 240 979 q 260 952 257 963 q 263 931 263 942 q 260 909 263 919 q 249 890 257 899 q 230 879 240 882 q 208 876 219 876 z "},"":{"ha":694,"x_min":76,"x_max":618,"o":"m 238 -299 q 257 -237 247 -268 q 276 -175 267 -206 l 318 -47 l 76 722 l 135 722 l 346 36 l 560 722 l 618 722 l 296 -299 l 238 -299 m 339 819 l 301 847 l 446 1044 l 492 1011 l 339 819 z "},"":{"ha":694,"x_min":96,"x_max":610,"o":"m 96 -299 l 96 1021 l 151 1021 l 151 582 q 185 645 164 615 q 235 696 206 675 q 299 725 264 717 q 369 733 335 733 q 440 725 406 733 q 504 697 475 717 q 555 647 533 676 q 588 583 576 617 q 605 515 600 550 q 610 444 610 481 l 610 278 q 605 207 610 242 q 588 139 600 172 q 555 76 576 106 q 504 26 533 46 q 440 -3 475 6 q 369 -11 406 -11 q 299 -3 335 -11 q 235 26 264 6 q 185 77 206 47 q 151 140 164 107 l 151 -299 l 96 -299 m 353 40 q 411 47 382 40 q 465 69 440 53 q 508 110 490 86 q 536 162 525 135 q 551 219 547 189 q 554 278 554 249 l 554 444 q 551 503 554 474 q 536 560 547 533 q 508 612 525 588 q 465 653 490 636 q 411 676 440 669 q 353 682 382 682 q 294 676 324 682 q 240 653 265 669 q 198 612 215 636 q 169 560 181 588 q 155 503 158 533 q 151 444 151 474 l 151 278 q 155 219 151 249 q 169 162 158 189 q 198 110 181 135 q 240 69 215 86 q 294 47 265 53 q 353 40 324 40 z "},"":{"ha":694,"x_min":76,"x_max":618,"o":"m 238 -299 q 257 -237 247 -268 q 276 -175 267 -206 l 318 -47 l 76 722 l 135 722 l 346 36 l 560 722 l 618 722 l 296 -299 l 238 -299 m 486 876 q 465 879 475 876 q 446 890 454 882 q 435 909 438 899 q 432 931 432 919 q 435 952 432 942 q 446 971 438 963 q 465 982 454 979 q 486 985 475 985 q 508 982 497 985 q 526 971 518 979 q 538 952 535 963 q 540 931 540 942 q 538 909 540 919 q 526 890 535 899 q 508 879 518 882 q 486 876 497 876 m 208 876 q 187 879 197 876 q 168 890 176 882 q 157 909 160 899 q 154 931 154 919 q 157 952 154 942 q 168 971 160 963 q 187 982 176 979 q 208 985 197 985 q 230 982 219 985 q 249 971 240 979 q 260 952 257 963 q 263 931 263 942 q 260 909 263 919 q 249 890 257 899 q 230 879 240 882 q 208 876 219 876 z "},"":{"ha":694,"x_min":72,"x_max":622,"o":"m 72 0 l 315 1021 l 379 1021 l 460 681 l 622 0 l 564 0 l 490 310 l 204 310 l 131 0 l 72 0 m 215 361 l 479 361 l 404 681 q 375 802 389 742 q 347 924 361 863 q 319 802 333 863 q 290 681 306 742 l 215 361 m 556 1204 l 139 1204 l 139 1254 l 556 1254 l 556 1204 z "},"":{"ha":694,"x_min":85,"x_max":599,"o":"m 324 -11 q 235 -1 279 -11 q 155 38 190 10 q 102 108 119 65 q 85 194 85 150 q 94 260 85 228 q 126 319 104 293 q 178 361 149 344 q 240 388 207 378 q 306 401 272 397 q 372 404 339 404 l 543 404 l 543 483 q 539 536 543 510 q 522 587 535 563 q 491 630 510 611 q 449 661 472 649 q 399 678 425 674 q 346 682 372 682 q 276 676 311 682 q 213 651 242 669 q 166 601 183 632 q 149 535 149 569 l 93 535 q 103 594 93 565 q 130 647 113 624 q 173 688 147 671 q 227 716 199 706 q 285 730 256 726 q 346 733 315 733 q 413 728 379 733 q 476 707 446 722 q 531 668 507 692 q 571 615 556 644 q 592 551 586 585 q 599 483 599 517 l 599 0 l 543 0 l 543 125 q 508 66 531 93 q 456 21 486 39 q 392 -4 426 3 q 324 -11 358 -11 m 340 40 q 396 45 368 40 q 448 63 424 50 q 492 97 472 76 q 523 142 511 117 q 539 195 535 168 q 543 250 543 222 l 543 354 l 372 354 q 319 351 346 354 q 268 342 293 349 q 219 324 243 336 q 177 294 196 313 q 149 251 158 276 q 140 199 140 225 q 156 129 140 163 q 202 75 172 96 q 268 47 232 54 q 340 40 304 40 m 556 906 l 139 906 l 139 956 l 556 956 l 556 906 z "},"":{"ha":694,"x_min":72,"x_max":622,"o":"m 72 0 l 315 1021 l 379 1021 l 460 681 l 622 0 l 564 0 l 490 310 l 204 310 l 131 0 l 72 0 m 215 361 l 479 361 l 404 681 q 375 802 389 742 q 347 924 361 863 q 319 802 333 863 q 290 681 306 742 l 215 361 m 347 1132 q 270 1144 308 1132 q 204 1183 232 1156 q 165 1249 176 1211 q 154 1326 154 1288 l 207 1326 q 215 1269 207 1297 q 243 1221 224 1242 q 290 1191 263 1200 q 347 1182 318 1182 q 404 1191 376 1182 q 451 1221 432 1200 q 479 1269 471 1242 q 488 1326 488 1297 l 540 1326 q 529 1249 540 1288 q 490 1183 518 1211 q 424 1144 463 1156 q 347 1132 386 1132 z "},"":{"ha":694,"x_min":85,"x_max":599,"o":"m 324 -11 q 235 -1 279 -11 q 155 38 190 10 q 102 108 119 65 q 85 194 85 150 q 94 260 85 228 q 126 319 104 293 q 178 361 149 344 q 240 388 207 378 q 306 401 272 397 q 372 404 339 404 l 543 404 l 543 483 q 539 536 543 510 q 522 587 535 563 q 491 630 510 611 q 449 661 472 649 q 399 678 425 674 q 346 682 372 682 q 276 676 311 682 q 213 651 242 669 q 166 601 183 632 q 149 535 149 569 l 93 535 q 103 594 93 565 q 130 647 113 624 q 173 688 147 671 q 227 716 199 706 q 285 730 256 726 q 346 733 315 733 q 413 728 379 733 q 476 707 446 722 q 531 668 507 692 q 571 615 556 644 q 592 551 586 585 q 599 483 599 517 l 599 0 l 543 0 l 543 125 q 508 66 531 93 q 456 21 486 39 q 392 -4 426 3 q 324 -11 358 -11 m 340 40 q 396 45 368 40 q 448 63 424 50 q 492 97 472 76 q 523 142 511 117 q 539 195 535 168 q 543 250 543 222 l 543 354 l 372 354 q 319 351 346 354 q 268 342 293 349 q 219 324 243 336 q 177 294 196 313 q 149 251 158 276 q 140 199 140 225 q 156 129 140 163 q 202 75 172 96 q 268 47 232 54 q 340 40 304 40 m 347 833 q 270 845 308 833 q 204 885 232 857 q 165 951 176 913 q 154 1028 154 989 l 207 1028 q 215 971 207 999 q 243 922 224 943 q 290 892 263 901 q 347 883 318 883 q 404 892 376 883 q 451 922 432 901 q 479 971 471 943 q 488 1028 488 999 l 540 1028 q 529 951 540 989 q 490 885 518 913 q 424 845 463 857 q 347 833 386 833 z "},"":{"ha":694,"x_min":72,"x_max":622,"o":"m 72 0 l 315 1021 l 379 1021 l 460 681 l 622 0 l 564 0 l 490 310 l 204 310 l 131 0 l 72 0 m 215 361 l 479 361 l 404 681 q 375 802 389 742 q 347 924 361 863 q 319 802 333 863 q 290 681 306 742 l 215 361 m 568 -310 q 518 -303 543 -310 q 473 -281 493 -296 q 442 -241 453 -265 q 432 -192 432 -217 q 448 -119 432 -154 q 488 -56 464 -85 q 540 -3 511 -28 q 599 42 568 21 l 599 0 q 560 -40 579 -19 q 526 -84 542 -61 q 498 -133 510 -107 q 486 -187 486 -160 q 492 -218 486 -203 q 512 -243 499 -233 q 541 -256 525 -253 q 572 -260 557 -260 q 594 -258 583 -260 q 617 -254 606 -257 l 617 -304 q 592 -308 604 -307 q 568 -310 581 -310 z "},"":{"ha":694,"x_min":85,"x_max":617,"o":"m 324 -11 q 235 -1 279 -11 q 155 38 190 10 q 102 108 119 65 q 85 194 85 150 q 94 260 85 228 q 126 319 104 293 q 178 361 149 344 q 240 388 207 378 q 306 401 272 397 q 372 404 339 404 l 543 404 l 543 483 q 539 536 543 510 q 522 587 535 563 q 491 630 510 611 q 449 661 472 649 q 399 678 425 674 q 346 682 372 682 q 276 676 311 682 q 213 651 242 669 q 166 601 183 632 q 149 535 149 569 l 93 535 q 103 594 93 565 q 130 647 113 624 q 173 688 147 671 q 227 716 199 706 q 285 730 256 726 q 346 733 315 733 q 413 728 379 733 q 476 707 446 722 q 531 668 507 692 q 571 615 556 644 q 592 551 586 585 q 599 483 599 517 l 599 0 l 543 0 l 543 125 q 508 66 531 93 q 456 21 486 39 q 392 -4 426 3 q 324 -11 358 -11 m 340 40 q 396 45 368 40 q 448 63 424 50 q 492 97 472 76 q 523 142 511 117 q 539 195 535 168 q 543 250 543 222 l 543 354 l 372 354 q 319 351 346 354 q 268 342 293 349 q 219 324 243 336 q 177 294 196 313 q 149 251 158 276 q 140 199 140 225 q 156 129 140 163 q 202 75 172 96 q 268 47 232 54 q 340 40 304 40 m 568 -310 q 518 -303 543 -310 q 473 -281 493 -296 q 442 -241 453 -265 q 432 -192 432 -217 q 448 -119 432 -154 q 488 -56 464 -85 q 540 -3 511 -28 q 599 42 568 21 l 599 0 q 560 -40 579 -19 q 526 -84 542 -61 q 498 -133 510 -107 q 486 -187 486 -160 q 492 -218 486 -203 q 512 -243 499 -233 q 541 -256 525 -253 q 572 -260 557 -260 q 594 -258 583 -260 q 617 -254 606 -257 l 617 -304 q 592 -308 604 -307 q 568 -310 581 -310 z "},"":{"ha":694,"x_min":85,"x_max":601,"o":"m 343 -11 q 271 -3 307 -11 q 203 22 235 4 q 149 68 172 40 q 110 129 125 96 q 90 199 96 163 q 85 271 85 235 l 85 750 q 90 822 85 786 q 110 892 96 858 q 149 953 125 925 q 203 999 172 981 q 271 1024 235 1017 q 343 1032 307 1032 q 410 1026 376 1032 q 473 1007 443 1021 q 528 970 503 993 q 569 918 553 947 q 594 856 586 889 q 601 789 601 822 l 601 785 l 546 785 l 546 789 q 532 866 546 828 q 489 931 518 904 q 422 969 460 958 q 343 981 383 981 q 285 974 314 981 q 232 953 257 968 q 189 915 207 938 q 160 865 171 892 q 144 808 149 838 q 140 750 140 779 l 140 271 q 144 213 140 242 q 160 156 149 183 q 189 106 171 129 q 232 68 207 83 q 285 47 257 53 q 343 40 314 40 q 422 51 383 40 q 489 90 460 63 q 532 155 518 117 q 546 232 546 193 l 546 236 l 601 236 l 601 232 q 594 165 601 199 q 569 103 586 132 q 528 51 553 74 q 473 14 503 28 q 410 -6 443 0 q 343 -11 376 -11 m 339 1118 l 301 1146 l 446 1343 l 492 1310 l 339 1118 z "},"":{"ha":694,"x_min":85,"x_max":601,"o":"m 343 -11 q 270 -3 307 -11 q 202 24 233 4 q 147 72 171 43 q 110 134 124 100 q 90 205 96 168 q 85 278 85 242 l 85 444 q 90 517 85 481 q 110 588 96 554 q 147 651 124 622 q 202 699 171 679 q 270 726 233 718 q 343 733 307 733 q 410 728 376 733 q 474 708 443 722 q 528 670 504 693 q 569 618 553 647 q 594 556 586 589 q 601 489 601 524 l 601 486 l 546 486 l 546 489 q 532 566 546 528 q 490 632 518 604 q 422 671 461 660 q 343 682 383 682 q 285 676 314 682 q 231 653 256 669 q 188 613 206 636 q 159 561 169 589 q 144 503 149 533 q 140 444 140 474 l 140 278 q 144 219 140 249 q 159 161 149 189 q 188 110 169 133 q 231 69 206 86 q 285 47 256 53 q 343 40 314 40 q 422 51 383 40 q 490 90 461 63 q 532 156 518 118 q 546 233 546 194 l 546 236 l 601 236 l 601 233 q 594 166 601 199 q 569 104 586 133 q 528 52 553 75 q 474 15 504 29 q 410 -6 443 0 q 343 -11 376 -11 m 339 819 l 301 847 l 446 1044 l 492 1011 l 339 819 z "},"":{"ha":694,"x_min":85,"x_max":601,"o":"m 343 -11 q 271 -3 307 -11 q 203 22 235 4 q 149 68 172 40 q 110 129 125 96 q 90 199 96 163 q 85 271 85 235 l 85 750 q 90 822 85 786 q 110 892 96 858 q 149 953 125 925 q 203 999 172 981 q 271 1024 235 1017 q 343 1032 307 1032 q 410 1026 376 1032 q 473 1007 443 1021 q 528 970 503 993 q 569 918 553 947 q 594 856 586 889 q 601 789 601 822 l 601 785 l 546 785 l 546 789 q 532 866 546 828 q 489 931 518 904 q 422 969 460 958 q 343 981 383 981 q 285 974 314 981 q 232 953 257 968 q 189 915 207 938 q 160 865 171 892 q 144 808 149 838 q 140 750 140 779 l 140 271 q 144 213 140 242 q 160 156 149 183 q 189 106 171 129 q 232 68 207 83 q 285 47 257 53 q 343 40 314 40 q 422 51 383 40 q 489 90 460 63 q 532 155 518 117 q 546 232 546 193 l 546 236 l 601 236 l 601 232 q 594 165 601 199 q 569 103 586 132 q 528 51 553 74 q 473 14 503 28 q 410 -6 443 0 q 343 -11 376 -11 m 215 1122 l 174 1151 l 311 1342 l 383 1342 l 521 1151 l 479 1122 l 347 1294 l 215 1122 z "},"":{"ha":694,"x_min":85,"x_max":601,"o":"m 343 -11 q 270 -3 307 -11 q 202 24 233 4 q 147 72 171 43 q 110 134 124 100 q 90 205 96 168 q 85 278 85 242 l 85 444 q 90 517 85 481 q 110 588 96 554 q 147 651 124 622 q 202 699 171 679 q 270 726 233 718 q 343 733 307 733 q 410 728 376 733 q 474 708 443 722 q 528 670 504 693 q 569 618 553 647 q 594 556 586 589 q 601 489 601 524 l 601 486 l 546 486 l 546 489 q 532 566 546 528 q 490 632 518 604 q 422 671 461 660 q 343 682 383 682 q 285 676 314 682 q 231 653 256 669 q 188 613 206 636 q 159 561 169 589 q 144 503 149 533 q 140 444 140 474 l 140 278 q 144 219 140 249 q 159 161 149 189 q 188 110 169 133 q 231 69 206 86 q 285 47 256 53 q 343 40 314 40 q 422 51 383 40 q 490 90 461 63 q 532 156 518 118 q 546 233 546 194 l 546 236 l 601 236 l 601 233 q 594 166 601 199 q 569 104 586 133 q 528 52 553 75 q 474 15 504 29 q 410 -6 443 0 q 343 -11 376 -11 m 215 824 l 174 853 l 311 1043 l 383 1043 l 521 853 l 479 824 l 347 996 l 215 824 z "},"":{"ha":694,"x_min":85,"x_max":601,"o":"m 343 -11 q 271 -3 307 -11 q 203 22 235 4 q 149 68 172 40 q 110 129 125 96 q 90 199 96 163 q 85 271 85 235 l 85 750 q 90 822 85 786 q 110 892 96 858 q 149 953 125 925 q 203 999 172 981 q 271 1024 235 1017 q 343 1032 307 1032 q 410 1026 376 1032 q 473 1007 443 1021 q 528 970 503 993 q 569 918 553 947 q 594 856 586 889 q 601 789 601 822 l 601 785 l 546 785 l 546 789 q 532 866 546 828 q 489 931 518 904 q 422 969 460 958 q 343 981 383 981 q 285 974 314 981 q 232 953 257 968 q 189 915 207 938 q 160 865 171 892 q 144 808 149 838 q 140 750 140 779 l 140 271 q 144 213 140 242 q 160 156 149 183 q 189 106 171 129 q 232 68 207 83 q 285 47 257 53 q 343 40 314 40 q 422 51 383 40 q 489 90 460 63 q 532 155 518 117 q 546 232 546 193 l 546 236 l 601 236 l 601 232 q 594 165 601 199 q 569 103 586 132 q 528 51 553 74 q 473 14 503 28 q 410 -6 443 0 q 343 -11 376 -11 m 347 1175 q 326 1178 336 1175 q 307 1189 315 1181 q 296 1208 299 1197 q 293 1229 293 1218 q 296 1251 293 1240 q 307 1269 299 1261 q 326 1281 315 1278 q 347 1283 336 1283 q 369 1281 358 1283 q 388 1269 379 1278 q 399 1251 396 1261 q 401 1229 401 1240 q 399 1208 401 1218 q 388 1189 396 1197 q 369 1178 379 1181 q 347 1175 358 1175 z "},"":{"ha":694,"x_min":85,"x_max":601,"o":"m 343 -11 q 270 -3 307 -11 q 202 24 233 4 q 147 72 171 43 q 110 134 124 100 q 90 205 96 168 q 85 278 85 242 l 85 444 q 90 517 85 481 q 110 588 96 554 q 147 651 124 622 q 202 699 171 679 q 270 726 233 718 q 343 733 307 733 q 410 728 376 733 q 474 708 443 722 q 528 670 504 693 q 569 618 553 647 q 594 556 586 589 q 601 489 601 524 l 601 486 l 546 486 l 546 489 q 532 566 546 528 q 490 632 518 604 q 422 671 461 660 q 343 682 383 682 q 285 676 314 682 q 231 653 256 669 q 188 613 206 636 q 159 561 169 589 q 144 503 149 533 q 140 444 140 474 l 140 278 q 144 219 140 249 q 159 161 149 189 q 188 110 169 133 q 231 69 206 86 q 285 47 256 53 q 343 40 314 40 q 422 51 383 40 q 490 90 461 63 q 532 156 518 118 q 546 233 546 194 l 546 236 l 601 236 l 601 233 q 594 166 601 199 q 569 104 586 133 q 528 52 553 75 q 474 15 504 29 q 410 -6 443 0 q 343 -11 376 -11 m 347 876 q 326 879 336 876 q 307 890 315 882 q 296 909 299 899 q 293 931 293 919 q 296 952 293 942 q 307 971 299 963 q 326 982 315 979 q 347 985 336 985 q 369 982 358 985 q 388 971 379 979 q 399 952 396 963 q 401 931 401 942 q 399 909 401 919 q 388 890 396 899 q 369 879 379 882 q 347 876 358 876 z "},"":{"ha":694,"x_min":85,"x_max":601,"o":"m 343 -11 q 271 -3 307 -11 q 203 22 235 4 q 149 68 172 40 q 110 129 125 96 q 90 199 96 163 q 85 271 85 235 l 85 750 q 90 822 85 786 q 110 892 96 858 q 149 953 125 925 q 203 999 172 981 q 271 1024 235 1017 q 343 1032 307 1032 q 410 1026 376 1032 q 473 1007 443 1021 q 528 970 503 993 q 569 918 553 947 q 594 856 586 889 q 601 789 601 822 l 601 785 l 546 785 l 546 789 q 532 866 546 828 q 489 931 518 904 q 422 969 460 958 q 343 981 383 981 q 285 974 314 981 q 232 953 257 968 q 189 915 207 938 q 160 865 171 892 q 144 808 149 838 q 140 750 140 779 l 140 271 q 144 213 140 242 q 160 156 149 183 q 189 106 171 129 q 232 68 207 83 q 285 47 257 53 q 343 40 314 40 q 422 51 383 40 q 489 90 460 63 q 532 155 518 117 q 546 232 546 193 l 546 236 l 601 236 l 601 232 q 594 165 601 199 q 569 103 586 132 q 528 51 553 74 q 473 14 503 28 q 410 -6 443 0 q 343 -11 376 -11 m 311 1132 l 174 1324 l 215 1351 l 347 1179 l 479 1351 l 521 1324 l 383 1132 l 311 1132 z "},"":{"ha":694,"x_min":85,"x_max":601,"o":"m 343 -11 q 270 -3 307 -11 q 202 24 233 4 q 147 72 171 43 q 110 134 124 100 q 90 205 96 168 q 85 278 85 242 l 85 444 q 90 517 85 481 q 110 588 96 554 q 147 651 124 622 q 202 699 171 679 q 270 726 233 718 q 343 733 307 733 q 410 728 376 733 q 474 708 443 722 q 528 670 504 693 q 569 618 553 647 q 594 556 586 589 q 601 489 601 524 l 601 486 l 546 486 l 546 489 q 532 566 546 528 q 490 632 518 604 q 422 671 461 660 q 343 682 383 682 q 285 676 314 682 q 231 653 256 669 q 188 613 206 636 q 159 561 169 589 q 144 503 149 533 q 140 444 140 474 l 140 278 q 144 219 140 249 q 159 161 149 189 q 188 110 169 133 q 231 69 206 86 q 285 47 256 53 q 343 40 314 40 q 422 51 383 40 q 490 90 461 63 q 532 156 518 118 q 546 233 546 194 l 546 236 l 601 236 l 601 233 q 594 166 601 199 q 569 104 586 133 q 528 52 553 75 q 474 15 504 29 q 410 -6 443 0 q 343 -11 376 -11 m 311 833 l 174 1025 l 215 1053 l 347 881 l 479 1053 l 521 1025 l 383 833 l 311 833 z "},"":{"ha":694,"x_min":96,"x_max":610,"o":"m 301 0 l 96 0 l 96 1021 l 301 1021 q 382 1014 342 1021 q 459 990 422 1007 q 526 944 496 972 q 576 881 557 917 q 602 804 594 844 q 610 724 610 764 l 610 299 q 602 217 610 257 q 576 140 594 176 q 526 76 557 104 q 459 31 496 49 q 382 7 422 14 q 301 0 342 0 m 151 51 l 300 51 q 368 57 335 51 q 431 77 401 63 q 486 115 461 92 q 526 168 511 139 q 548 231 542 197 q 554 299 554 264 l 554 724 q 548 790 554 757 q 526 853 542 824 q 486 906 511 882 q 431 944 461 929 q 368 964 401 958 q 300 969 335 969 l 151 969 l 151 51 m 311 1132 l 174 1324 l 215 1351 l 347 1179 l 479 1351 l 521 1324 l 383 1132 l 311 1132 z "},"":{"ha":694,"x_min":85,"x_max":686,"o":"m 629 810 l 592 835 q 620 892 610 861 q 635 957 631 924 q 618 960 626 957 q 604 970 610 964 q 596 985 599 976 q 593 1001 593 993 q 596 1020 593 1011 q 606 1035 599 1029 q 621 1044 613 1042 q 639 1047 629 1047 q 657 1044 649 1047 q 672 1035 665 1042 q 682 1020 679 1029 q 685 1001 685 1011 q 672 901 685 951 q 629 810 660 851 m 307 -11 q 241 -3 274 -11 q 181 25 208 6 q 135 73 154 44 q 104 133 115 101 q 89 197 93 164 q 85 264 85 231 l 85 458 q 89 525 85 492 q 104 590 93 558 q 135 649 115 621 q 181 697 154 678 q 241 725 208 717 q 307 733 274 733 q 372 725 340 733 q 431 698 404 717 q 478 652 458 679 q 508 593 497 625 l 508 1021 l 564 1021 l 564 0 l 508 0 l 508 129 q 478 70 497 97 q 431 24 458 43 q 372 -3 404 6 q 307 -11 340 -11 m 324 40 q 378 47 351 40 q 428 69 406 53 q 467 108 451 85 q 492 156 483 131 q 505 209 501 182 q 508 264 508 236 l 508 458 q 505 513 508 486 q 492 566 501 540 q 467 615 483 592 q 428 653 451 638 q 378 676 406 669 q 325 682 351 682 q 270 676 297 682 q 220 653 243 669 q 181 615 197 638 q 156 566 165 592 q 144 513 147 540 q 140 458 140 486 l 140 264 q 144 209 140 236 q 156 156 147 182 q 181 108 165 131 q 220 69 197 85 q 270 47 243 53 q 324 40 297 40 z "},"":{"ha":694,"x_min":18,"x_max":610,"o":"m 301 0 l 96 0 l 96 486 l 18 486 l 18 535 l 96 535 l 96 1021 l 301 1021 q 382 1014 342 1021 q 459 990 422 1007 q 526 944 496 972 q 576 881 557 917 q 602 804 594 844 q 610 724 610 764 l 610 299 q 602 217 610 257 q 576 140 594 176 q 526 76 557 104 q 459 31 496 49 q 382 7 422 14 q 301 0 342 0 m 151 51 l 300 51 q 368 57 335 51 q 431 77 401 63 q 486 115 461 92 q 526 168 511 139 q 548 231 542 197 q 554 299 554 264 l 554 724 q 548 790 554 757 q 526 853 542 824 q 486 906 511 882 q 431 944 461 929 q 368 964 401 958 q 300 969 335 969 l 151 969 l 151 535 l 314 535 l 314 486 l 151 486 l 151 51 z "},"":{"ha":694,"x_min":85,"x_max":676,"o":"m 325 -11 q 254 -3 289 -11 q 190 26 219 6 q 140 76 161 46 q 106 139 118 106 q 90 207 94 172 q 85 278 85 242 l 85 444 q 90 515 85 481 q 106 583 94 550 q 140 647 118 617 q 190 697 161 676 q 254 725 219 717 q 325 733 289 733 q 395 725 360 733 q 460 696 431 717 q 510 645 489 675 q 543 582 531 615 l 543 847 l 379 847 l 379 896 l 543 896 l 543 1021 l 599 1021 l 599 896 l 676 896 l 676 847 l 599 847 l 599 0 l 543 0 l 543 140 q 510 77 531 107 q 460 26 489 47 q 395 -3 431 6 q 325 -11 360 -11 m 342 40 q 400 47 371 40 q 454 69 429 53 q 497 110 479 86 q 525 162 514 135 q 540 219 536 189 q 543 278 543 249 l 543 444 q 540 503 543 474 q 525 560 536 533 q 497 612 514 588 q 454 653 479 636 q 400 676 429 669 q 342 682 371 682 q 283 676 313 682 q 229 653 254 669 q 187 612 204 636 q 158 560 169 588 q 144 503 147 533 q 140 444 140 474 l 140 278 q 144 219 140 249 q 158 162 147 189 q 187 110 169 135 q 229 69 204 86 q 283 47 254 53 q 342 40 313 40 z "},"":{"ha":694,"x_min":107,"x_max":599,"o":"m 107 0 l 107 1021 l 599 1021 l 599 969 l 163 969 l 163 557 l 524 557 l 524 506 l 163 506 l 163 51 l 599 51 l 599 0 l 107 0 m 556 1204 l 139 1204 l 139 1254 l 556 1254 l 556 1204 z "},"":{"ha":694,"x_min":85,"x_max":610,"o":"m 347 -11 q 274 -3 311 -11 q 206 23 238 4 q 149 70 174 42 q 110 133 125 99 q 90 203 96 167 q 85 278 85 240 l 85 444 q 90 519 85 482 q 110 590 96 556 q 149 652 125 624 q 206 699 174 681 q 274 726 238 718 q 347 733 310 733 q 421 726 385 733 q 489 699 457 718 q 545 652 521 681 q 584 590 569 624 q 604 519 599 556 q 610 444 610 482 l 610 336 l 140 336 l 140 278 q 144 218 140 247 q 160 161 149 189 q 190 109 171 133 q 233 69 208 85 q 288 47 258 53 q 347 40 318 40 q 418 47 383 40 q 483 72 453 53 q 531 122 513 90 q 551 188 550 153 l 607 188 q 596 128 606 157 q 567 75 586 99 q 523 34 549 51 q 468 6 497 17 q 408 -8 439 -4 q 347 -11 378 -11 m 140 386 l 554 386 l 554 444 q 550 504 554 475 q 535 561 546 533 q 505 613 524 589 q 461 653 486 638 q 407 676 436 669 q 347 682 378 682 q 288 676 317 682 q 233 653 258 669 q 190 613 208 638 q 160 561 171 589 q 144 504 149 533 q 140 444 140 475 l 140 386 m 556 906 l 139 906 l 139 956 l 556 956 l 556 906 z "},"":{"ha":694,"x_min":107,"x_max":599,"o":"m 107 0 l 107 1021 l 599 1021 l 599 969 l 163 969 l 163 557 l 524 557 l 524 506 l 163 506 l 163 51 l 599 51 l 599 0 l 107 0 m 347 1132 q 270 1144 308 1132 q 204 1183 232 1156 q 165 1249 176 1211 q 154 1326 154 1288 l 207 1326 q 215 1269 207 1297 q 243 1221 224 1242 q 290 1191 263 1200 q 347 1182 318 1182 q 404 1191 376 1182 q 451 1221 432 1200 q 479 1269 471 1242 q 488 1326 488 1297 l 540 1326 q 529 1249 540 1288 q 490 1183 518 1211 q 424 1144 463 1156 q 347 1132 386 1132 z "},"":{"ha":694,"x_min":85,"x_max":610,"o":"m 347 -11 q 274 -3 311 -11 q 206 23 238 4 q 149 70 174 42 q 110 133 125 99 q 90 203 96 167 q 85 278 85 240 l 85 444 q 90 519 85 482 q 110 590 96 556 q 149 652 125 624 q 206 699 174 681 q 274 726 238 718 q 347 733 310 733 q 421 726 385 733 q 489 699 457 718 q 545 652 521 681 q 584 590 569 624 q 604 519 599 556 q 610 444 610 482 l 610 336 l 140 336 l 140 278 q 144 218 140 247 q 160 161 149 189 q 190 109 171 133 q 233 69 208 85 q 288 47 258 53 q 347 40 318 40 q 418 47 383 40 q 483 72 453 53 q 531 122 513 90 q 551 188 550 153 l 607 188 q 596 128 606 157 q 567 75 586 99 q 523 34 549 51 q 468 6 497 17 q 408 -8 439 -4 q 347 -11 378 -11 m 140 386 l 554 386 l 554 444 q 550 504 554 475 q 535 561 546 533 q 505 613 524 589 q 461 653 486 638 q 407 676 436 669 q 347 682 378 682 q 288 676 317 682 q 233 653 258 669 q 190 613 208 638 q 160 561 171 589 q 144 504 149 533 q 140 444 140 475 l 140 386 m 347 833 q 270 845 308 833 q 204 885 232 857 q 165 951 176 913 q 154 1028 154 989 l 207 1028 q 215 971 207 999 q 243 922 224 943 q 290 892 263 901 q 347 883 318 883 q 404 892 376 883 q 451 922 432 901 q 479 971 471 943 q 488 1028 488 999 l 540 1028 q 529 951 540 989 q 490 885 518 913 q 424 845 463 857 q 347 833 386 833 z "},"":{"ha":694,"x_min":107,"x_max":599,"o":"m 107 0 l 107 1021 l 599 1021 l 599 969 l 163 969 l 163 557 l 524 557 l 524 506 l 163 506 l 163 51 l 599 51 l 599 0 l 107 0 m 347 1175 q 326 1178 336 1175 q 307 1189 315 1181 q 296 1208 299 1197 q 293 1229 293 1218 q 296 1251 293 1240 q 307 1269 299 1261 q 326 1281 315 1278 q 347 1283 336 1283 q 369 1281 358 1283 q 388 1269 379 1278 q 399 1251 396 1261 q 401 1229 401 1240 q 399 1208 401 1218 q 388 1189 396 1197 q 369 1178 379 1181 q 347 1175 358 1175 z "},"":{"ha":694,"x_min":85,"x_max":610,"o":"m 347 -11 q 274 -3 311 -11 q 206 23 238 4 q 149 70 174 42 q 110 133 125 99 q 90 203 96 167 q 85 278 85 240 l 85 444 q 90 519 85 482 q 110 590 96 556 q 149 652 125 624 q 206 699 174 681 q 274 726 238 718 q 347 733 310 733 q 421 726 385 733 q 489 699 457 718 q 545 652 521 681 q 584 590 569 624 q 604 519 599 556 q 610 444 610 482 l 610 336 l 140 336 l 140 278 q 144 218 140 247 q 160 161 149 189 q 190 109 171 133 q 233 69 208 85 q 288 47 258 53 q 347 40 318 40 q 418 47 383 40 q 483 72 453 53 q 531 122 513 90 q 551 188 550 153 l 607 188 q 596 128 606 157 q 567 75 586 99 q 523 34 549 51 q 468 6 497 17 q 408 -8 439 -4 q 347 -11 378 -11 m 140 386 l 554 386 l 554 444 q 550 504 554 475 q 535 561 546 533 q 505 613 524 589 q 461 653 486 638 q 407 676 436 669 q 347 682 378 682 q 288 676 317 682 q 233 653 258 669 q 190 613 208 638 q 160 561 171 589 q 144 504 149 533 q 140 444 140 475 l 140 386 m 347 876 q 326 879 336 876 q 307 890 315 882 q 296 909 299 899 q 293 931 293 919 q 296 952 293 942 q 307 971 299 963 q 326 982 315 979 q 347 985 336 985 q 369 982 358 985 q 388 971 379 979 q 399 952 396 963 q 401 931 401 942 q 399 909 401 919 q 388 890 396 899 q 369 879 379 882 q 347 876 358 876 z "},"":{"ha":694,"x_min":107,"x_max":617,"o":"m 107 0 l 107 1021 l 599 1021 l 599 969 l 163 969 l 163 557 l 524 557 l 524 506 l 163 506 l 163 51 l 599 51 l 599 0 l 107 0 m 568 -310 q 518 -303 543 -310 q 473 -281 493 -296 q 442 -241 453 -265 q 432 -192 432 -217 q 448 -119 432 -154 q 488 -56 464 -85 q 540 -3 511 -28 q 599 42 568 21 l 599 0 q 560 -40 579 -19 q 526 -84 542 -61 q 498 -133 510 -107 q 486 -187 486 -160 q 492 -218 486 -203 q 512 -243 499 -233 q 541 -256 525 -253 q 572 -260 557 -260 q 594 -258 583 -260 q 617 -254 606 -257 l 617 -304 q 592 -308 604 -307 q 568 -310 581 -310 z "},"":{"ha":694,"x_min":85,"x_max":610,"o":"m 561 -310 q 512 -302 536 -310 q 469 -278 488 -294 q 440 -239 450 -262 q 429 -192 429 -215 q 440 -130 429 -160 q 466 -72 451 -100 q 497 -18 481 -44 q 526 36 514 8 q 486 14 508 24 q 441 -1 464 4 q 394 -9 418 -7 q 347 -11 371 -11 q 274 -3 311 -11 q 206 23 238 4 q 149 70 174 42 q 110 133 125 99 q 90 203 96 167 q 85 278 85 240 l 85 444 q 90 519 85 482 q 110 590 96 556 q 149 652 125 624 q 206 699 174 681 q 274 726 238 718 q 347 733 310 733 q 421 726 385 733 q 489 699 457 718 q 545 652 521 681 q 584 590 569 624 q 604 519 599 556 q 610 444 610 482 l 610 336 l 140 336 l 140 278 q 144 218 140 247 q 160 161 149 189 q 190 109 171 133 q 233 69 208 85 q 288 47 258 53 q 347 40 318 40 q 418 47 383 40 q 483 72 453 53 q 531 122 513 90 q 551 188 550 153 l 607 188 q 603 138 607 163 q 594 90 600 114 q 578 42 588 65 q 558 -3 569 18 q 534 -47 546 -25 q 512 -92 522 -69 q 492 -139 501 -115 q 483 -187 483 -162 q 490 -217 483 -203 q 508 -242 496 -232 q 536 -256 521 -251 q 568 -260 551 -260 q 588 -258 578 -260 q 607 -254 597 -257 l 607 -304 q 585 -308 596 -307 q 561 -310 574 -310 m 140 386 l 554 386 l 554 444 q 550 504 554 475 q 535 561 546 533 q 505 613 524 589 q 461 653 486 638 q 407 676 436 669 q 347 682 378 682 q 288 676 317 682 q 233 653 258 669 q 190 613 208 638 q 160 561 171 589 q 144 504 149 533 q 140 444 140 475 l 140 386 z "},"":{"ha":694,"x_min":107,"x_max":599,"o":"m 107 0 l 107 1021 l 599 1021 l 599 969 l 163 969 l 163 557 l 524 557 l 524 506 l 163 506 l 163 51 l 599 51 l 599 0 l 107 0 m 311 1132 l 174 1324 l 215 1351 l 347 1179 l 479 1351 l 521 1324 l 383 1132 l 311 1132 z "},"":{"ha":694,"x_min":85,"x_max":610,"o":"m 347 -11 q 274 -3 311 -11 q 206 23 238 4 q 149 70 174 42 q 110 133 125 99 q 90 203 96 167 q 85 278 85 240 l 85 444 q 90 519 85 482 q 110 590 96 556 q 149 652 125 624 q 206 699 174 681 q 274 726 238 718 q 347 733 310 733 q 421 726 385 733 q 489 699 457 718 q 545 652 521 681 q 584 590 569 624 q 604 519 599 556 q 610 444 610 482 l 610 336 l 140 336 l 140 278 q 144 218 140 247 q 160 161 149 189 q 190 109 171 133 q 233 69 208 85 q 288 47 258 53 q 347 40 318 40 q 418 47 383 40 q 483 72 453 53 q 531 122 513 90 q 551 188 550 153 l 607 188 q 596 128 606 157 q 567 75 586 99 q 523 34 549 51 q 468 6 497 17 q 408 -8 439 -4 q 347 -11 378 -11 m 140 386 l 554 386 l 554 444 q 550 504 554 475 q 535 561 546 533 q 505 613 524 589 q 461 653 486 638 q 407 676 436 669 q 347 682 378 682 q 288 676 317 682 q 233 653 258 669 q 190 613 208 638 q 160 561 171 589 q 144 504 149 533 q 140 444 140 475 l 140 386 m 311 833 l 174 1025 l 215 1053 l 347 881 l 479 1053 l 521 1025 l 383 833 l 311 833 z "},"":{"ha":694,"x_min":85,"x_max":601,"o":"m 325 -11 q 255 -3 289 -11 q 191 24 221 6 q 140 72 161 43 q 107 133 119 100 q 90 201 94 167 q 85 271 85 236 l 85 750 q 90 822 85 786 q 110 892 96 858 q 149 953 125 925 q 203 999 172 981 q 271 1024 235 1017 q 343 1032 307 1032 q 410 1026 376 1032 q 473 1007 443 1021 q 528 970 503 993 q 569 918 553 947 q 594 856 586 889 q 601 789 601 822 l 601 785 l 546 785 l 546 789 q 532 866 546 828 q 489 931 518 904 q 422 969 460 958 q 343 981 383 981 q 285 974 314 981 q 232 953 257 968 q 189 915 207 938 q 160 865 171 892 q 144 808 149 838 q 140 750 140 779 l 140 271 q 144 213 140 242 q 159 157 149 183 q 188 107 169 131 q 231 68 206 83 q 284 47 256 53 q 342 40 313 40 q 399 47 371 40 q 453 68 428 53 q 496 107 478 83 q 524 157 514 131 q 539 213 535 183 q 543 271 543 242 l 543 493 l 347 493 l 347 543 l 599 543 l 599 0 l 547 0 l 547 149 q 515 83 536 114 q 465 29 494 51 q 398 -2 435 7 q 325 -11 361 -11 m 215 1122 l 174 1151 l 311 1342 l 383 1342 l 521 1151 l 479 1122 l 347 1294 l 215 1122 z "},"":{"ha":694,"x_min":85,"x_max":599,"o":"m 343 -310 q 285 -306 314 -310 q 229 -294 257 -303 q 177 -269 201 -285 q 134 -231 153 -253 q 105 -181 115 -208 q 93 -125 94 -154 l 149 -125 q 169 -185 150 -157 q 216 -231 188 -214 q 277 -253 244 -247 q 343 -258 310 -258 q 401 -251 372 -258 q 455 -228 431 -244 q 497 -188 479 -212 q 526 -136 515 -164 q 540 -79 536 -108 q 543 -21 543 -50 l 543 140 q 510 77 531 107 q 460 26 489 47 q 395 -3 431 6 q 325 -11 360 -11 q 254 -3 289 -11 q 190 26 219 6 q 140 76 161 46 q 106 139 118 106 q 90 207 94 172 q 85 278 85 242 l 85 444 q 90 515 85 481 q 106 583 94 550 q 140 647 118 617 q 190 697 161 676 q 254 725 219 717 q 325 733 289 733 q 395 725 360 733 q 460 696 431 717 q 510 645 489 675 q 543 582 531 615 l 543 722 l 599 722 l 599 -21 q 594 -94 599 -57 q 575 -164 589 -131 q 538 -226 561 -197 q 483 -275 514 -256 q 415 -302 451 -294 q 343 -310 379 -310 m 342 40 q 400 47 371 40 q 454 69 429 53 q 497 110 479 86 q 525 162 514 135 q 540 219 536 189 q 543 278 543 249 l 543 444 q 540 503 543 474 q 525 560 536 533 q 497 612 514 588 q 454 653 479 636 q 400 676 429 669 q 342 682 371 682 q 283 676 313 682 q 229 653 254 669 q 187 612 204 636 q 158 560 169 588 q 144 503 147 533 q 140 444 140 474 l 140 278 q 144 219 140 249 q 158 162 147 189 q 187 110 169 135 q 229 69 204 86 q 283 47 254 53 q 342 40 313 40 m 215 824 l 174 853 l 311 1043 l 383 1043 l 521 853 l 479 824 l 347 996 l 215 824 z "},"":{"ha":694,"x_min":85,"x_max":601,"o":"m 325 -11 q 255 -3 289 -11 q 191 24 221 6 q 140 72 161 43 q 107 133 119 100 q 90 201 94 167 q 85 271 85 236 l 85 750 q 90 822 85 786 q 110 892 96 858 q 149 953 125 925 q 203 999 172 981 q 271 1024 235 1017 q 343 1032 307 1032 q 410 1026 376 1032 q 473 1007 443 1021 q 528 970 503 993 q 569 918 553 947 q 594 856 586 889 q 601 789 601 822 l 601 785 l 546 785 l 546 789 q 532 866 546 828 q 489 931 518 904 q 422 969 460 958 q 343 981 383 981 q 285 974 314 981 q 232 953 257 968 q 189 915 207 938 q 160 865 171 892 q 144 808 149 838 q 140 750 140 779 l 140 271 q 144 213 140 242 q 159 157 149 183 q 188 107 169 131 q 231 68 206 83 q 284 47 256 53 q 342 40 313 40 q 399 47 371 40 q 453 68 428 53 q 496 107 478 83 q 524 157 514 131 q 539 213 535 183 q 543 271 543 242 l 543 493 l 347 493 l 347 543 l 599 543 l 599 0 l 547 0 l 547 149 q 515 83 536 114 q 465 29 494 51 q 398 -2 435 7 q 325 -11 361 -11 m 347 1132 q 270 1144 308 1132 q 204 1183 232 1156 q 165 1249 176 1211 q 154 1326 154 1288 l 207 1326 q 215 1269 207 1297 q 243 1221 224 1242 q 290 1191 263 1200 q 347 1182 318 1182 q 404 1191 376 1182 q 451 1221 432 1200 q 479 1269 471 1242 q 488 1326 488 1297 l 540 1326 q 529 1249 540 1288 q 490 1183 518 1211 q 424 1144 463 1156 q 347 1132 386 1132 z "},"":{"ha":694,"x_min":85,"x_max":599,"o":"m 343 -310 q 285 -306 314 -310 q 229 -294 257 -303 q 177 -269 201 -285 q 134 -231 153 -253 q 105 -181 115 -208 q 93 -125 94 -154 l 149 -125 q 169 -185 150 -157 q 216 -231 188 -214 q 277 -253 244 -247 q 343 -258 310 -258 q 401 -251 372 -258 q 455 -228 431 -244 q 497 -188 479 -212 q 526 -136 515 -164 q 540 -79 536 -108 q 543 -21 543 -50 l 543 140 q 510 77 531 107 q 460 26 489 47 q 395 -3 431 6 q 325 -11 360 -11 q 254 -3 289 -11 q 190 26 219 6 q 140 76 161 46 q 106 139 118 106 q 90 207 94 172 q 85 278 85 242 l 85 444 q 90 515 85 481 q 106 583 94 550 q 140 647 118 617 q 190 697 161 676 q 254 725 219 717 q 325 733 289 733 q 395 725 360 733 q 460 696 431 717 q 510 645 489 675 q 543 582 531 615 l 543 722 l 599 722 l 599 -21 q 594 -94 599 -57 q 575 -164 589 -131 q 538 -226 561 -197 q 483 -275 514 -256 q 415 -302 451 -294 q 343 -310 379 -310 m 342 40 q 400 47 371 40 q 454 69 429 53 q 497 110 479 86 q 525 162 514 135 q 540 219 536 189 q 543 278 543 249 l 543 444 q 540 503 543 474 q 525 560 536 533 q 497 612 514 588 q 454 653 479 636 q 400 676 429 669 q 342 682 371 682 q 283 676 313 682 q 229 653 254 669 q 187 612 204 636 q 158 560 169 588 q 144 503 147 533 q 140 444 140 474 l 140 278 q 144 219 140 249 q 158 162 147 189 q 187 110 169 135 q 229 69 204 86 q 283 47 254 53 q 342 40 313 40 m 347 833 q 270 845 308 833 q 204 885 232 857 q 165 951 176 913 q 154 1028 154 989 l 207 1028 q 215 971 207 999 q 243 922 224 943 q 290 892 263 901 q 347 883 318 883 q 404 892 376 883 q 451 922 432 901 q 479 971 471 943 q 488 1028 488 999 l 540 1028 q 529 951 540 989 q 490 885 518 913 q 424 845 463 857 q 347 833 386 833 z "},"":{"ha":694,"x_min":85,"x_max":601,"o":"m 325 -11 q 255 -3 289 -11 q 191 24 221 6 q 140 72 161 43 q 107 133 119 100 q 90 201 94 167 q 85 271 85 236 l 85 750 q 90 822 85 786 q 110 892 96 858 q 149 953 125 925 q 203 999 172 981 q 271 1024 235 1017 q 343 1032 307 1032 q 410 1026 376 1032 q 473 1007 443 1021 q 528 970 503 993 q 569 918 553 947 q 594 856 586 889 q 601 789 601 822 l 601 785 l 546 785 l 546 789 q 532 866 546 828 q 489 931 518 904 q 422 969 460 958 q 343 981 383 981 q 285 974 314 981 q 232 953 257 968 q 189 915 207 938 q 160 865 171 892 q 144 808 149 838 q 140 750 140 779 l 140 271 q 144 213 140 242 q 159 157 149 183 q 188 107 169 131 q 231 68 206 83 q 284 47 256 53 q 342 40 313 40 q 399 47 371 40 q 453 68 428 53 q 496 107 478 83 q 524 157 514 131 q 539 213 535 183 q 543 271 543 242 l 543 493 l 347 493 l 347 543 l 599 543 l 599 0 l 547 0 l 547 149 q 515 83 536 114 q 465 29 494 51 q 398 -2 435 7 q 325 -11 361 -11 m 347 1175 q 326 1178 336 1175 q 307 1189 315 1181 q 296 1208 299 1197 q 293 1229 293 1218 q 296 1251 293 1240 q 307 1269 299 1261 q 326 1281 315 1278 q 347 1283 336 1283 q 369 1281 358 1283 q 388 1269 379 1278 q 399 1251 396 1261 q 401 1229 401 1240 q 399 1208 401 1218 q 388 1189 396 1197 q 369 1178 379 1181 q 347 1175 358 1175 z "},"":{"ha":694,"x_min":85,"x_max":599,"o":"m 343 -310 q 285 -306 314 -310 q 229 -294 257 -303 q 177 -269 201 -285 q 134 -231 153 -253 q 105 -181 115 -208 q 93 -125 94 -154 l 149 -125 q 169 -185 150 -157 q 216 -231 188 -214 q 277 -253 244 -247 q 343 -258 310 -258 q 401 -251 372 -258 q 455 -228 431 -244 q 497 -188 479 -212 q 526 -136 515 -164 q 540 -79 536 -108 q 543 -21 543 -50 l 543 140 q 510 77 531 107 q 460 26 489 47 q 395 -3 431 6 q 325 -11 360 -11 q 254 -3 289 -11 q 190 26 219 6 q 140 76 161 46 q 106 139 118 106 q 90 207 94 172 q 85 278 85 242 l 85 444 q 90 515 85 481 q 106 583 94 550 q 140 647 118 617 q 190 697 161 676 q 254 725 219 717 q 325 733 289 733 q 395 725 360 733 q 460 696 431 717 q 510 645 489 675 q 543 582 531 615 l 543 722 l 599 722 l 599 -21 q 594 -94 599 -57 q 575 -164 589 -131 q 538 -226 561 -197 q 483 -275 514 -256 q 415 -302 451 -294 q 343 -310 379 -310 m 342 40 q 400 47 371 40 q 454 69 429 53 q 497 110 479 86 q 525 162 514 135 q 540 219 536 189 q 543 278 543 249 l 543 444 q 540 503 543 474 q 525 560 536 533 q 497 612 514 588 q 454 653 479 636 q 400 676 429 669 q 342 682 371 682 q 283 676 313 682 q 229 653 254 669 q 187 612 204 636 q 158 560 169 588 q 144 503 147 533 q 140 444 140 474 l 140 278 q 144 219 140 249 q 158 162 147 189 q 187 110 169 135 q 229 69 204 86 q 283 47 254 53 q 342 40 313 40 m 347 876 q 326 879 336 876 q 307 890 315 882 q 296 909 299 899 q 293 931 293 919 q 296 952 293 942 q 307 971 299 963 q 326 982 315 979 q 347 985 336 985 q 369 982 358 985 q 388 971 379 979 q 399 952 396 963 q 401 931 401 942 q 399 909 401 919 q 388 890 396 899 q 369 879 379 882 q 347 876 358 876 z "},"":{"ha":694,"x_min":85,"x_max":601,"o":"m 325 -11 q 255 -3 289 -11 q 191 24 221 6 q 140 72 161 43 q 107 133 119 100 q 90 201 94 167 q 85 271 85 236 l 85 750 q 90 822 85 786 q 110 892 96 858 q 149 953 125 925 q 203 999 172 981 q 271 1024 235 1017 q 343 1032 307 1032 q 410 1026 376 1032 q 473 1007 443 1021 q 528 970 503 993 q 569 918 553 947 q 594 856 586 889 q 601 789 601 822 l 601 785 l 546 785 l 546 789 q 532 866 546 828 q 489 931 518 904 q 422 969 460 958 q 343 981 383 981 q 285 974 314 981 q 232 953 257 968 q 189 915 207 938 q 160 865 171 892 q 144 808 149 838 q 140 750 140 779 l 140 271 q 144 213 140 242 q 159 157 149 183 q 188 107 169 131 q 231 68 206 83 q 284 47 256 53 q 342 40 313 40 q 399 47 371 40 q 453 68 428 53 q 496 107 478 83 q 524 157 514 131 q 539 213 535 183 q 543 271 543 242 l 543 493 l 347 493 l 347 543 l 599 543 l 599 0 l 547 0 l 547 149 q 515 83 536 114 q 465 29 494 51 q 398 -2 435 7 q 325 -11 361 -11 m 338 -319 l 300 -296 q 328 -237 318 -268 q 343 -172 339 -206 q 326 -169 335 -172 q 313 -159 318 -165 q 304 -144 307 -153 q 301 -128 301 -136 q 304 -109 301 -118 q 314 -94 307 -100 q 329 -85 321 -87 q 347 -82 338 -82 q 365 -85 357 -82 q 381 -94 374 -87 q 390 -109 388 -100 q 393 -128 393 -118 q 381 -228 393 -178 q 338 -319 368 -278 z "},"":{"ha":694,"x_min":85,"x_max":599,"o":"m 343 -310 q 285 -306 314 -310 q 229 -294 257 -303 q 177 -269 201 -285 q 134 -231 153 -253 q 105 -181 115 -208 q 93 -125 94 -154 l 149 -125 q 169 -185 150 -157 q 216 -231 188 -214 q 277 -253 244 -247 q 343 -258 310 -258 q 401 -251 372 -258 q 455 -228 431 -244 q 497 -188 479 -212 q 526 -136 515 -164 q 540 -79 536 -108 q 543 -21 543 -50 l 543 140 q 510 77 531 107 q 460 26 489 47 q 395 -3 431 6 q 325 -11 360 -11 q 254 -3 289 -11 q 190 26 219 6 q 140 76 161 46 q 106 139 118 106 q 90 207 94 172 q 85 278 85 242 l 85 444 q 90 515 85 481 q 106 583 94 550 q 140 647 118 617 q 190 697 161 676 q 254 725 219 717 q 325 733 289 733 q 395 725 360 733 q 460 696 431 717 q 510 645 489 675 q 543 582 531 615 l 543 722 l 599 722 l 599 -21 q 594 -94 599 -57 q 575 -164 589 -131 q 538 -226 561 -197 q 483 -275 514 -256 q 415 -302 451 -294 q 343 -310 379 -310 m 342 40 q 400 47 371 40 q 454 69 429 53 q 497 110 479 86 q 525 162 514 135 q 540 219 536 189 q 543 278 543 249 l 543 444 q 540 503 543 474 q 525 560 536 533 q 497 612 514 588 q 454 653 479 636 q 400 676 429 669 q 342 682 371 682 q 283 676 313 682 q 229 653 254 669 q 187 612 204 636 q 158 560 169 588 q 144 503 147 533 q 140 444 140 474 l 140 278 q 144 219 140 249 q 158 162 147 189 q 187 110 169 135 q 229 69 204 86 q 283 47 254 53 q 342 40 313 40 m 347 804 q 329 807 338 804 q 314 816 321 810 q 304 831 307 822 q 301 850 301 840 q 314 950 301 900 q 357 1042 326 1000 l 394 1018 q 366 959 376 990 q 351 894 356 928 q 368 891 360 894 q 382 881 376 888 q 390 867 388 875 q 393 850 393 858 q 390 831 393 840 q 381 816 388 822 q 365 807 374 810 q 347 804 357 804 z "},"":{"ha":694,"x_min":96,"x_max":599,"o":"m 96 0 l 96 1021 l 151 1021 l 151 557 l 543 557 l 543 1021 l 599 1021 l 599 0 l 543 0 l 543 506 l 151 506 l 151 0 l 96 0 m 215 1122 l 174 1151 l 311 1342 l 383 1342 l 521 1151 l 479 1122 l 347 1294 l 215 1122 z "},"":{"ha":694,"x_min":-51,"x_max":599,"o":"m 96 0 l 96 1021 l 151 1021 l 151 583 q 183 646 163 617 q 233 695 204 675 q 295 724 261 715 q 364 733 329 733 q 435 724 400 733 q 498 695 469 715 q 547 645 526 675 q 578 583 567 615 q 594 515 590 550 q 599 444 599 479 l 599 0 l 543 0 l 543 444 q 540 503 543 474 q 526 559 536 532 q 499 610 515 586 q 458 651 482 635 q 405 675 433 668 q 347 682 376 682 q 290 675 318 682 q 237 651 261 668 q 196 610 213 635 q 169 559 179 586 q 155 503 158 532 q 151 444 151 474 l 151 0 l 96 0 m -8 1122 l -50 1151 l 88 1342 l 160 1342 l 297 1151 l 256 1122 l 124 1294 l -8 1122 z "},"":{"ha":694,"x_min":29,"x_max":665,"o":"m 96 0 l 96 764 l 29 764 l 29 814 l 96 814 l 96 1021 l 151 1021 l 151 814 l 543 814 l 543 1021 l 599 1021 l 599 814 l 665 814 l 665 764 l 599 764 l 599 0 l 543 0 l 543 506 l 151 506 l 151 0 l 96 0 m 151 557 l 543 557 l 543 764 l 151 764 l 151 557 z "},"":{"ha":694,"x_min":29,"x_max":599,"o":"m 96 0 l 96 832 l 29 832 l 29 881 l 96 881 l 96 1021 l 151 1021 l 151 881 l 347 881 l 347 832 l 151 832 l 151 583 q 183 646 163 617 q 233 695 204 675 q 295 724 261 715 q 364 733 329 733 q 435 724 400 733 q 498 695 469 715 q 547 645 526 675 q 578 583 567 615 q 594 515 590 550 q 599 444 599 479 l 599 0 l 543 0 l 543 444 q 540 503 543 474 q 526 559 536 532 q 499 610 515 586 q 458 651 482 635 q 405 675 433 668 q 347 682 376 682 q 290 675 318 682 q 237 651 261 668 q 196 610 213 635 q 169 559 179 586 q 155 503 158 532 q 151 444 151 474 l 151 0 l 96 0 z "},"":{"ha":694,"x_min":104,"x_max":590,"o":"m 590 0 l 104 0 l 104 51 l 319 51 l 319 969 l 104 969 l 104 1021 l 590 1021 l 590 969 l 375 969 l 375 51 l 590 51 l 590 0 m 429 1129 q 410 1132 419 1129 q 392 1140 400 1135 q 376 1153 383 1146 q 362 1167 368 1160 q 350 1183 356 1175 q 339 1199 344 1190 q 328 1216 333 1207 q 317 1234 322 1225 q 306 1251 311 1243 q 294 1267 300 1260 q 281 1282 289 1274 q 265 1290 272 1290 q 256 1287 260 1290 q 247 1280 251 1283 q 238 1270 243 1276 q 230 1261 232 1264 q 226 1255 228 1258 q 221 1248 224 1251 q 215 1240 218 1244 q 210 1231 213 1236 q 206 1222 208 1226 q 200 1212 203 1217 q 194 1201 197 1207 q 189 1189 192 1194 q 183 1176 186 1183 q 176 1163 179 1169 q 170 1149 174 1156 q 164 1133 167 1142 l 114 1153 q 125 1177 119 1165 q 135 1200 131 1189 q 145 1221 140 1211 q 155 1240 150 1231 q 165 1257 160 1249 q 174 1272 169 1265 q 183 1285 179 1279 q 195 1301 188 1292 q 210 1316 203 1310 q 226 1328 217 1322 q 244 1337 235 1333 q 265 1340 254 1340 q 285 1338 275 1340 q 303 1329 294 1335 q 319 1317 311 1324 q 333 1302 326 1310 q 344 1287 339 1294 q 356 1271 350 1279 q 367 1253 361 1263 q 378 1235 372 1244 q 389 1218 383 1226 q 400 1203 394 1210 q 414 1188 406 1196 q 429 1179 422 1179 q 439 1183 435 1179 q 447 1190 443 1186 q 457 1199 451 1193 q 465 1208 463 1206 q 469 1215 467 1211 q 474 1222 471 1218 q 479 1229 476 1225 q 484 1238 482 1233 q 489 1248 486 1243 q 494 1258 492 1253 q 500 1269 497 1263 q 506 1281 503 1275 q 512 1293 508 1286 q 518 1307 515 1300 q 524 1321 521 1314 q 531 1336 528 1328 l 581 1317 q 569 1292 575 1304 q 559 1269 564 1281 q 549 1249 554 1258 q 540 1230 544 1239 q 530 1213 535 1221 q 520 1197 525 1204 q 511 1184 515 1190 q 499 1169 507 1178 q 485 1153 492 1160 q 469 1142 478 1147 q 450 1133 460 1136 q 429 1129 440 1129 z "},"":{"ha":694,"x_min":104,"x_max":590,"o":"m 590 0 l 104 0 l 104 51 l 329 51 l 329 671 l 124 671 l 124 722 l 385 722 l 385 51 l 590 51 l 590 0 m 429 831 q 410 833 419 831 q 392 842 400 836 q 376 854 383 847 q 362 869 368 861 q 350 884 356 876 q 339 900 344 892 q 328 917 333 908 q 317 935 322 926 q 306 953 311 944 q 294 968 300 961 q 281 983 289 975 q 265 992 272 992 q 256 988 260 992 q 247 981 251 985 q 238 972 243 978 q 230 963 232 965 q 226 956 228 960 q 221 949 224 953 q 215 942 218 946 q 210 933 213 938 q 206 923 208 928 q 200 913 203 918 q 194 902 197 908 q 189 890 192 896 q 183 878 186 885 q 176 864 179 871 q 170 850 174 857 q 164 835 167 843 l 114 854 q 125 878 119 867 q 135 901 131 890 q 145 922 140 913 q 155 941 150 932 q 165 958 160 950 q 174 974 169 967 q 183 987 179 981 q 195 1002 188 993 q 210 1017 203 1011 q 226 1029 217 1024 q 244 1038 235 1035 q 265 1042 254 1042 q 285 1039 275 1042 q 303 1031 294 1036 q 319 1018 311 1025 q 333 1003 326 1011 q 344 988 339 996 q 356 972 350 981 q 367 955 361 964 q 378 937 372 946 q 389 919 383 928 q 400 904 394 911 q 414 889 406 897 q 429 881 422 881 q 439 884 435 881 q 447 891 443 888 q 457 901 451 894 q 465 910 463 907 q 469 916 467 913 q 474 923 471 919 q 479 931 476 926 q 484 940 482 935 q 489 949 486 944 q 494 959 492 954 q 500 970 497 964 q 506 982 503 976 q 512 994 508 988 q 518 1008 515 1001 q 524 1022 521 1015 q 531 1038 528 1029 l 581 1018 q 569 994 575 1006 q 559 971 564 982 q 549 950 554 960 q 540 931 544 940 q 530 914 535 922 q 520 899 525 906 q 511 885 515 892 q 499 870 507 879 q 485 855 492 861 q 469 843 478 849 q 450 834 460 838 q 429 831 440 831 z "},"":{"ha":694,"x_min":104,"x_max":590,"o":"m 590 0 l 104 0 l 104 51 l 319 51 l 319 969 l 104 969 l 104 1021 l 590 1021 l 590 969 l 375 969 l 375 51 l 590 51 l 590 0 m 556 1204 l 139 1204 l 139 1254 l 556 1254 l 556 1204 z "},"":{"ha":694,"x_min":104,"x_max":590,"o":"m 590 0 l 104 0 l 104 51 l 329 51 l 329 671 l 124 671 l 124 722 l 385 722 l 385 51 l 590 51 l 590 0 m 556 906 l 139 906 l 139 956 l 556 956 l 556 906 z "},"":{"ha":694,"x_min":104,"x_max":590,"o":"m 590 0 l 104 0 l 104 51 l 319 51 l 319 969 l 104 969 l 104 1021 l 590 1021 l 590 969 l 375 969 l 375 51 l 590 51 l 590 0 m 347 1132 q 270 1144 308 1132 q 204 1183 232 1156 q 165 1249 176 1211 q 154 1326 154 1288 l 207 1326 q 215 1269 207 1297 q 243 1221 224 1242 q 290 1191 263 1200 q 347 1182 318 1182 q 404 1191 376 1182 q 451 1221 432 1200 q 479 1269 471 1242 q 488 1326 488 1297 l 540 1326 q 529 1249 540 1288 q 490 1183 518 1211 q 424 1144 463 1156 q 347 1132 386 1132 z "},"":{"ha":694,"x_min":104,"x_max":590,"o":"m 590 0 l 104 0 l 104 51 l 329 51 l 329 671 l 124 671 l 124 722 l 385 722 l 385 51 l 590 51 l 590 0 m 347 833 q 270 845 308 833 q 204 885 232 857 q 165 951 176 913 q 154 1028 154 989 l 207 1028 q 215 971 207 999 q 243 922 224 943 q 290 892 263 901 q 347 883 318 883 q 404 892 376 883 q 451 922 432 901 q 479 971 471 943 q 488 1028 488 999 l 540 1028 q 529 951 540 989 q 490 885 518 913 q 424 845 463 857 q 347 833 386 833 z "},"":{"ha":694,"x_min":104,"x_max":608,"o":"m 590 0 l 104 0 l 104 51 l 319 51 l 319 969 l 104 969 l 104 1021 l 590 1021 l 590 969 l 375 969 l 375 51 l 590 51 l 590 0 m 560 -310 q 510 -303 535 -310 q 465 -281 485 -296 q 434 -241 444 -265 q 424 -192 424 -217 q 440 -119 424 -154 q 479 -56 456 -85 q 531 -3 503 -28 q 590 42 560 21 l 590 0 q 552 -40 571 -19 q 517 -84 533 -61 q 490 -133 501 -107 q 478 -187 478 -160 q 484 -218 478 -203 q 503 -243 490 -233 q 533 -256 517 -253 q 564 -260 549 -260 q 586 -258 575 -260 q 608 -254 597 -257 l 608 -304 q 584 -308 596 -307 q 560 -310 572 -310 z "},"":{"ha":694,"x_min":104,"x_max":608,"o":"m 590 0 l 104 0 l 104 51 l 329 51 l 329 671 l 124 671 l 124 722 l 385 722 l 385 51 l 590 51 l 590 0 m 354 876 q 333 879 343 876 q 314 890 322 882 q 303 909 306 899 q 300 931 300 919 q 303 952 300 942 q 314 971 306 963 q 333 982 322 979 q 354 985 343 985 q 376 982 365 985 q 394 971 386 979 q 406 952 403 963 q 408 931 408 942 q 406 909 408 919 q 394 890 403 899 q 376 879 386 882 q 354 876 365 876 m 560 -310 q 510 -303 535 -310 q 465 -281 485 -296 q 434 -241 444 -265 q 424 -192 424 -217 q 440 -119 424 -154 q 479 -56 456 -85 q 531 -3 503 -28 q 590 42 560 21 l 590 0 q 552 -40 571 -19 q 517 -84 533 -61 q 490 -133 501 -107 q 478 -187 478 -160 q 484 -218 478 -203 q 503 -243 490 -233 q 533 -256 517 -253 q 564 -260 549 -260 q 586 -258 575 -260 q 608 -254 597 -257 l 608 -304 q 584 -308 596 -307 q 560 -310 572 -310 z "},"":{"ha":694,"x_min":104,"x_max":590,"o":"m 590 0 l 104 0 l 104 51 l 319 51 l 319 969 l 104 969 l 104 1021 l 590 1021 l 590 969 l 375 969 l 375 51 l 590 51 l 590 0 m 347 1175 q 326 1178 336 1175 q 307 1189 315 1181 q 296 1208 299 1197 q 293 1229 293 1218 q 296 1251 293 1240 q 307 1269 299 1261 q 326 1281 315 1278 q 347 1283 336 1283 q 369 1281 358 1283 q 388 1269 379 1278 q 399 1251 396 1261 q 401 1229 401 1240 q 399 1208 401 1218 q 388 1189 396 1197 q 369 1178 379 1181 q 347 1175 358 1175 z "},"":{"ha":694,"x_min":104,"x_max":590,"o":"m 590 0 l 104 0 l 104 51 l 329 51 l 329 671 l 124 671 l 124 722 l 385 722 l 385 51 l 590 51 l 590 0 z "},"":{"ha":694,"x_min":69,"x_max":708,"o":"m 322 -11 q 256 -6 289 -11 q 194 15 224 0 q 140 52 164 29 q 100 104 115 75 q 77 166 85 133 q 69 232 69 199 l 69 236 l 125 236 l 125 232 q 138 156 125 193 q 179 91 151 118 q 245 52 207 64 q 322 40 283 40 q 380 47 351 40 q 433 69 408 53 q 474 108 457 85 q 502 158 492 131 q 517 213 513 185 q 521 271 521 242 l 521 969 l 306 969 l 306 1021 l 576 1021 l 576 271 q 571 199 576 235 q 551 131 565 164 q 515 69 538 97 q 460 22 492 40 q 394 -3 429 4 q 322 -11 358 -11 m 403 1122 l 361 1151 l 499 1342 l 571 1342 l 708 1151 l 667 1122 l 535 1294 l 403 1122 z "},"":{"ha":694,"x_min":54,"x_max":599,"o":"m 257 -310 q 177 -297 217 -310 q 110 -253 138 -283 q 69 -184 82 -224 q 54 -104 56 -144 l 110 -104 q 119 -163 110 -133 q 149 -215 129 -193 q 198 -248 169 -237 q 257 -258 226 -258 q 308 -249 283 -258 q 350 -222 332 -240 q 379 -179 368 -203 q 397 -131 390 -156 q 405 -80 403 -106 q 407 -28 407 -54 l 407 671 l 192 671 l 192 722 l 463 722 l 463 -28 q 459 -94 463 -61 q 446 -158 456 -126 q 419 -218 436 -189 q 378 -269 403 -247 q 322 -300 354 -290 q 257 -310 290 -310 m 292 824 l 250 853 l 388 1043 l 460 1043 l 597 853 l 556 824 l 424 996 l 292 824 z "},"":{"ha":694,"x_min":118,"x_max":601,"o":"m 539 0 l 258 513 l 174 385 l 174 0 l 118 0 l 118 1021 l 174 1021 l 174 479 l 536 1021 l 601 1021 l 292 561 l 601 0 l 539 0 m 338 -319 l 300 -296 q 328 -237 318 -268 q 343 -172 339 -206 q 326 -169 335 -172 q 313 -159 318 -165 q 304 -144 307 -153 q 301 -128 301 -136 q 304 -109 301 -118 q 314 -94 307 -100 q 329 -85 321 -87 q 347 -82 338 -82 q 365 -85 357 -82 q 381 -94 374 -87 q 390 -109 388 -100 q 393 -128 393 -118 q 381 -228 393 -178 q 338 -319 368 -278 z "},"":{"ha":694,"x_min":118,"x_max":593,"o":"m 118 0 l 118 1021 l 174 1021 l 174 335 l 521 722 l 593 722 l 299 396 l 593 0 l 526 0 l 263 357 l 174 257 l 174 0 l 118 0 m 338 -319 l 300 -296 q 328 -237 318 -268 q 343 -172 339 -206 q 326 -169 335 -172 q 313 -159 318 -165 q 304 -144 307 -153 q 301 -128 301 -136 q 304 -109 301 -118 q 314 -94 307 -100 q 329 -85 321 -87 q 347 -82 338 -82 q 365 -85 357 -82 q 381 -94 374 -87 q 390 -109 388 -100 q 393 -128 393 -118 q 381 -228 393 -178 q 338 -319 368 -278 z "},"":{"ha":694,"x_min":118,"x_max":593,"o":"m 118 0 l 118 722 l 174 722 l 174 335 l 521 722 l 593 722 l 299 396 l 593 0 l 526 0 l 263 357 l 174 257 l 174 0 l 118 0 z "},"":{"ha":694,"x_min":125,"x_max":607,"o":"m 144 0 l 144 1021 l 199 1021 l 199 51 l 607 51 l 607 0 l 144 0 m 163 1118 l 125 1146 l 269 1343 l 315 1310 l 163 1118 z "},"":{"ha":694,"x_min":104,"x_max":590,"o":"m 590 0 l 104 0 l 104 51 l 329 51 l 329 969 l 124 969 l 124 1021 l 385 1021 l 385 51 l 590 51 l 590 0 m 346 1118 l 308 1146 l 453 1343 l 499 1310 l 346 1118 z "},"":{"ha":694,"x_min":144,"x_max":607,"o":"m 144 0 l 144 1021 l 199 1021 l 199 51 l 607 51 l 607 0 l 144 0 m 338 -319 l 300 -296 q 328 -237 318 -268 q 343 -172 339 -206 q 326 -169 335 -172 q 313 -159 318 -165 q 304 -144 307 -153 q 301 -128 301 -136 q 304 -109 301 -118 q 314 -94 307 -100 q 329 -85 321 -87 q 347 -82 338 -82 q 365 -85 357 -82 q 381 -94 374 -87 q 390 -109 388 -100 q 393 -128 393 -118 q 381 -228 393 -178 q 338 -319 368 -278 z "},"":{"ha":694,"x_min":104,"x_max":590,"o":"m 590 0 l 104 0 l 104 51 l 329 51 l 329 969 l 124 969 l 124 1021 l 385 1021 l 385 51 l 590 51 l 590 0 m 347 -319 l 310 -296 q 338 -237 328 -268 q 353 -172 349 -206 q 336 -169 344 -172 q 322 -159 328 -165 q 314 -144 317 -153 q 311 -128 311 -136 q 314 -109 311 -118 q 324 -94 317 -100 q 339 -85 331 -87 q 357 -82 347 -82 q 375 -85 367 -82 q 390 -94 383 -87 q 400 -109 397 -100 q 403 -128 403 -118 q 390 -228 403 -178 q 347 -319 378 -278 z "},"":{"ha":694,"x_min":144,"x_max":607,"o":"m 526 810 l 489 835 q 517 892 507 861 q 532 957 528 924 q 515 960 524 957 q 501 970 507 964 q 493 985 496 976 q 490 1001 490 993 q 493 1020 490 1011 q 503 1035 496 1029 q 518 1044 510 1042 q 536 1047 526 1047 q 554 1044 546 1047 q 569 1035 563 1042 q 579 1020 576 1029 q 582 1001 582 1011 q 569 901 582 951 q 526 810 557 851 m 144 0 l 144 1021 l 199 1021 l 199 51 l 607 51 l 607 0 l 144 0 z "},"":{"ha":694,"x_min":104,"x_max":590,"o":"m 500 810 l 463 835 q 491 892 481 861 q 506 957 501 924 q 489 960 497 957 q 475 970 481 964 q 467 985 469 976 q 464 1001 464 993 q 467 1020 464 1011 q 476 1035 469 1029 q 492 1044 483 1042 q 510 1047 500 1047 q 528 1044 519 1047 q 543 1035 536 1042 q 553 1020 550 1029 q 556 1001 556 1011 q 543 901 556 951 q 500 810 531 851 m 590 0 l 104 0 l 104 51 l 329 51 l 329 969 l 124 969 l 124 1021 l 385 1021 l 385 51 l 590 51 l 590 0 z "},"":{"ha":694,"x_min":144,"x_max":607,"o":"m 144 0 l 144 1021 l 199 1021 l 199 51 l 607 51 l 607 0 l 144 0 m 436 471 q 410 474 422 471 q 388 488 397 478 q 374 510 378 497 q 371 536 371 522 q 374 563 371 550 q 388 585 378 575 q 410 598 397 594 q 436 601 422 601 q 463 598 450 601 q 485 585 475 594 q 498 563 494 575 q 501 536 501 550 q 498 510 501 522 q 485 488 494 497 q 463 474 475 478 q 436 471 450 471 z "},"":{"ha":694,"x_min":76,"x_max":610,"o":"m 563 0 l 76 0 l 76 51 l 301 51 l 301 969 l 96 969 l 96 1021 l 357 1021 l 357 51 l 563 51 l 563 0 m 544 471 q 518 474 531 471 q 496 488 506 478 q 483 510 486 497 q 479 536 479 522 q 483 563 479 550 q 496 585 486 575 q 518 598 506 594 q 544 601 531 601 q 571 598 558 601 q 593 585 583 594 q 606 563 603 575 q 610 536 610 550 q 606 510 610 522 q 593 488 603 497 q 571 474 583 478 q 544 471 558 471 z "},"":{"ha":694,"x_min":36,"x_max":607,"o":"m 144 0 l 144 458 l 60 417 l 36 461 l 144 514 l 144 1021 l 199 1021 l 199 542 l 425 656 l 449 611 l 199 486 l 199 51 l 607 51 l 607 0 l 144 0 z "},"":{"ha":694,"x_min":104,"x_max":590,"o":"m 590 0 l 104 0 l 104 51 l 329 51 l 329 489 l 175 411 l 150 456 l 329 544 l 329 969 l 124 969 l 124 1021 l 385 1021 l 385 572 l 539 650 l 564 606 l 385 517 l 385 51 l 590 51 l 590 0 z "},"":{"ha":694,"x_min":96,"x_max":599,"o":"m 96 0 l 96 1021 l 172 1021 l 546 82 q 544 347 546 214 q 543 613 543 479 l 543 1021 l 599 1021 l 599 0 l 522 0 l 149 939 q 150 674 149 807 q 151 408 151 542 l 151 0 l 96 0 m 339 1118 l 301 1146 l 446 1343 l 492 1310 l 339 1118 z "},"":{"ha":694,"x_min":96,"x_max":599,"o":"m 96 0 l 96 722 l 151 722 l 151 583 q 183 646 163 617 q 233 695 204 675 q 295 724 261 715 q 364 733 329 733 q 435 724 400 733 q 498 695 469 715 q 547 645 526 675 q 578 583 567 615 q 594 515 590 550 q 599 444 599 479 l 599 0 l 543 0 l 543 444 q 540 503 543 474 q 526 559 536 532 q 499 610 515 586 q 458 651 482 635 q 405 675 433 668 q 347 682 376 682 q 290 675 318 682 q 237 651 261 668 q 196 610 213 635 q 169 559 179 586 q 155 503 158 532 q 151 444 151 474 l 151 0 l 96 0 m 339 819 l 301 847 l 446 1044 l 492 1011 l 339 819 z "},"":{"ha":694,"x_min":96,"x_max":599,"o":"m 96 0 l 96 1021 l 172 1021 l 546 82 q 544 347 546 214 q 543 613 543 479 l 543 1021 l 599 1021 l 599 0 l 522 0 l 149 939 q 150 674 149 807 q 151 408 151 542 l 151 0 l 96 0 m 338 -319 l 300 -296 q 328 -237 318 -268 q 343 -172 339 -206 q 326 -169 335 -172 q 313 -159 318 -165 q 304 -144 307 -153 q 301 -128 301 -136 q 304 -109 301 -118 q 314 -94 307 -100 q 329 -85 321 -87 q 347 -82 338 -82 q 365 -85 357 -82 q 381 -94 374 -87 q 390 -109 388 -100 q 393 -128 393 -118 q 381 -228 393 -178 q 338 -319 368 -278 z "},"":{"ha":694,"x_min":96,"x_max":599,"o":"m 96 0 l 96 722 l 151 722 l 151 583 q 183 646 163 617 q 233 695 204 675 q 295 724 261 715 q 364 733 329 733 q 435 724 400 733 q 498 695 469 715 q 547 645 526 675 q 578 583 567 615 q 594 515 590 550 q 599 444 599 479 l 599 0 l 543 0 l 543 444 q 540 503 543 474 q 526 559 536 532 q 499 610 515 586 q 458 651 482 635 q 405 675 433 668 q 347 682 376 682 q 290 675 318 682 q 237 651 261 668 q 196 610 213 635 q 169 559 179 586 q 155 503 158 532 q 151 444 151 474 l 151 0 l 96 0 m 338 -319 l 300 -296 q 328 -237 318 -268 q 343 -172 339 -206 q 326 -169 335 -172 q 313 -159 318 -165 q 304 -144 307 -153 q 301 -128 301 -136 q 304 -109 301 -118 q 314 -94 307 -100 q 329 -85 321 -87 q 347 -82 338 -82 q 365 -85 357 -82 q 381 -94 374 -87 q 390 -109 388 -100 q 393 -128 393 -118 q 381 -228 393 -178 q 338 -319 368 -278 z "},"":{"ha":694,"x_min":96,"x_max":599,"o":"m 96 0 l 96 1021 l 172 1021 l 546 82 q 544 347 546 214 q 543 613 543 479 l 543 1021 l 599 1021 l 599 0 l 522 0 l 149 939 q 150 674 149 807 q 151 408 151 542 l 151 0 l 96 0 m 311 1132 l 174 1324 l 215 1351 l 347 1179 l 479 1351 l 521 1324 l 383 1132 l 311 1132 z "},"":{"ha":694,"x_min":96,"x_max":599,"o":"m 96 0 l 96 722 l 151 722 l 151 583 q 183 646 163 617 q 233 695 204 675 q 295 724 261 715 q 364 733 329 733 q 435 724 400 733 q 498 695 469 715 q 547 645 526 675 q 578 583 567 615 q 594 515 590 550 q 599 444 599 479 l 599 0 l 543 0 l 543 444 q 540 503 543 474 q 526 559 536 532 q 499 610 515 586 q 458 651 482 635 q 405 675 433 668 q 347 682 376 682 q 290 675 318 682 q 237 651 261 668 q 196 610 213 635 q 169 559 179 586 q 155 503 158 532 q 151 444 151 474 l 151 0 l 96 0 m 311 833 l 174 1025 l 215 1053 l 347 881 l 479 1053 l 521 1025 l 383 833 l 311 833 z "},"":{"ha":694,"x_min":49,"x_max":599,"o":"m 96 0 l 96 722 l 151 722 l 151 583 q 183 646 163 617 q 233 695 204 675 q 295 724 261 715 q 364 733 329 733 q 435 724 400 733 q 498 695 469 715 q 547 645 526 675 q 578 583 567 615 q 594 515 590 550 q 599 444 599 479 l 599 0 l 543 0 l 543 444 q 540 503 543 474 q 526 559 536 532 q 499 610 515 586 q 458 651 482 635 q 405 675 433 668 q 347 682 376 682 q 290 675 318 682 q 237 651 261 668 q 196 610 213 635 q 169 559 179 586 q 155 503 158 532 q 151 444 151 474 l 151 0 l 96 0 m 86 810 l 49 835 q 77 892 67 861 q 92 957 88 924 q 75 960 83 957 q 61 970 67 964 q 53 985 56 976 q 50 1001 50 993 q 53 1020 50 1011 q 63 1035 56 1029 q 78 1044 69 1042 q 96 1047 86 1047 q 114 1044 106 1047 q 129 1035 122 1042 q 139 1020 136 1029 q 142 1001 142 1011 q 129 901 142 951 q 86 810 117 851 z "},"":{"ha":694,"x_min":96,"x_max":599,"o":"m 363 -299 l 335 -299 l 335 -247 l 363 -247 q 412 -243 388 -247 q 458 -228 436 -239 q 497 -199 479 -217 q 524 -159 514 -181 q 539 -113 535 -137 q 543 -64 543 -89 l 543 0 l 522 0 l 149 939 q 150 674 149 807 q 151 408 151 542 l 151 0 l 96 0 l 96 1021 l 172 1021 l 546 82 q 544 347 546 214 q 543 613 543 479 l 543 1021 l 599 1021 l 599 -64 q 593 -127 599 -96 q 574 -186 588 -158 q 537 -237 560 -214 q 485 -274 514 -260 q 426 -293 457 -287 q 363 -299 394 -299 z "},"":{"ha":694,"x_min":96,"x_max":599,"o":"m 363 -299 l 335 -299 l 335 -247 l 363 -247 q 412 -243 388 -247 q 458 -228 436 -239 q 497 -199 479 -217 q 524 -159 514 -181 q 539 -113 535 -137 q 543 -64 543 -89 l 543 444 q 540 503 543 474 q 526 559 536 532 q 499 610 515 586 q 458 651 482 635 q 405 675 433 668 q 347 682 376 682 q 290 675 318 682 q 237 651 261 668 q 196 610 213 635 q 169 559 179 586 q 155 503 158 532 q 151 444 151 474 l 151 0 l 96 0 l 96 722 l 151 722 l 151 583 q 183 646 163 617 q 233 695 204 675 q 295 724 261 715 q 364 733 329 733 q 435 724 400 733 q 498 695 469 715 q 547 645 526 675 q 578 583 567 615 q 594 515 590 550 q 599 444 599 479 l 599 -64 q 593 -127 599 -96 q 574 -186 588 -158 q 537 -237 560 -214 q 485 -274 514 -260 q 426 -293 457 -287 q 363 -299 394 -299 z "},"":{"ha":694,"x_min":85,"x_max":610,"o":"m 347 -11 q 275 -4 311 -11 q 207 21 239 3 q 151 67 175 39 q 111 128 126 94 q 90 198 96 161 q 85 271 85 235 l 85 750 q 90 823 85 786 q 111 893 96 860 q 151 954 126 926 q 207 1000 175 982 q 275 1025 239 1018 q 347 1032 311 1032 q 419 1025 383 1032 q 488 1000 456 1018 q 544 954 519 982 q 583 893 568 926 q 604 823 599 860 q 610 750 610 786 l 610 271 q 604 198 610 235 q 583 128 599 161 q 544 67 568 94 q 488 21 519 39 q 419 -4 456 3 q 347 -11 383 -11 m 347 40 q 406 46 376 40 q 460 67 435 51 q 504 106 485 82 q 535 156 524 129 q 550 213 546 183 q 554 271 554 242 l 554 750 q 550 808 554 779 q 535 865 546 838 q 504 915 524 892 q 460 954 485 939 q 406 975 435 969 q 347 981 376 981 q 289 975 318 981 q 235 954 260 969 q 190 915 210 939 q 160 865 171 892 q 144 808 149 838 q 140 750 140 779 l 140 271 q 144 213 140 242 q 160 156 149 183 q 190 106 171 129 q 235 67 210 82 q 289 46 260 51 q 347 40 318 40 m 556 1204 l 139 1204 l 139 1254 l 556 1254 l 556 1204 z "},"":{"ha":694,"x_min":85,"x_max":610,"o":"m 347 -11 q 274 -3 310 -11 q 206 23 238 4 q 149 70 174 42 q 110 133 125 99 q 90 203 96 167 q 85 278 85 240 l 85 444 q 90 519 85 482 q 110 590 96 556 q 149 652 125 624 q 206 699 174 681 q 274 726 238 718 q 347 733 310 733 q 421 726 385 733 q 489 699 457 718 q 545 652 521 681 q 584 590 569 624 q 604 519 599 556 q 610 444 610 482 l 610 278 q 604 203 610 240 q 584 133 599 167 q 545 70 569 99 q 489 23 521 42 q 421 -3 457 4 q 347 -11 385 -11 m 347 40 q 407 47 378 40 q 461 69 436 53 q 505 109 486 85 q 535 161 524 133 q 550 218 546 189 q 554 278 554 247 l 554 444 q 550 504 554 475 q 535 561 546 533 q 505 613 524 589 q 461 653 486 638 q 407 676 436 669 q 347 682 378 682 q 288 676 317 682 q 233 653 258 669 q 190 613 208 638 q 160 561 171 589 q 144 504 149 533 q 140 444 140 475 l 140 278 q 144 218 140 247 q 160 161 149 189 q 190 109 171 133 q 233 69 208 85 q 288 47 258 53 q 347 40 317 40 m 556 906 l 139 906 l 139 956 l 556 956 l 556 906 z "},"":{"ha":694,"x_min":85,"x_max":610,"o":"m 347 -11 q 275 -4 311 -11 q 207 21 239 3 q 151 67 175 39 q 111 128 126 94 q 90 198 96 161 q 85 271 85 235 l 85 750 q 90 823 85 786 q 111 893 96 860 q 151 954 126 926 q 207 1000 175 982 q 275 1025 239 1018 q 347 1032 311 1032 q 419 1025 383 1032 q 488 1000 456 1018 q 544 954 519 982 q 583 893 568 926 q 604 823 599 860 q 610 750 610 786 l 610 271 q 604 198 610 235 q 583 128 599 161 q 544 67 568 94 q 488 21 519 39 q 419 -4 456 3 q 347 -11 383 -11 m 347 40 q 406 46 376 40 q 460 67 435 51 q 504 106 485 82 q 535 156 524 129 q 550 213 546 183 q 554 271 554 242 l 554 750 q 550 808 554 779 q 535 865 546 838 q 504 915 524 892 q 460 954 485 939 q 406 975 435 969 q 347 981 376 981 q 289 975 318 981 q 235 954 260 969 q 190 915 210 939 q 160 865 171 892 q 144 808 149 838 q 140 750 140 779 l 140 271 q 144 213 140 242 q 160 156 149 183 q 190 106 171 129 q 235 67 210 82 q 289 46 260 51 q 347 40 318 40 m 347 1132 q 270 1144 308 1132 q 204 1183 232 1156 q 165 1249 176 1211 q 154 1326 154 1288 l 207 1326 q 215 1269 207 1297 q 243 1221 224 1242 q 290 1191 263 1200 q 347 1182 318 1182 q 404 1191 376 1182 q 451 1221 432 1200 q 479 1269 471 1242 q 488 1326 488 1297 l 540 1326 q 529 1249 540 1288 q 490 1183 518 1211 q 424 1144 463 1156 q 347 1132 386 1132 z "},"":{"ha":694,"x_min":85,"x_max":610,"o":"m 347 -11 q 274 -3 310 -11 q 206 23 238 4 q 149 70 174 42 q 110 133 125 99 q 90 203 96 167 q 85 278 85 240 l 85 444 q 90 519 85 482 q 110 590 96 556 q 149 652 125 624 q 206 699 174 681 q 274 726 238 718 q 347 733 310 733 q 421 726 385 733 q 489 699 457 718 q 545 652 521 681 q 584 590 569 624 q 604 519 599 556 q 610 444 610 482 l 610 278 q 604 203 610 240 q 584 133 599 167 q 545 70 569 99 q 489 23 521 42 q 421 -3 457 4 q 347 -11 385 -11 m 347 40 q 407 47 378 40 q 461 69 436 53 q 505 109 486 85 q 535 161 524 133 q 550 218 546 189 q 554 278 554 247 l 554 444 q 550 504 554 475 q 535 561 546 533 q 505 613 524 589 q 461 653 486 638 q 407 676 436 669 q 347 682 378 682 q 288 676 317 682 q 233 653 258 669 q 190 613 208 638 q 160 561 171 589 q 144 504 149 533 q 140 444 140 475 l 140 278 q 144 218 140 247 q 160 161 149 189 q 190 109 171 133 q 233 69 208 85 q 288 47 258 53 q 347 40 317 40 m 347 833 q 270 845 308 833 q 204 885 232 857 q 165 951 176 913 q 154 1028 154 989 l 207 1028 q 215 971 207 999 q 243 922 224 943 q 290 892 263 901 q 347 883 318 883 q 404 892 376 883 q 451 922 432 901 q 479 971 471 943 q 488 1028 488 999 l 540 1028 q 529 951 540 989 q 490 885 518 913 q 424 845 463 857 q 347 833 386 833 z "},"":{"ha":694,"x_min":85,"x_max":626,"o":"m 347 -11 q 275 -4 311 -11 q 207 21 239 3 q 151 67 175 39 q 111 128 126 94 q 90 198 96 161 q 85 271 85 235 l 85 750 q 90 823 85 786 q 111 893 96 860 q 151 954 126 926 q 207 1000 175 982 q 275 1025 239 1018 q 347 1032 311 1032 q 419 1025 383 1032 q 488 1000 456 1018 q 544 954 519 982 q 583 893 568 926 q 604 823 599 860 q 610 750 610 786 l 610 271 q 604 198 610 235 q 583 128 599 161 q 544 67 568 94 q 488 21 519 39 q 419 -4 456 3 q 347 -11 383 -11 m 347 40 q 406 46 376 40 q 460 67 435 51 q 504 106 485 82 q 535 156 524 129 q 550 213 546 183 q 554 271 554 242 l 554 750 q 550 808 554 779 q 535 865 546 838 q 504 915 524 892 q 460 954 485 939 q 406 975 435 969 q 347 981 376 981 q 289 975 318 981 q 235 954 260 969 q 190 915 210 939 q 160 865 171 892 q 144 808 149 838 q 140 750 140 779 l 140 271 q 144 213 140 242 q 160 156 149 183 q 190 106 171 129 q 235 67 210 82 q 289 46 260 51 q 347 40 318 40 m 457 1118 l 419 1146 l 582 1344 l 626 1308 l 457 1118 m 221 1118 l 183 1146 l 346 1344 l 390 1308 l 221 1118 z "},"":{"ha":694,"x_min":85,"x_max":626,"o":"m 347 -11 q 274 -3 310 -11 q 206 23 238 4 q 149 70 174 42 q 110 133 125 99 q 90 203 96 167 q 85 278 85 240 l 85 444 q 90 519 85 482 q 110 590 96 556 q 149 652 125 624 q 206 699 174 681 q 274 726 238 718 q 347 733 310 733 q 421 726 385 733 q 489 699 457 718 q 545 652 521 681 q 584 590 569 624 q 604 519 599 556 q 610 444 610 482 l 610 278 q 604 203 610 240 q 584 133 599 167 q 545 70 569 99 q 489 23 521 42 q 421 -3 457 4 q 347 -11 385 -11 m 347 40 q 407 47 378 40 q 461 69 436 53 q 505 109 486 85 q 535 161 524 133 q 550 218 546 189 q 554 278 554 247 l 554 444 q 550 504 554 475 q 535 561 546 533 q 505 613 524 589 q 461 653 486 638 q 407 676 436 669 q 347 682 378 682 q 288 676 317 682 q 233 653 258 669 q 190 613 208 638 q 160 561 171 589 q 144 504 149 533 q 140 444 140 475 l 140 278 q 144 218 140 247 q 160 161 149 189 q 190 109 171 133 q 233 69 208 85 q 288 47 258 53 q 347 40 317 40 m 457 819 l 419 847 l 582 1046 l 626 1010 l 457 819 m 221 819 l 183 847 l 346 1046 l 390 1010 l 221 819 z "},"":{"ha":694,"x_min":79,"x_max":604,"o":"m 333 0 l 333 1021 l 604 1021 l 604 971 l 388 971 l 388 556 l 592 556 l 592 506 l 388 506 l 388 50 l 604 50 l 604 0 l 333 0 m 333 0 q 264 7 299 0 q 198 31 229 14 q 143 75 167 49 q 105 133 119 101 q 85 201 90 165 q 79 271 79 236 l 79 750 q 85 820 79 785 q 105 888 90 856 q 143 946 119 919 q 198 990 167 972 q 264 1014 229 1007 q 333 1021 299 1021 l 333 971 q 278 965 306 971 q 226 945 250 960 q 183 908 201 931 q 153 860 164 886 q 138 806 142 835 q 133 750 133 778 l 133 271 q 138 215 133 243 q 153 160 142 186 q 183 113 164 135 q 226 76 201 90 q 278 56 250 61 q 333 50 306 50 l 333 0 z "},"":{"ha":694,"x_min":79,"x_max":615,"o":"m 226 -11 q 181 -4 204 -11 q 140 17 158 3 q 110 52 122 32 q 92 94 99 72 q 82 140 85 117 q 79 186 79 163 l 79 536 q 82 583 79 560 q 92 628 85 606 q 110 670 99 650 q 140 705 122 690 q 181 726 158 719 q 226 733 204 733 q 264 729 246 733 q 298 716 282 725 q 326 693 314 707 q 347 664 339 679 q 368 693 356 679 q 397 716 381 707 q 431 729 413 725 q 468 733 449 733 q 513 726 490 733 q 554 705 536 719 q 584 670 572 690 q 603 628 596 650 q 613 583 610 606 q 615 536 615 560 l 615 336 l 375 336 l 375 186 q 376 153 375 169 q 381 122 376 138 q 391 91 385 106 q 408 64 397 76 q 435 45 419 51 q 467 39 450 39 q 497 45 482 39 q 522 63 511 51 q 540 88 533 74 q 550 118 546 103 q 556 149 554 133 q 558 181 558 165 l 558 188 l 613 188 l 613 178 q 609 133 613 156 q 599 90 606 111 q 579 49 592 68 q 549 16 567 31 q 510 -5 532 1 q 467 -11 489 -11 q 430 -7 447 -11 q 397 6 413 -3 q 368 29 381 15 q 347 58 356 43 q 325 28 338 42 q 297 6 313 15 q 264 -7 282 -3 q 226 -11 246 -11 m 375 386 l 561 386 l 561 536 q 560 569 561 553 q 554 601 558 585 q 543 632 550 617 q 525 659 536 647 q 499 677 514 671 q 468 683 483 683 q 436 677 451 683 q 410 659 421 671 q 392 632 399 647 q 381 601 385 617 q 376 569 376 585 q 375 536 375 553 l 375 386 m 226 39 q 258 45 243 39 q 285 63 274 51 q 303 90 296 75 q 314 122 310 106 q 319 153 318 138 q 319 186 319 169 l 319 536 q 319 569 319 553 q 314 601 318 585 q 303 632 310 617 q 285 659 296 647 q 258 677 274 671 q 226 683 243 683 q 196 677 211 683 q 169 659 181 671 q 151 632 158 647 q 140 601 144 617 q 135 569 136 585 q 133 536 133 553 l 133 186 q 135 153 133 169 q 140 122 136 138 q 151 90 144 106 q 169 63 158 75 q 196 45 181 51 q 226 39 211 39 z "},"":{"ha":694,"x_min":96,"x_max":632,"o":"m 96 0 l 96 1021 l 358 1021 q 430 1013 394 1021 q 496 987 465 1006 q 549 940 526 968 q 586 878 572 911 q 605 808 600 844 q 610 736 610 772 q 606 671 610 704 q 590 607 601 638 q 560 549 579 576 q 515 501 542 521 q 458 468 489 481 q 394 453 426 456 l 632 0 l 571 0 l 333 453 l 151 453 l 151 0 l 96 0 m 151 503 l 358 503 q 415 510 388 503 q 467 533 443 517 q 509 572 492 549 q 537 623 526 596 q 551 679 547 650 q 554 736 554 708 q 551 794 554 765 q 537 850 547 824 q 509 901 526 876 q 467 941 492 925 q 415 963 443 957 q 358 969 388 969 l 151 969 l 151 503 m 339 1118 l 301 1146 l 446 1343 l 492 1310 l 339 1118 z "},"":{"ha":694,"x_min":179,"x_max":619,"o":"m 179 0 l 179 722 l 235 722 l 235 557 q 261 624 244 592 q 303 681 278 656 q 363 720 329 707 q 433 733 397 733 q 484 729 458 733 q 532 714 510 725 q 572 684 554 703 q 601 642 590 665 q 616 594 613 619 q 619 544 619 569 l 564 544 q 557 598 564 571 q 532 645 550 625 q 488 674 514 665 q 433 682 461 682 q 368 670 400 682 q 312 635 336 658 q 273 580 288 611 q 249 516 258 549 q 238 450 240 483 q 235 383 235 417 l 235 0 l 179 0 m 354 819 l 317 847 l 461 1044 l 507 1011 l 354 819 z "},"":{"ha":694,"x_min":96,"x_max":632,"o":"m 96 0 l 96 1021 l 358 1021 q 430 1013 394 1021 q 496 987 465 1006 q 549 940 526 968 q 586 878 572 911 q 605 808 600 844 q 610 736 610 772 q 606 671 610 704 q 590 607 601 638 q 560 549 579 576 q 515 501 542 521 q 458 468 489 481 q 394 453 426 456 l 632 0 l 571 0 l 333 453 l 151 453 l 151 0 l 96 0 m 151 503 l 358 503 q 415 510 388 503 q 467 533 443 517 q 509 572 492 549 q 537 623 526 596 q 551 679 547 650 q 554 736 554 708 q 551 794 554 765 q 537 850 547 824 q 509 901 526 876 q 467 941 492 925 q 415 963 443 957 q 358 969 388 969 l 151 969 l 151 503 m 338 -319 l 300 -296 q 328 -237 318 -268 q 343 -172 339 -206 q 326 -169 335 -172 q 313 -159 318 -165 q 304 -144 307 -153 q 301 -128 301 -136 q 304 -109 301 -118 q 314 -94 307 -100 q 329 -85 321 -87 q 347 -82 338 -82 q 365 -85 357 -82 q 381 -94 374 -87 q 390 -109 388 -100 q 393 -128 393 -118 q 381 -228 393 -178 q 338 -319 368 -278 z "},"":{"ha":694,"x_min":158,"x_max":619,"o":"m 179 0 l 179 722 l 235 722 l 235 557 q 261 624 244 592 q 303 681 278 656 q 363 720 329 707 q 433 733 397 733 q 484 729 458 733 q 532 714 510 725 q 572 684 554 703 q 601 642 590 665 q 616 594 613 619 q 619 544 619 569 l 564 544 q 557 598 564 571 q 532 645 550 625 q 488 674 514 665 q 433 682 461 682 q 368 670 400 682 q 312 635 336 658 q 273 580 288 611 q 249 516 258 549 q 238 450 240 483 q 235 383 235 417 l 235 0 l 179 0 m 197 -319 l 160 -296 q 188 -237 178 -268 q 203 -172 199 -206 q 186 -169 194 -172 q 172 -159 178 -165 q 164 -144 167 -153 q 161 -128 161 -136 q 164 -109 161 -118 q 174 -94 167 -100 q 189 -85 181 -87 q 207 -82 197 -82 q 225 -85 217 -82 q 240 -94 233 -87 q 250 -109 247 -100 q 253 -128 253 -118 q 240 -228 253 -178 q 197 -319 228 -278 z "},"":{"ha":694,"x_min":96,"x_max":632,"o":"m 96 0 l 96 1021 l 358 1021 q 430 1013 394 1021 q 496 987 465 1006 q 549 940 526 968 q 586 878 572 911 q 605 808 600 844 q 610 736 610 772 q 606 671 610 704 q 590 607 601 638 q 560 549 579 576 q 515 501 542 521 q 458 468 489 481 q 394 453 426 456 l 632 0 l 571 0 l 333 453 l 151 453 l 151 0 l 96 0 m 151 503 l 358 503 q 415 510 388 503 q 467 533 443 517 q 509 572 492 549 q 537 623 526 596 q 551 679 547 650 q 554 736 554 708 q 551 794 554 765 q 537 850 547 824 q 509 901 526 876 q 467 941 492 925 q 415 963 443 957 q 358 969 388 969 l 151 969 l 151 503 m 311 1132 l 174 1324 l 215 1351 l 347 1179 l 479 1351 l 521 1324 l 383 1132 l 311 1132 z "}}}
